SplineFontDB: 2.0
FontName: Verachart-Bold
FullName: Verachart Bold
FamilyName: Verachart
Weight: Bold
Copyright: Copyright (c) 2007 Widhaya Trisarnwadhana <widhaya3@gmail.com>. All rights reserved.\n\nModified under GNU General Public License by TLWG.
Version: 0.10.0: 2007-10-01
ItalicAngle: 0
UnderlinePosition: -170
UnderlineWidth: 10
Ascent: 1638
Descent: 410
NeedsXUIDChange: 1
FSType: 0
OS2Version: 0
OS2_WeightWidthSlopeOnly: 0
OS2_UseTypoMetrics: 0
CreationTime: 1153662462
ModificationTime: 1191387085
PfmFamily: 33
TTFWeight: 700
TTFWidth: 5
LineGap: 0
VLineGap: 0
Panose: 2 11 6 4 2 2 2 2 2 4
OS2TypoAscent: 0
OS2TypoAOffset: 1
OS2TypoDescent: 0
OS2TypoDOffset: 1
OS2TypoLinegap: 0
OS2WinAscent: 0
OS2WinAOffset: 1
OS2WinDescent: 0
OS2WinDOffset: 1
HheadAscent: 0
HheadAOffset: 1
HheadDescent: 0
HheadDOffset: 1
OS2SubXSize: -3428
OS2SubYSize: 26328
OS2SubXOff: 0
OS2SubYOff: 0
OS2SupXSize: 26172
OS2SupYSize: 3
OS2SupXOff: -12668
OS2SupYOff: -12668
OS2StrikeYSize: 21536
OS2StrikeYPos: 90
OS2Vendor: 'PfEd'
Lookup: 6 0 0 "'ccmp' Glyph Composition/Decomposition in Thai lookup 0"  {"'ccmp' Glyph Composition/Decomposition in Thai lookup 0"  } ['ccmp' ('thai' <'KUY ' 'PAL ' 'THA ' 'dflt' > ) ]
Lookup: 6 0 0 "'ccmp' Glyph Composition/Decomposition in Thai lookup 1"  {"'ccmp' Glyph Composition/Decomposition in Thai lookup 1"  } ['ccmp' ('thai' <'KUY ' 'PAL ' 'THA ' 'dflt' > ) ]
Lookup: 4 0 1 "'liga' Standard Ligatures in Latin lookup 2"  {"'liga' Standard Ligatures in Latin lookup 2"  } ['liga' ('latn' <'dflt' > ) ]
Lookup: 4 0 0 "'frac' Diagonal Fractions in Thai lookup 3"  {"'frac' Diagonal Fractions in Thai lookup 3"  } ['frac' ('thai' <'KUY ' 'PAL ' 'THA ' 'dflt' > ) ]
Lookup: 5 0 0 "Required Feature in Thai lookup 4"  {"Required Feature in Thai lookup 4"  } [' RQD' ('thai' <'PAL ' > ) ]
Lookup: 1 0 0 "Single Substitution lookup 5"  {"Single Substitution lookup 5"  } []
Lookup: 2 0 0 "Multiple Substitution lookup 6"  {"Multiple Substitution lookup 6"  } []

StartChar: .notdef
Encoding: 65536 -1 0
Width: 1229
Flags: W
HStem: -362 114<217 1012> 1329 115<217 1012>
VStem: 102 115<-248 1329> 1012 114<-248 1329>
Fore
102 -362 m 1
 102 1444 l 1
 1126 1444 l 1
 1126 -362 l 1
 102 -362 l 1
217 -248 m 1
 1012 -248 l 1
 1012 1329 l 1
 217 1329 l 1
 217 -248 l 1
EndSplineSet
EndChar
StartChar: uni0E4D.high
Encoding: 63262 63262 2
Width: 0
Flags: W
HStem: 1750 152<-348.867 -187.743> 2094 152<-346.767 -189.694>
VStem: -515 151<1918.03 2075.69> -172 152<1918.89 2078.07>
AnchorPoint: "AboveMark" -262 1700 mark 0
Fore
-515 1998 m 0
 -515 2174 -360 2246 -268 2246 c 0
 -125 2246 -20 2133 -20 1998 c 0
 -20 1854 -134 1750 -267 1750 c 0
 -408 1750 -515 1861 -515 1998 c 0
-268 2094 m 0
 -323 2094 -364 2049 -364 1998 c 0
 -364 1942 -319 1902 -268 1902 c 0
 -212 1902 -172 1946 -172 1998 c 0
 -172 2053 -216 2094 -268 2094 c 0
EndSplineSet
EndChar
StartChar: exclam
Encoding: 33 33 5
Width: 934
Flags: W
HStem: 0 356<287 647>
VStem: 287 360<0 356 869.643 1493>
Fore
287 1493 m 1
 647 1493 l 1
 647 920 l 1
 596 502 l 1
 338 502 l 1
 287 920 l 1
 287 1493 l 1
287 356 m 1
 647 356 l 1
 647 0 l 1
 287 0 l 1
 287 356 l 1
EndSplineSet
EndChar
StartChar: quotedbl
Encoding: 34 34 6
Width: 1067
Flags: W
VStem: 195 237<938 1493> 635 237<938 1493>
Fore
872 1493 m 1
 872 938 l 1
 635 938 l 1
 635 1493 l 1
 872 1493 l 1
432 1493 m 1
 432 938 l 1
 195 938 l 1
 195 1493 l 1
 432 1493 l 1
EndSplineSet
EndChar
StartChar: numbersign
Encoding: 35 35 7
Width: 1716
Flags: W
HStem: 0 21G<322 550.013 809 1035.01> 383 215<139 418 690 905 1178 1462> 872 213<254 537 815 1024 1300 1577> 1450 20G<683.013 911 1170.96 1397>
Fore
911 1470 m 1
 815 1085 l 1
 1079 1085 l 1
 1176 1470 l 1
 1397 1470 l 1
 1300 1085 l 1
 1577 1085 l 1
 1577 872 l 1
 1247 872 l 1
 1178 598 l 1
 1462 598 l 1
 1462 383 l 1
 1126 383 l 1
 1030 0 l 1
 809 0 l 1
 905 383 l 1
 641 383 l 1
 545 0 l 1
 322 0 l 1
 418 383 l 1
 139 383 l 1
 139 598 l 1
 467 598 l 1
 537 872 l 1
 254 872 l 1
 254 1085 l 1
 592 1085 l 1
 688 1470 l 1
 911 1470 l 1
1024 872 m 1
 760 872 l 1
 690 598 l 1
 954 598 l 1
 1024 872 l 1
EndSplineSet
EndChar
StartChar: dollar
Encoding: 36 36 8
Width: 1425
Flags: W
HStem: 0 228<363.045 632>
VStem: 633 162<-301 0 232 510 836 1097 1329 1556>
Fore
1286 397 m 0
 1286 120 1078 18 795 2 c 1
 795 -301 l 1
 633 -301 l 1
 632 0 l 1
 502 5 339 26 162 92 c 1
 162 354 l 1
 332 267 490 233 633 228 c 1
 633 539 l 1
 600 545 l 2
 298 598 160 701 160 936 c 0
 160 1197 358 1314 632 1325 c 1
 633 1556 l 1
 795 1556 l 1
 795 1329 l 1
 937 1318 1069 1294 1196 1260 c 1
 1196 1006 l 1
 1093 1049 957 1092 795 1100 c 1
 795 813 l 1
 827 807 l 2
 1114 762 1286 673 1286 397 c 0
633 1097 m 1
 543 1092 477 1047 477 971 c 0
 477 917 501 851 633 836 c 1
 633 1097 l 1
795 232 m 1
 897 233 969 267 969 365 c 0
 969 472 895 499 795 510 c 1
 795 232 l 1
EndSplineSet
EndChar
StartChar: percent
Encoding: 37 37 9
Width: 2052
Flags: W
HStem: -29 170<1489.56 1684.25> 616 168<1489.4 1678.86> 707 167<367.456 562.386> 1352 168<368.32 560.924>
VStem: 66 249<933.517 1294.31> 614 250<933.517 1294.31> 1186 252<195.678 560.665> 1735 252<195.678 561.384>
Fore
1735 379 m 0xdf
 1735 504 1698 616 1587 616 c 256
 1527 616 1438 579 1438 379 c 0
 1438 253 1475 141 1587 141 c 256
 1699 141 1735 253 1735 379 c 0xdf
1186 379 m 0
 1186 634 1341 784 1587 784 c 256
 1834 784 1987 634 1987 379 c 256
 1987 123 1834 -29 1587 -29 c 256
 1340 -29 1186 123 1186 379 c 0
670 -29 m 1
 449 -29 l 1
 1382 1520 l 1
 1604 1520 l 1
 670 -29 l 1
66 1114 m 256
 66 1369 218 1520 465 1520 c 256
 712 1520 864 1369 864 1114 c 256
 864 859 712 707 465 707 c 256xbf
 218 707 66 859 66 1114 c 256
614 1114 m 0
 614 1240 576 1352 465 1352 c 0
 353 1352 315 1240 315 1114 c 0
 315 988 353 874 465 874 c 256
 577 874 614 987 614 1114 c 0
EndSplineSet
EndChar
StartChar: ampersand
Encoding: 38 38 10
Width: 1786
Flags: W
HStem: -29 258<600.888 933.206> 1278 242<730.425 1091.84>
VStem: 123 346<358.411 651.813> 1321 311<671.249 895>
Fore
864 1278 m 0
 775 1278 702 1246 702 1165 c 0
 702 1113 745 1050 799 991 c 2
 1208 541 l 1
 1293 653 1316 782 1321 895 c 1
 1632 895 l 1
 1612 648 1537 463 1407 322 c 1
 1700 0 l 1
 1276 0 l 1
 1178 109 l 1
 1096 54 945 -29 711 -29 c 0
 362 -29 123 169 123 467 c 0
 123 658 210 801 428 944 c 1
 386 996 346 1066 346 1161 c 0
 346 1376 524 1520 811 1520 c 0
 954 1520 1091 1493 1206 1462 c 1
 1206 1184 l 1
 1121 1227 1001 1278 864 1278 c 0
469 506 m 0
 469 353 596 229 758 229 c 0
 858 229 933 264 991 311 c 1
 600 743 l 1
 513 680 469 601 469 506 c 0
EndSplineSet
EndChar
StartChar: quotesingle
Encoding: 39 39 11
Width: 627
Flags: W
VStem: 195 237<938 1493>
Fore
432 1493 m 1
 432 938 l 1
 195 938 l 1
 195 1493 l 1
 432 1493 l 1
EndSplineSet
EndChar
StartChar: parenleft
Encoding: 40 40 12
Width: 936
Flags: W
VStem: 176 340<300.784 983.862>
Fore
516 643 m 256
 516 278 646 -37 772 -270 c 1
 475 -270 l 1
 329 -34 176 277 176 641 c 256
 176 1006 331 1323 475 1554 c 1
 772 1554 l 1
 648 1324 516 1006 516 643 c 256
EndSplineSet
EndChar
StartChar: parenright
Encoding: 41 41 13
Width: 936
Flags: W
VStem: 420 340<301.011 982.762>
Fore
760 641 m 256
 760 277 607 -34 461 -270 c 1
 164 -270 l 1
 288 -39 420 280 420 643 c 256
 420 1003 290 1320 164 1554 c 1
 461 1554 l 1
 605 1323 760 1006 760 641 c 256
EndSplineSet
EndChar
StartChar: asterisk
Encoding: 42 42 14
Width: 1071
Flags: W
VStem: 451 170<569 913 1176 1520>
Fore
1030 1217 m 1
 700 1044 l 1
 1030 870 l 1
 954 729 l 1
 621 913 l 1
 621 569 l 1
 451 569 l 1
 451 913 l 1
 117 729 l 1
 41 870 l 1
 375 1044 l 1
 41 1217 l 1
 117 1358 l 1
 451 1176 l 1
 451 1520 l 1
 621 1520 l 1
 621 1176 l 1
 954 1358 l 1
 1030 1217 l 1
EndSplineSet
EndChar
StartChar: plus
Encoding: 43 43 15
Width: 1716
Flags: W
HStem: 0 21G<739 977> 524 236<217 739 977 1499>
VStem: 739 238<0 524 760 1284>
Fore
977 1284 m 1
 977 760 l 1
 1499 760 l 1
 1499 524 l 1
 977 524 l 1
 977 0 l 1
 739 0 l 1
 739 524 l 1
 217 524 l 1
 217 760 l 1
 739 760 l 1
 739 1284 l 1
 977 1284 l 1
EndSplineSet
EndChar
StartChar: comma
Encoding: 44 44 16
Width: 778
Flags: W
VStem: 209 360<82 387>
Fore
209 387 m 1
 569 387 l 1
 569 82 l 1
 322 -291 l 1
 109 -291 l 1
 209 82 l 1
 209 387 l 1
EndSplineSet
EndChar
StartChar: hyphen
Encoding: 45 45 17
Width: 850
Flags: W
HStem: 444 291<111 739>
Fore
111 735 m 1
 739 735 l 1
 739 444 l 1
 111 444 l 1
 111 735 l 1
EndSplineSet
EndChar
StartChar: period
Encoding: 46 46 18
Width: 778
Flags: W
HStem: 0 387<209 569>
VStem: 209 360<0 387>
Fore
209 387 m 1
 569 387 l 1
 569 0 l 1
 209 0 l 1
 209 387 l 1
EndSplineSet
EndChar
StartChar: slash
Encoding: 47 47 19
Width: 748
Flags: W
VStem: 0 748<-190 1493>
Fore
526 1493 m 1
 748 1493 l 1
 221 -190 l 1
 0 -190 l 1
 526 1493 l 1
EndSplineSet
EndChar
StartChar: zero
Encoding: 48 48 20
Width: 1425
Flags: W
HStem: -29 262<594.271 831.403> 1257 263<594.04 831.403>
VStem: 98 385<407.203 1084.04> 942 385<407.84 1079.67>
Fore
713 233 m 0
 896 233 942 419 942 748 c 0
 942 1076 896 1257 713 1257 c 256
 529 1257 483 1075 483 748 c 0
 483 418 529 233 713 233 c 0
713 1520 m 0
 1136 1520 1327 1204 1327 745 c 0
 1327 288 1136 -29 713 -29 c 0
 290 -29 98 286 98 745 c 0
 98 1204 288 1520 713 1520 c 0
EndSplineSet
EndChar
StartChar: one
Encoding: 49 49 21
Width: 1425
Flags: W
HStem: 0 266<240 580 944 1284>
VStem: 580 364<266 1231>
Fore
240 266 m 1
 580 266 l 1
 580 1231 l 1
 231 1159 l 1
 231 1421 l 1
 578 1493 l 1
 944 1493 l 1
 944 266 l 1
 1284 266 l 1
 1284 0 l 1
 240 0 l 1
 240 266 l 1
EndSplineSet
EndChar
StartChar: two
Encoding: 50 50 22
Width: 1425
Flags: W
HStem: 0 283<590 1247> 1257 263<380.865 750.383>
VStem: 850 387<883.179 1159.04>
Fore
672 1520 m 0
 1003 1520 1237 1377 1237 1073 c 0
 1237 869 1110 739 909 563 c 2
 590 283 l 1
 1247 283 l 1
 1247 0 l 1
 162 0 l 1
 162 283 l 1
 707 764 l 2
 788 837 850 920 850 1024 c 0
 850 1164 750 1257 592 1257 c 0
 425 1257 250 1156 166 1104 c 1
 166 1432 l 1
 308 1479 484 1520 672 1520 c 0
EndSplineSet
EndChar
StartChar: three
Encoding: 51 51 23
Width: 1425
Flags: W
HStem: -29 262<380.307 778.732> 645 248<393 765.525> 1257 263<411.352 764.455>
Fore
1227 1137 m 0
 1227 946 1117 846 954 805 c 1
 1123 761 1262 653 1262 424 c 0
 1262 87 968 -29 596 -29 c 0
 470 -29 312 -12 137 45 c 1
 137 342 l 1
 242 289 391 233 561 233 c 0
 732 233 877 285 877 438 c 0
 877 521 836 645 547 645 c 2
 393 645 l 1
 393 893 l 1
 555 893 l 2
 768 893 842 967 842 1077 c 0
 842 1207 724 1257 578 1257 c 0
 427 1257 296 1216 201 1174 c 1
 201 1456 l 1
 373 1504 524 1520 647 1520 c 0
 1073 1520 1227 1367 1227 1137 c 0
EndSplineSet
EndChar
StartChar: four
Encoding: 52 52 24
Width: 1425
Flags: W
HStem: 0 21G<754 1118> 272 279<332 754 1118 1331>
VStem: 754 364<0 272 551 1176>
Fore
754 1176 m 1
 332 551 l 1
 754 551 l 1
 754 1176 l 1
690 1493 m 1
 1118 1493 l 1
 1118 551 l 1
 1331 551 l 1
 1331 272 l 1
 1118 272 l 1
 1118 0 l 1
 754 0 l 1
 754 272 l 1
 92 272 l 1
 92 602 l 1
 690 1493 l 1
EndSplineSet
EndChar
StartChar: five
Encoding: 53 53 25
Width: 1425
Flags: W
HStem: -29 262<363.986 778.096> 741 263<560.676 775.779> 1210 283<524 1174>
VStem: 217 307<979 1210> 897 385<339.308 633.945>
Fore
596 741 m 0
 444 741 297 686 217 653 c 1
 217 1493 l 1
 1174 1493 l 1
 1174 1210 l 1
 524 1210 l 1
 524 979 l 1
 594 998 651 1004 705 1004 c 0
 1060 1004 1282 823 1282 487 c 0
 1282 145 1029 -29 657 -29 c 0
 466 -29 300 12 158 70 c 1
 158 373 l 1
 254 318 422 233 596 233 c 0
 775 233 897 323 897 487 c 0
 897 652 775 741 596 741 c 0
EndSplineSet
EndChar
StartChar: six
Encoding: 54 54 26
Width: 1425
Flags: W
HStem: -29 242<608.64 868.084> 737 248<610.862 868.023> 1266 252<679.692 1110.75>
VStem: 127 412<397.004 879.05> 944 371<290.589 662.517>
Fore
944 475 m 256
 944 667 863 737 741 737 c 0
 594 737 539 632 539 475 c 256
 539 283 620 213 741 213 c 0
 889 213 944 317 944 475 c 256
825 1518 m 0
 974 1518 1099 1494 1217 1454 c 1
 1217 1178 l 1
 1131 1219 1011 1266 874 1266 c 0
 631 1266 514 1123 494 887 c 1
 593 960 700 985 805 985 c 0
 1115 985 1315 789 1315 500 c 0
 1315 174 1086 -29 737 -29 c 0
 322 -29 127 275 127 725 c 0
 127 1205 376 1518 825 1518 c 0
EndSplineSet
EndChar
StartChar: seven
Encoding: 55 55 27
Width: 1425
Flags: W
HStem: 0 21G<305 689.122> 1210 283<137 856>
Fore
137 1493 m 1
 1262 1493 l 1
 1262 1276 l 1
 680 0 l 1
 305 0 l 1
 856 1210 l 1
 137 1210 l 1
 137 1493 l 1
EndSplineSet
EndChar
StartChar: eight
Encoding: 56 56 28
Width: 1425
Flags: W
HStem: -29 242<567.37 860.499> 668 241<574.501 846.207> 1278 242<581.315 844.641>
VStem: 125 364<290.405 592.844> 158 364<964.839 1221.2> 901 365<966.245 1220.31> 934 364<288.135 592.858>
Fore
934 440 m 0xf2
 934 587 857 668 713 668 c 0
 569 668 489 588 489 440 c 256
 489 292 569 213 713 213 c 0
 856 213 934 293 934 440 c 0xf2
125 420 m 0
 125 633 254 746 432 795 c 1
 276 842 158 942 158 1133 c 0
 158 1288 232 1520 713 1520 c 0
 1025 1520 1266 1419 1266 1133 c 0xec
 1266 998 1206 860 991 795 c 1
 1169 746 1298 634 1298 420 c 0
 1298 151 1133 -29 713 -29 c 0
 364 -29 125 95 125 420 c 0
713 1278 m 0
 590 1278 522 1212 522 1094 c 0
 522 975 590 909 713 909 c 0
 834 909 901 975 901 1094 c 256
 901 1213 834 1278 713 1278 c 0
EndSplineSet
EndChar
StartChar: nine
Encoding: 57 57 29
Width: 1425
Flags: W
HStem: -29 252<382.853 740.063> 502 250<553.059 811.366> 1276 242<553.769 811.666>
VStem: 106 371<831.149 1197.33> 883 411<764 1088.73>
Fore
594 -29 m 0
 445 -29 321 -6 205 33 c 1
 205 309 l 1
 362 236 470 223 547 223 c 0
 693 223 898 274 928 602 c 1
 872 561 772 502 616 502 c 0
 307 502 106 696 106 987 c 0
 106 1314 333 1518 682 1518 c 0
 1098 1518 1294 1214 1294 764 c 0
 1294 283 1044 -29 594 -29 c 0
477 1014 m 0
 477 823 558 752 680 752 c 256
 802 752 883 823 883 1014 c 0
 883 1171 827 1276 680 1276 c 256
 558 1276 477 1203 477 1014 c 0
EndSplineSet
EndChar
StartChar: colon
Encoding: 58 58 30
Width: 819
Flags: W
HStem: 0 387<229 590> 733 387<229 590>
VStem: 229 361<0 387 733 1120>
Fore
229 1120 m 1
 590 1120 l 1
 590 733 l 1
 229 733 l 1
 229 1120 l 1
229 387 m 1
 590 387 l 1
 590 0 l 1
 229 0 l 1
 229 387 l 1
EndSplineSet
EndChar
StartChar: semicolon
Encoding: 59 59 31
Width: 819
Flags: W
HStem: 733 387<229 590>
VStem: 229 361<82 387 733 1120>
Fore
229 387 m 1
 590 387 l 1
 590 82 l 1
 342 -291 l 1
 129 -291 l 1
 229 82 l 1
 229 387 l 1
229 1120 m 1
 590 1120 l 1
 590 733 l 1
 229 733 l 1
 229 1120 l 1
EndSplineSet
EndChar
StartChar: less
Encoding: 60 60 32
Width: 1716
Flags: W
HStem: 1203 20G<1443.62 1499>
Fore
1499 973 m 1
 535 641 l 1
 1499 311 l 1
 1499 61 l 1
 217 524 l 1
 217 760 l 1
 1499 1223 l 1
 1499 973 l 1
EndSplineSet
EndChar
StartChar: equal
Encoding: 61 61 33
Width: 1716
Flags: W
HStem: 295 237<217 1499> 752 235<217 1499>
Fore
217 987 m 1
 1499 987 l 1
 1499 752 l 1
 217 752 l 1
 217 987 l 1
217 532 m 1
 1499 532 l 1
 1499 295 l 1
 217 295 l 1
 217 532 l 1
EndSplineSet
EndChar
StartChar: greater
Encoding: 62 62 34
Width: 1716
Flags: W
HStem: 1203 20G<217 272.378>
Fore
217 973 m 1
 217 1223 l 1
 1499 760 l 1
 1499 524 l 1
 217 61 l 1
 217 311 l 1
 1182 641 l 1
 217 973 l 1
EndSplineSet
EndChar
StartChar: question
Encoding: 63 63 35
Width: 1188
Flags: W
HStem: 0 356<348 709> 1257 263<311.449 650.538>
VStem: 348 361<0 356 504 663.658>
Fore
555 1520 m 0
 852 1520 1055 1407 1055 1130 c 0
 1055 993 1002 900 883 788 c 2
 819 731 l 2
 747 665 709 622 709 549 c 2
 709 504 l 1
 348 504 l 1
 348 553 l 2
 348 682 405 753 520 860 c 2
 584 918 l 2
 639 968 694 1032 694 1108 c 0
 694 1207 620 1257 512 1257 c 0
 366 1257 219 1174 141 1124 c 1
 141 1438 l 1
 249 1475 397 1520 555 1520 c 0
348 356 m 1
 709 356 l 1
 709 0 l 1
 348 0 l 1
 348 356 l 1
EndSplineSet
EndChar
StartChar: at
Encoding: 64 64 36
Width: 2048
Flags: W
HStem: -356 188<791.313 1281.54> 88 186<911.017 1144.63> 801 186<906.003 1144.16> 1253 187<794.613 1306.02>
VStem: 135 187<298.47 782.096> 602 229<360.026 717.804> 1221 229<360.167 716.473> 1241 209<836 967> 1716 187<438.661 869.562>
Fore
1024 801 m 0xfe80
 895 801 831 686 831 539 c 0
 831 391 894 274 1026 274 c 0
 1157 274 1221 391 1221 539 c 0
 1221 687 1156 801 1024 801 c 0xfe80
1903 655 m 0
 1903 285 1669 84 1280 84 c 2
 1241 84 l 1
 1241 238 l 1
 1203 148 1115 88 989 88 c 0
 757 88 602 270 602 537 c 256
 602 803 757 987 989 987 c 0
 1115 987 1203 925 1241 836 c 1
 1241 967 l 1
 1450 967 l 1
 1450 274 l 1xfd80
 1619 300 1716 444 1716 651 c 0
 1716 1012 1407 1253 1053 1253 c 0
 615 1253 322 926 322 543 c 0
 322 136 632 -168 1036 -168 c 0
 1218 -168 1394 -92 1503 6 c 1
 1610 -156 l 1
 1465 -268 1267 -356 1038 -356 c 0
 554 -356 135 4 135 543 c 0
 135 1079 569 1440 1038 1440 c 0
 1545 1440 1903 1088 1903 655 c 0
EndSplineSet
EndChar
StartChar: A
Encoding: 65 65 37
Width: 1585
Flags: W
HStem: 0 21G<10 403.985 1181.09 1575> 272 277<588 997>
Fore
1094 272 m 1
 492 272 l 1
 397 0 l 1
 10 0 l 1
 563 1493 l 1
 1022 1493 l 1
 1575 0 l 1
 1188 0 l 1
 1094 272 l 1
588 549 m 1
 997 549 l 1
 793 1143 l 1
 588 549 l 1
EndSplineSet
EndChar
StartChar: B
Encoding: 66 66 38
Width: 1561
Flags: W
HStem: 0 262<573 960.37> 653 262<573 927.432> 1231 262<573 925.432>
VStem: 188 385<262 653 915 1231> 1032 385<326.075 590.818>
Fore
971 1073 m 0
 971 1132 950 1231 786 1231 c 2
 573 1231 l 1
 573 915 l 1
 786 915 l 2
 901 915 971 963 971 1073 c 0
1032 459 m 0
 1032 575 970 653 799 653 c 2
 573 653 l 1
 573 262 l 1
 799 262 l 2
 919 262 1032 301 1032 459 c 0
1356 1098 m 0
 1356 942 1277 845 1157 799 c 1
 1314 753 1417 625 1417 428 c 0
 1417 171 1264 -0 827 0 c 2
 188 0 l 1
 188 1493 l 1
 766 1493 l 2
 1233 1493 1356 1335 1356 1098 c 0
EndSplineSet
EndChar
StartChar: C
Encoding: 67 67 39
Width: 1503
Flags: W
HStem: -29 279<733.053 1191.49> 1241 279<732.91 1189.52>
VStem: 102 398<511.364 979.178>
Fore
942 250 m 0
 1126 250 1261 315 1372 391 c 1
 1372 82 l 1
 1247 17 1095 -29 911 -29 c 0
 411 -29 102 267 102 745 c 0
 102 1224 410 1520 911 1520 c 0
 1049 1520 1209 1494 1372 1409 c 1
 1372 1100 l 1
 1248 1184 1114 1241 942 1241 c 0
 659 1241 500 1047 500 745 c 0
 500 444 659 250 942 250 c 0
EndSplineSet
EndChar
StartChar: D
Encoding: 68 68 40
Width: 1700
Flags: W
HStem: 0 291<573 950.353> 1202 291<573 951.996>
VStem: 188 385<291 1202> 1196 397<530.929 973.071>
Fore
1196 748 m 0
 1196 1050 1022 1202 711 1202 c 2
 573 1202 l 1
 573 291 l 1
 711 291 l 2
 1021 291 1196 446 1196 748 c 0
188 1493 m 1
 594 1493 l 2
 953 1493 1195 1466 1386 1280 c 0
 1535 1136 1593 954 1593 748 c 0
 1593 328 1345 120 1098 48 c 0
 986 16 818 0 594 0 c 2
 188 0 l 1
 188 1493 l 1
EndSplineSet
EndChar
StartChar: E
Encoding: 69 69 41
Width: 1399
Flags: W
HStem: 0 291<573 1249> 633 291<573 1188> 1202 291<573 1227>
VStem: 188 385<291 633 924 1202>
Fore
188 1493 m 1
 1227 1493 l 1
 1227 1202 l 1
 573 1202 l 1
 573 924 l 1
 1188 924 l 1
 1188 633 l 1
 573 633 l 1
 573 291 l 1
 1249 291 l 1
 1249 0 l 1
 188 0 l 1
 188 1493 l 1
EndSplineSet
EndChar
StartChar: F
Encoding: 70 70 42
Width: 1399
Flags: W
HStem: 0 21G<188 573> 633 291<573 1188> 1202 291<573 1227>
VStem: 188 385<0 633 924 1202>
Fore
188 1493 m 1
 1227 1493 l 1
 1227 1202 l 1
 573 1202 l 1
 573 924 l 1
 1188 924 l 1
 1188 633 l 1
 573 633 l 1
 573 0 l 1
 188 0 l 1
 188 1493 l 1
EndSplineSet
EndChar
StartChar: G
Encoding: 71 71 43
Width: 1681
Flags: W
HStem: -29 279<747.648 1111.6> 571 258<930 1165> 1241 279<750.503 1256.79>
VStem: 102 398<499.359 984.292> 1165 365<281 571>
Fore
961 250 m 0
 1039 250 1109 259 1165 281 c 1
 1165 571 l 1
 930 571 l 1
 930 829 l 1
 1530 829 l 1
 1530 111 l 1
 1363 30 1159 -29 911 -29 c 0
 411 -29 102 267 102 745 c 0
 102 1233 419 1520 932 1520 c 0
 1143 1520 1324 1478 1475 1409 c 1
 1475 1100 l 1
 1347 1173 1179 1241 979 1241 c 0
 670 1241 500 1063 500 745 c 0
 500 433 661 250 961 250 c 0
EndSplineSet
EndChar
StartChar: H
Encoding: 72 72 44
Width: 1714
Flags: W
HStem: 0 21G<188 573 1141 1526> 633 291<573 1141>
VStem: 188 385<0 633 924 1493> 1141 385<0 633 924 1493>
Fore
188 1493 m 1
 573 1493 l 1
 573 924 l 1
 1141 924 l 1
 1141 1493 l 1
 1526 1493 l 1
 1526 0 l 1
 1141 0 l 1
 1141 633 l 1
 573 633 l 1
 573 0 l 1
 188 0 l 1
 188 1493 l 1
EndSplineSet
EndChar
StartChar: I
Encoding: 73 73 45
Width: 762
Flags: W
HStem: 0 21G<188 573>
VStem: 188 385<0 1493>
Fore
188 1493 m 1
 573 1493 l 1
 573 0 l 1
 188 0 l 1
 188 1493 l 1
EndSplineSet
EndChar
StartChar: J
Encoding: 74 74 46
Width: 762
Flags: HW
HStem: -410 291<-115 101>
VStem: 188 385<15 1493>
Fore
-55 -119 m 2
 67 -119 188 -66 188 145 c 2
 188 1493 l 1
 573 1493 l 1
 573 145 l 2
 573 -240 357 -410 -37 -410 c 2
 -115 -410 l 1
 -115 -119 l 1
 -55 -119 l 2
EndSplineSet
EndChar
StartChar: K
Encoding: 75 75 47
Width: 1587
Flags: W
HStem: 0 21G<188 573 1146.8 1649>
VStem: 188 385<0 588 948 1493>
Fore
188 1493 m 1
 573 1493 l 1
 573 948 l 1
 1128 1493 l 1
 1575 1493 l 1
 856 786 l 1
 1649 0 l 1
 1167 0 l 1
 573 588 l 1
 573 0 l 1
 188 0 l 1
 188 1493 l 1
EndSplineSet
EndChar
StartChar: L
Encoding: 76 76 48
Width: 1305
Flags: W
HStem: 0 291<573 1249>
VStem: 188 385<291 1493>
Fore
188 1493 m 1
 573 1493 l 1
 573 291 l 1
 1249 291 l 1
 1249 0 l 1
 188 0 l 1
 188 1493 l 1
EndSplineSet
EndChar
StartChar: M
Encoding: 77 77 49
Width: 2038
Flags: W
HStem: 0 21G<188 553 1485 1849>
VStem: 188 365<0 1092> 1485 364<0 1092>
Fore
188 1493 m 1
 678 1493 l 1
 1018 694 l 1
 1360 1493 l 1
 1849 1493 l 1
 1849 0 l 1
 1485 0 l 1
 1485 1092 l 1
 1141 287 l 1
 897 287 l 1
 553 1092 l 1
 553 0 l 1
 188 0 l 1
 188 1493 l 1
EndSplineSet
EndChar
StartChar: N
Encoding: 78 78 50
Width: 1714
Flags: W
HStem: 0 21G<188 553 1085.39 1526>
VStem: 188 365<0 1024> 1161 365<469 1493>
Fore
188 1493 m 1
 618 1493 l 1
 1161 469 l 1
 1161 1493 l 1
 1526 1493 l 1
 1526 0 l 1
 1096 0 l 1
 553 1024 l 1
 553 0 l 1
 188 0 l 1
 188 1493 l 1
EndSplineSet
EndChar
StartChar: O
Encoding: 79 79 51
Width: 1741
Flags: W
HStem: -29 279<697.504 1042.94> 1241 279<697.504 1042.94>
VStem: 102 398<482.559 1008.04> 1241 397<482.559 1007.82>
Fore
1241 745 m 0
 1241 1029 1129 1241 870 1241 c 0
 612 1241 500 1030 500 745 c 0
 500 461 612 250 870 250 c 0
 1129 250 1241 461 1241 745 c 0
102 745 m 0
 102 1236 394 1520 870 1520 c 0
 1347 1520 1638 1236 1638 745 c 0
 1638 255 1347 -29 870 -29 c 0
 394 -29 102 255 102 745 c 0
EndSplineSet
EndChar
StartChar: P
Encoding: 80 80 52
Width: 1501
Flags: W
HStem: 0 21G<188 573> 518 279<573 939.548> 1214 279<573 939.548>
VStem: 188 385<0 518 797 1214> 1020 397<871.715 1140.07>
Fore
1417 1006 m 0
 1417 673 1184 518 827 518 c 2
 573 518 l 1
 573 0 l 1
 188 0 l 1
 188 1493 l 1
 827 1493 l 2
 1184 1493 1417 1339 1417 1006 c 0
1020 1006 m 256
 1020 1144 931 1214 786 1214 c 2
 573 1214 l 1
 573 797 l 1
 786 797 l 2
 931 797 1020 868 1020 1006 c 256
EndSplineSet
EndChar
StartChar: Q
Encoding: 81 81 53
Width: 1741
Flags: W
HStem: -27 277<704.834 911> 1241 279<697.504 1043.66>
VStem: 102 398<473.634 1008.04> 1241 397<479.815 1008.56>
Fore
1638 745 m 0
 1638 388 1474 152 1221 37 c 1
 1522 -299 l 1
 1155 -299 l 1
 911 -27 l 1
 881 -27 l 2
 384 -27 102 261 102 745 c 0
 102 1236 394 1520 870 1520 c 0
 1352 1520 1638 1240 1638 745 c 0
1241 745 m 0
 1241 1029 1129 1241 870 1241 c 0
 612 1241 500 1030 500 745 c 0
 500 458 605 250 870 250 c 0
 1129 250 1241 461 1241 745 c 0
EndSplineSet
EndChar
StartChar: R
Encoding: 82 82 54
Width: 1577
Flags: W
HStem: 0 21G<188 573 1116.19 1536> 565 266<573 836.2> 1214 279<573 891.955>
VStem: 188 385<0 565 831 1214> 961 385<885.863 1160.45>
Fore
961 1024 m 0
 961 1170 882 1214 735 1214 c 2
 573 1214 l 1
 573 831 l 1
 735 831 l 2
 907 831 961 897 961 1024 c 0
1346 1081 m 0
 1346 851 1216 747 1059 698 c 1
 1185 669 1260 558 1327 424 c 2
 1536 0 l 1
 1126 0 l 1
 944 371 l 2
 879 504 819 565 682 565 c 2
 573 565 l 1
 573 0 l 1
 188 0 l 1
 188 1493 l 1
 776 1493 l 2
 1217 1493 1346 1328 1346 1081 c 0
EndSplineSet
EndChar
StartChar: S
Encoding: 83 83 55
Width: 1475
Flags: W
HStem: -29 279<421.321 885.236> 1241 279<554.88 954.916>
Fore
705 1520 m 0
 914 1520 1101 1480 1227 1446 c 1
 1227 1130 l 1
 1015 1225 856 1241 766 1241 c 0
 562 1241 496 1179 496 1085 c 0
 496 998 562 963 702 934 c 2
 866 901 l 2
 1175 839 1325 724 1325 459 c 0
 1325 106 1102 -29 731 -29 c 0
 567 -29 375 -2 160 78 c 1
 160 403 l 1
 291 334 484 250 694 250 c 0
 916 250 954 347 954 412 c 0
 954 517 883 554 727 588 c 2
 578 621 l 2
 312 678 147 795 147 1057 c 0
 147 1373 366 1520 705 1520 c 0
EndSplineSet
EndChar
StartChar: T
Encoding: 84 84 56
Width: 1397
Flags: W
HStem: 0 21G<506 891> 1202 291<10 506 891 1386>
VStem: 506 385<0 1202>
Fore
10 1493 m 1
 1386 1493 l 1
 1386 1202 l 1
 891 1202 l 1
 891 0 l 1
 506 0 l 1
 506 1202 l 1
 10 1202 l 1
 10 1493 l 1
EndSplineSet
EndChar
StartChar: U
Encoding: 85 85 57
Width: 1663
Flags: W
HStem: -29 283<676.748 987.552>
VStem: 188 385<365.668 1493> 1090 385<365.668 1493>
Fore
831 -29 m 0
 403 -29 188 171 188 598 c 2
 188 1493 l 1
 573 1493 l 1
 573 598 l 2
 573 374 634 254 831 254 c 0
 1037 254 1090 385 1090 598 c 2
 1090 1493 l 1
 1475 1493 l 1
 1475 598 l 2
 1475 171 1260 -29 831 -29 c 0
EndSplineSet
EndChar
StartChar: V
Encoding: 86 86 58
Width: 1585
Flags: W
HStem: 0 21G<555.592 1029.41>
Fore
10 1493 m 1
 397 1493 l 1
 793 391 l 1
 1188 1493 l 1
 1575 1493 l 1
 1022 0 l 1
 563 0 l 1
 10 1493 l 1
EndSplineSet
EndChar
StartChar: W
Encoding: 87 87 59
Width: 2259
Flags: W
HStem: 0 21G<411.244 864.722 1394.22 1847.72>
Fore
61 1493 m 1
 430 1493 l 1
 688 408 l 1
 944 1493 l 1
 1315 1493 l 1
 1571 408 l 1
 1829 1493 l 1
 2195 1493 l 1
 1843 0 l 1
 1399 0 l 1
 1128 1135 l 1
 860 0 l 1
 416 0 l 1
 61 1493 l 1
EndSplineSet
EndChar
StartChar: X
Encoding: 88 88 60
Width: 1579
Flags: W
HStem: 0 21G<39 455.569 1123.31 1538>
Fore
1020 762 m 1
 1538 0 l 1
 1137 0 l 1
 788 510 l 1
 442 0 l 1
 39 0 l 1
 557 762 l 1
 59 1493 l 1
 461 1493 l 1
 788 1012 l 1
 1114 1493 l 1
 1518 1493 l 1
 1020 762 l 1
EndSplineSet
EndChar
StartChar: Y
Encoding: 89 89 61
Width: 1483
Flags: W
HStem: 0 21G<549 934>
VStem: 549 385<0 629>
Fore
-20 1493 m 1
 401 1493 l 1
 741 961 l 1
 1081 1493 l 1
 1503 1493 l 1
 934 629 l 1
 934 0 l 1
 549 0 l 1
 549 629 l 1
 -20 1493 l 1
EndSplineSet
EndChar
StartChar: Z
Encoding: 90 90 62
Width: 1485
Flags: W
HStem: 0 291<569 1393> 1202 291<115 893>
Fore
115 1493 m 1
 1370 1493 l 1
 1370 1260 l 1
 569 291 l 1
 1393 291 l 1
 1393 0 l 1
 92 0 l 1
 92 233 l 1
 893 1202 l 1
 115 1202 l 1
 115 1493 l 1
EndSplineSet
EndChar
StartChar: bracketleft
Encoding: 91 91 63
Width: 936
Flags: W
HStem: -270 225<516 797> 1331 225<516 797>
VStem: 176 340<-45 1331>
Fore
176 1556 m 1
 797 1556 l 1
 797 1331 l 1
 516 1331 l 1
 516 -45 l 1
 797 -45 l 1
 797 -270 l 1
 176 -270 l 1
 176 1556 l 1
EndSplineSet
EndChar
StartChar: backslash
Encoding: 92 92 64
Width: 748
Flags: W
VStem: 0 748<-190 1493>
Fore
526 -190 m 1
 0 1493 l 1
 221 1493 l 1
 748 -190 l 1
 526 -190 l 1
EndSplineSet
EndChar
StartChar: bracketright
Encoding: 93 93 65
Width: 936
Flags: W
HStem: -270 225<139 420> 1331 225<139 420>
VStem: 420 340<-45 1331>
Fore
760 -270 m 1
 139 -270 l 1
 139 -45 l 1
 420 -45 l 1
 420 1331 l 1
 139 1331 l 1
 139 1556 l 1
 760 1556 l 1
 760 -270 l 1
EndSplineSet
EndChar
StartChar: asciicircum
Encoding: 94 94 66
Width: 1716
Flags: W
HStem: 936 557<981 1509>
Fore
981 1493 m 1
 1509 936 l 1
 1268 936 l 1
 858 1237 l 1
 449 936 l 1
 207 936 l 1
 735 1493 l 1
 981 1493 l 1
EndSplineSet
EndChar
StartChar: underscore
Encoding: 95 95 67
Width: 1024
Flags: W
HStem: -483 190<0 1024>
Fore
1024 -293 m 1
 1024 -483 l 1
 0 -483 l 1
 0 -293 l 1
 1024 -293 l 1
EndSplineSet
EndChar
StartChar: grave
Encoding: 96 96 68
Width: 1024
Flags: W
HStem: 1262 376<377 659>
VStem: 94 565<1262 1638>
Fore
377 1638 m 1
 659 1262 l 1
 463 1262 l 1
 94 1638 l 1
 377 1638 l 1
EndSplineSet
EndChar
StartChar: a
Encoding: 97 97 69
Width: 1382
Flags: W
HStem: -29 238<362 693.816> 504 213<500.863 860> 909 238<397.406 797.83>
VStem: 860 361<0 166 312.603 504 717 852.296>
Fore
621 209 m 0
 756 209 860 315 860 463 c 2
 860 504 l 1
 674 504 l 2
 549 504 449 468 449 354 c 0
 449 259 518 209 621 209 c 0
649 1147 m 0
 1028 1147 1221 1016 1221 639 c 2
 1221 0 l 1
 860 0 l 1
 860 166 l 1
 778 50 674 -29 479 -29 c 0
 245 -29 88 118 88 336 c 0
 88 565 217 717 649 717 c 2
 860 717 l 1
 860 745 l 2
 860 843 797 909 584 909 c 0
 423 909 294 875 186 817 c 1
 186 1090 l 1
 366 1134 522 1147 649 1147 c 0
EndSplineSet
EndChar
StartChar: b
Encoding: 98 98 70
Width: 1466
Flags: W
HStem: -29 260<701.673 1043.77> 887 260<701.304 1044.49>
VStem: 172 358<0 162 341.97 776.437 956 1556> 1004 370<345.535 772.061>
Fore
530 559 m 256
 530 372 597 231 768 231 c 256
 939 231 1004 370 1004 559 c 256
 1004 747 940 887 768 887 c 256
 597 887 530 747 530 559 c 256
901 -29 m 0
 720 -29 612 54 530 162 c 1
 530 0 l 1
 172 0 l 1
 172 1556 l 1
 530 1556 l 1
 530 956 l 1
 611 1063 719 1147 901 1147 c 0
 1185 1147 1374 900 1374 559 c 256
 1374 217 1184 -29 901 -29 c 0
EndSplineSet
EndChar
StartChar: c
Encoding: 99 99 71
Width: 1214
Flags: W
HStem: -29 256<604.808 985.333> 891 256<604.808 981.406>
VStem: 88 373<373.953 744.047>
Fore
733 1147 m 0
 871 1147 988 1117 1077 1085 c 1
 1077 793 l 1
 1001 845 904 891 778 891 c 0
 576 891 461 768 461 559 c 256
 461 350 576 227 778 227 c 0
 875 227 982 254 1077 326 c 1
 1077 33 l 1
 988 0 871 -29 733 -29 c 0
 335 -29 88 181 88 559 c 256
 88 937 335 1147 733 1147 c 0
EndSplineSet
EndChar
StartChar: d
Encoding: 100 100 72
Width: 1466
Flags: W
HStem: -29 260<422.19 764.766> 887 260<422.579 764.138>
VStem: 92 371<347.222 772.261> 934 360<0 162 341.157 776.437 956 1556>
Fore
565 1147 m 0
 745 1147 854 1062 934 956 c 1
 934 1556 l 1
 1294 1556 l 1
 1294 0 l 1
 934 0 l 1
 934 162 l 1
 855 56 748 -29 565 -29 c 0
 281 -29 92 218 92 559 c 256
 92 901 282 1147 565 1147 c 0
463 559 m 256
 463 277 604 231 698 231 c 0
 869 231 934 370 934 559 c 256
 934 747 870 887 698 887 c 0
 528 887 463 747 463 559 c 256
EndSplineSet
EndChar
StartChar: e
Encoding: 101 101 73
Width: 1389
Flags: W
HStem: -29 238<570.324 1026.56> 461 221<457 922> 909 238<555.199 838.978>
Fore
709 1147 m 0
 1057 1147 1290 925 1290 563 c 2
 1290 461 l 1
 453 461 l 1
 464 356 515 209 762 209 c 0
 952 209 1121 281 1237 344 c 1
 1237 68 l 1
 1106 19 932 -29 729 -29 c 0
 330 -29 88 178 88 559 c 0
 88 928 323 1147 709 1147 c 0
922 682 m 1
 922 819 836 909 707 909 c 0
 560 909 477 820 457 682 c 1
 922 682 l 1
EndSplineSet
EndChar
StartChar: f
Encoding: 102 102 74
Width: 891
Flags: W
HStem: 0 21G<217 575> 864 256<39 217 575 881> 1321 235<598.349 635 635 909>
VStem: 217 358<0 864 1120 1297.63>
Fore
217 1198 m 2
 217 1456 369 1556 635 1556 c 2
 909 1556 l 1
 909 1321 l 1
 711 1321 l 2
 609 1321 575 1287 575 1198 c 2
 575 1120 l 1
 881 1120 l 1
 881 864 l 1
 575 864 l 1
 575 0 l 1
 217 0 l 1
 217 864 l 1
 39 864 l 1
 39 1120 l 1
 217 1120 l 1
 217 1198 l 2
EndSplineSet
EndChar
StartChar: g
Encoding: 103 103 75
Width: 1466
Flags: W
HStem: -442 237<430.418 799.508> 0 260<419.88 766.359> 887 258<421.197 766.521>
VStem: 92 371<369.416 775.199> 934 360<-80.0693 190 370.525 775.882 954 1120>
Fore
594 -205 m 0
 820 -205 934 -112 934 113 c 2
 934 190 l 1
 853 83 747 -0 565 0 c 0
 281 0 92 247 92 573 c 0
 92 901 281 1145 565 1145 c 0
 747 1145 854 1061 934 954 c 1
 934 1120 l 1
 1294 1120 l 1
 1294 113 l 2
 1294 -269 1036 -442 629 -442 c 0
 509 -442 381 -428 229 -377 c 1
 229 -98 l 1
 317 -149 441 -205 594 -205 c 0
934 573 m 0
 934 754 862 887 698 887 c 0
 535 887 463 754 463 573 c 0
 463 301 604 260 698 260 c 0
 862 260 934 392 934 573 c 0
EndSplineSet
EndChar
StartChar: h
Encoding: 104 104 76
Width: 1458
Flags: W
HStem: 0 21G<172 530 938 1298> 877 270<705.917 1039>
VStem: 172 358<0 760.424 956 1556> 938 360<0 819.974>
Fore
903 1147 m 0
 1175 1147 1298 969 1298 682 c 2
 1298 0 l 1
 938 0 l 1
 938 520 l 2
 938 740 933 877 770 877 c 0
 605 877 530 736 530 551 c 2
 530 0 l 1
 172 0 l 1
 172 1556 l 1
 530 1556 l 1
 530 956 l 1
 636 1084 754 1147 903 1147 c 0
EndSplineSet
EndChar
StartChar: i
Encoding: 105 105 77
Width: 702
Flags: W
HStem: 0 21G<172 530> 1264 292<172 530>
VStem: 172 358<0 1120 1264 1556>
Fore
172 1120 m 1
 530 1120 l 1
 530 0 l 1
 172 0 l 1
 172 1120 l 1
172 1556 m 1
 530 1556 l 1
 530 1264 l 1
 172 1264 l 1
 172 1556 l 1
EndSplineSet
EndChar
StartChar: j
Encoding: 106 106 78
Width: 702
Flags: W
HStem: -442 235<-68 122.069> 1264 292<172 530>
VStem: 172 358<-164.59 1120 1264 1556>
Fore
-6 -207 m 2
 132 -207 172 -153 172 20 c 2
 172 1120 l 1
 530 1120 l 1
 530 20 l 2
 530 -272 390 -442 109 -442 c 2
 -68 -442 l 1
 -68 -207 l 1
 -6 -207 l 2
172 1556 m 1
 530 1556 l 1
 530 1264 l 1
 172 1264 l 1
 172 1556 l 1
EndSplineSet
EndChar
StartChar: k
Encoding: 107 107 79
Width: 1362
Flags: W
HStem: 0 21G<172 530 948.285 1401>
VStem: 172 358<0 467 709 1556>
Fore
172 1556 m 1
 530 1556 l 1
 530 709 l 1
 942 1120 l 1
 1358 1120 l 1
 811 606 l 1
 1401 0 l 1
 967 0 l 1
 530 467 l 1
 530 0 l 1
 172 0 l 1
 172 1556 l 1
EndSplineSet
EndChar
StartChar: l
Encoding: 108 108 80
Width: 702
Flags: W
HStem: 0 21G<172 530>
VStem: 172 358<0 1556>
Fore
172 1556 m 1
 530 1556 l 1
 530 0 l 1
 172 0 l 1
 172 1556 l 1
EndSplineSet
EndChar
StartChar: m
Encoding: 109 109 81
Width: 2134
Flags: W
HStem: 0 21G<170 530 891 1251 1612 1972> 877 270<688.936 943.349 1391.43 1706.19>
VStem: 170 360<0 769.383 956 1120> 891 360<0 766.782> 1612 360<0 820.328>
CounterMasks: 1 38
Fore
870 1147 m 0
 1037 1147 1153 1059 1210 934 c 1
 1284 1046 1401 1147 1577 1147 c 0
 1848 1147 1972 970 1972 682 c 2
 1972 0 l 1
 1612 0 l 1
 1612 584 l 2
 1612 829.76 1553.6 877 1466 877 c 0
 1380 877 1255 828 1251 550 c 2
 1251 0 l 1
 891 0 l 1
 891 584 l 2
 891 802 866 877 745 877 c 0
 587 877 530 729 530 551 c 2
 530 0 l 1
 170 0 l 1
 170 1120 l 1
 530 1120 l 1
 530 956 l 1
 650 1129 793 1147 870 1147 c 0
EndSplineSet
EndChar
StartChar: n
Encoding: 110 110 82
Width: 1458
Flags: W
HStem: 0 21G<172 530 938 1298> 877 270<705.917 1039>
VStem: 172 358<0 760.424 956 1120> 938 360<0 819.974>
Fore
903 1147 m 0
 1175 1147 1298 969 1298 682 c 2
 1298 0 l 1
 938 0 l 1
 938 522 l 2
 938 745 931 877 770 877 c 0
 605 877 530 736 530 551 c 2
 530 0 l 1
 172 0 l 1
 172 1120 l 1
 530 1120 l 1
 530 956 l 1
 636 1084 754 1147 903 1147 c 0
EndSplineSet
EndChar
StartChar: o
Encoding: 111 111 83
Width: 1407
Flags: W
HStem: -29 256<566.442 842.448> 891 256<566.521 842.67>
VStem: 88 373<348.785 769.422> 946 373<348.785 772.229>
Fore
946 559 m 256
 946 749 879 891 705 891 c 0
 530 891 461 750 461 559 c 256
 461 369 529 227 705 227 c 0
 878 227 946 369 946 559 c 256
88 559 m 256
 88 930 318 1147 705 1147 c 0
 1091 1147 1319 930 1319 559 c 256
 1319 188 1091 -29 705 -29 c 0
 319 -29 88 188 88 559 c 256
EndSplineSet
EndChar
StartChar: p
Encoding: 112 112 84
Width: 1466
Flags: W
HStem: -29 260<701.673 1043.77> 887 260<701.304 1044.49>
VStem: 172 358<-426 162 341.97 776.437 956 1120> 1004 370<349.914 767.686>
Fore
901 -29 m 0
 720 -29 612 54 530 162 c 1
 530 -426 l 1
 172 -426 l 1
 172 1120 l 1
 530 1120 l 1
 530 956 l 1
 611 1063 719 1147 901 1147 c 0
 1185 1147 1374 900 1374 559 c 256
 1374 217 1184 -29 901 -29 c 0
1004 559 m 256
 1004 747 940 887 768 887 c 256
 597 887 530 747 530 559 c 256
 530 372 597 231 768 231 c 256
 939 231 1004 370 1004 559 c 256
EndSplineSet
EndChar
StartChar: q
Encoding: 113 113 85
Width: 1466
Flags: W
HStem: -29 260<422.19 764.766> 887 258<423.079 764.553>
VStem: 92 371<347.222 772.339> 934 360<-426 162 341.157 776.437 954 1120>
Fore
934 559 m 256
 934 747 870 887 698 887 c 0
 528 887 463 747 463 559 c 256
 463 277 604 231 698 231 c 0
 869 231 934 370 934 559 c 256
565 1145 m 0
 747 1145 854 1061 934 954 c 1
 934 1120 l 1
 1294 1120 l 1
 1294 -426 l 1
 934 -426 l 1
 934 162 l 1
 855 56 748 -29 565 -29 c 0
 281 -29 92 218 92 559 c 256
 92 902 283 1145 565 1145 c 0
EndSplineSet
EndChar
StartChar: r
Encoding: 114 114 86
Width: 1010
Flags: W
HStem: 0 21G<172 530> 858 289<702.688 917.8>
VStem: 172 358<0 722.299 936 1120>
Fore
530 936 m 1
 606 1058 710 1147 903 1147 c 0
 923 1147 943 1146 1003 1139 c 1
 1004 815 l 1
 936 847 873 858 817 858 c 0
 622 858 530 724 530 516 c 2
 530 0 l 1
 172 0 l 1
 172 1120 l 1
 530 1120 l 1
 530 936 l 1
EndSplineSet
EndChar
StartChar: s
Encoding: 115 115 87
Width: 1219
Flags: W
HStem: -29 238<272.66 748.25> 909 238<445.515 815.396>
Fore
602 1147 m 0
 691 1147 830 1139 1047 1085 c 1
 1047 813 l 1
 937 859 782 909 623 909 c 0
 473 909 422 867 422 805 c 0
 422 745 472 719 594 705 c 2
 657 696 l 2
 1029 649 1122 550 1122 330 c 0
 1122 43 867 -29 596 -29 c 0
 407 -29 237 9 123 41 c 1
 123 313 l 1
 246 253 395 209 571 209 c 0
 675 209 782 230 782 324 c 0
 782 389 741 415 600 432 c 2
 537 440 l 2
 266 474 106 548 106 797 c 0
 106 1007 229 1147 602 1147 c 0
EndSplineSet
EndChar
StartChar: t
Encoding: 116 116 88
Width: 979
Flags: W
HStem: 0 256<581.942 594 594 901> 864 256<27 205 563 932>
VStem: 205 358<278.978 864 1120 1438>
Fore
594 0 m 2
 318 0 205 103 205 389 c 2
 205 864 l 1
 27 864 l 1
 27 1120 l 1
 205 1120 l 1
 205 1438 l 1
 563 1438 l 1
 563 1120 l 1
 932 1120 l 1
 932 864 l 1
 563 864 l 1
 563 389 l 2
 563 285 598 256 717 256 c 2
 901 256 l 1
 901 0 l 1
 594 0 l 2
EndSplineSet
EndChar
StartChar: u
Encoding: 117 117 89
Width: 1458
Flags: W
HStem: -29 271<421 752.595>
VStem: 160 360<406.091 1120> 928 358<0 162 357.983 1120>
Fore
557 -29 m 0
 285 -29 160 148 160 436 c 2
 160 1120 l 1
 520 1120 l 1
 520 945 520 596 520 596 c 2
 520 435 503 242 688 242 c 0
 853 242 928 382 928 567 c 2
 928 1120 l 1
 1286 1120 l 1
 1286 0 l 1
 928 0 l 1
 928 162 l 1
 823 35 705 -29 557 -29 c 0
EndSplineSet
EndChar
StartChar: v
Encoding: 118 118 90
Width: 1335
Flags: W
HStem: 0 21G<463.143 871.875>
Fore
31 1120 m 1
 389 1120 l 1
 668 346 l 1
 946 1120 l 1
 1305 1120 l 1
 864 0 l 1
 471 0 l 1
 31 1120 l 1
EndSplineSet
EndChar
StartChar: w
Encoding: 119 119 91
Width: 1892
Flags: W
HStem: 0 21G<361.732 762.883 1130.09 1531.27>
Fore
72 1120 m 1
 420 1120 l 1
 608 348 l 1
 797 1120 l 1
 1096 1120 l 1
 1284 356 l 1
 1473 1120 l 1
 1821 1120 l 1
 1526 0 l 1
 1135 0 l 1
 946 770 l 1
 758 0 l 1
 367 0 l 1
 72 1120 l 1
EndSplineSet
EndChar
StartChar: x
Encoding: 120 120 92
Width: 1321
Flags: W
HStem: 0 21G<31 424.068 896.763 1290>
Fore
455 573 m 1
 51 1120 l 1
 430 1120 l 1
 659 788 l 1
 891 1120 l 1
 1270 1120 l 1
 866 575 l 1
 1290 0 l 1
 911 0 l 1
 659 354 l 1
 410 0 l 1
 31 0 l 1
 455 573 l 1
EndSplineSet
EndChar
StartChar: y
Encoding: 121 121 93
Width: 1335
Flags: W
HStem: -442 235<205 467.289>
Fore
25 1120 m 1
 383 1120 l 1
 684 360 l 1
 940 1120 l 1
 1298 1120 l 1
 827 -106 l 2
 754 -299 661 -442 412 -442 c 2
 205 -442 l 1
 205 -207 l 1
 317 -207 l 2
 437 -207 483 -174 514 -74 c 2
 524 -43 l 1
 25 1120 l 1
EndSplineSet
EndChar
StartChar: z
Encoding: 122 122 94
Width: 1192
Flags: W
HStem: 0 256<504 1094> 864 256<117 682>
Fore
117 1120 m 1
 1094 1120 l 1
 1094 870 l 1
 504 256 l 1
 1094 256 l 1
 1094 0 l 1
 92 0 l 1
 92 250 l 1
 682 864 l 1
 117 864 l 1
 117 1120 l 1
EndSplineSet
EndChar
StartChar: braceleft
Encoding: 123 123 95
Width: 1458
Flags: W
HStem: -334 225<959.694 985 985 1202> 494 223<256 494.681> 1331 225<959.694 985 985 1202>
VStem: 567 340<-58.375 418.701 788.558 1281.33>
Fore
707 612 m 1
 844 579 907 507 907 287 c 2
 907 121 l 2
 907 26 921 -37 950 -66 c 0
 978 -94 1039 -109 1133 -109 c 2
 1202 -109 l 1
 1202 -334 l 1
 985 -334 l 2
 711 -334 567 -235 567 35 c 2
 567 227 l 2
 567 430 500 494 317 494 c 2
 256 494 l 1
 256 717 l 1
 317 717 l 2
 505 717 567 786 567 983 c 2
 567 1188 l 2
 567 1458 711 1556 985 1556 c 2
 1202 1556 l 1
 1202 1331 l 1
 1133 1331 l 2
 1039 1331 978 1316 950 1288 c 0
 921 1258 907 1197 907 1102 c 2
 907 936 l 2
 907 712 841 642 707 612 c 1
EndSplineSet
EndChar
StartChar: bar
Encoding: 124 124 96
Width: 748
Flags: W
VStem: 260 227<-483 1565>
Fore
487 1565 m 1
 487 -483 l 1
 260 -483 l 1
 260 1565 l 1
 487 1565 l 1
EndSplineSet
EndChar
StartChar: braceright
Encoding: 125 125 97
Width: 1458
Flags: W
HStem: -334 225<256 498.306> 494 223<963.319 1202> 1331 225<256 498.218>
VStem: 551 340<-58.375 419.486 788.151 1281.33>
Fore
891 35 m 2
 891 -235 747 -334 473 -334 c 2
 256 -334 l 1
 256 -109 l 1
 326 -109 l 2
 419 -109 480 -94 508 -66 c 0
 537 -36 551 26 551 121 c 2
 551 287 l 2
 551 509 616 579 752 612 c 1
 616 643 551 712 551 936 c 2
 551 1102 l 2
 551 1197 537 1259 508 1288 c 0
 480 1316 419 1331 326 1331 c 2
 256 1331 l 1
 256 1556 l 1
 473 1556 l 2
 746 1556 891 1458 891 1188 c 2
 891 983 l 2
 891 785 954 717 1141 717 c 2
 1202 717 l 1
 1202 494 l 1
 1141 494 l 2
 958 494 891 429 891 227 c 2
 891 35 l 2
EndSplineSet
EndChar
StartChar: asciitilde
Encoding: 126 126 98
Width: 1716
Flags: W
HStem: 457 233<940.776 1324.6> 594 233<391.224 775.897>
Fore
1141 690 m 0x80
 1284 690 1400 768 1499 850 c 1
 1499 606 l 1
 1388 523 1270 457 1118 457 c 0x80
 918 457 762 594 575 594 c 0
 432 594 315 517 217 434 c 1
 217 678 l 1
 328 761 446 827 598 827 c 0x40
 799 827 955 690 1141 690 c 0x80
EndSplineSet
EndChar
StartChar: exclamdown
Encoding: 161 161 100
Width: 934
Flags: W
HStem: 0 21G<287 647> 1137 356<287 647>
VStem: 287 360<0 623.357 1137 1493>
Fore
287 0 m 1
 287 573 l 1
 338 991 l 1
 596 991 l 1
 647 573 l 1
 647 0 l 1
 287 0 l 1
287 1137 m 1
 287 1493 l 1
 647 1493 l 1
 647 1137 l 1
 287 1137 l 1
EndSplineSet
EndChar
StartChar: cent
Encoding: 162 162 101
Width: 1425
Flags: W
VStem: 174 373<371.156 749.388> 702 162<-313 -29 260 858 1145 1432>
Fore
702 858 m 1
 602 802 547 708 547 559 c 0
 547 406 604 313 702 260 c 1
 702 858 l 1
174 575 m 0
 174 917 375 1101 702 1145 c 1
 702 1432 l 1
 864 1432 l 1
 865 1145 l 1
 954 1141 1048 1125 1161 1085 c 1
 1161 793 l 1
 1015 888 914 891 879 891 c 2
 864 891 l 1
 864 228 l 1
 989 229 1089 267 1161 326 c 1
 1161 33 l 1
 1024 -17 931 -29 874 -29 c 2
 864 -29 l 1
 864 -313 l 1
 702 -313 l 1
 702 -25 l 1
 373 25 174 211 174 575 c 0
EndSplineSet
EndChar
StartChar: sterling
Encoding: 163 163 102
Width: 1425
Flags: W
HStem: 0 266<125 352 717 1255> 592 239<158 352 717 1090> 1257 263<796.148 1172.24>
VStem: 352 365<266 592 831 1170.79>
Fore
881 1520 m 0
 1026 1520 1148 1495 1243 1466 c 1
 1243 1180 l 1
 1166 1223 1066 1257 948 1257 c 0
 809 1257 717 1194 717 1001 c 2
 717 831 l 1
 1090 831 l 1
 1090 592 l 1
 717 592 l 1
 717 266 l 1
 1255 266 l 1
 1255 0 l 1
 125 0 l 1
 125 266 l 1
 352 266 l 1
 352 592 l 1
 158 592 l 1
 158 831 l 1
 352 831 l 1
 352 1001 l 2
 352 1366 521 1520 881 1520 c 0
EndSplineSet
EndChar
StartChar: currency
Encoding: 164 164 103
Width: 1303
Flags: W
HStem: 213 209<519.484 756.873> 860 209<549.081 785.664> 1197 20G<209.13 249 1059 1098.74>
VStem: 225 209<536.078 774.669> 872 209<536.177 774.201>
Fore
653 213 m 0
 565 213 492 237 434 268 c 1
 227 61 l 1
 74 215 l 1
 281 422 l 1
 238 498 225 570 225 641 c 256
 225 731 248 801 285 858 c 1
 76 1063 l 1
 229 1217 l 1
 436 1010 l 1
 509 1056 583 1069 653 1069 c 0
 741 1069 813 1043 872 1014 c 1
 1079 1221 l 1
 1231 1067 l 1
 1024 860 l 1
 1055 801 1081 727 1081 641 c 0
 1081 571 1068 498 1022 426 c 1
 1229 219 l 1
 1075 66 l 1
 868 272 l 1
 797 226 723 213 653 213 c 0
434 641 m 0
 434 516 528 422 653 422 c 0
 774 422 872 515 872 641 c 256
 872 767 775 860 653 860 c 0
 532 860 434 767 434 641 c 0
EndSplineSet
EndChar
StartChar: yen
Encoding: 165 165 104
Width: 1425
Flags: W
HStem: 0 21G<522 903> 416 194<68 522 903 1358> 762 192<68 360 1065 1358>
VStem: 522 381<0 416 610 676>
Fore
1358 416 m 1
 903 416 l 1
 903 0 l 1
 522 0 l 1
 522 416 l 1
 68 416 l 1
 68 610 l 1
 522 610 l 1
 522 676 l 1
 473 762 l 1
 68 762 l 1
 68 954 l 1
 360 954 l 1
 25 1493 l 1
 424 1493 l 1
 713 1032 l 1
 1001 1493 l 1
 1401 1493 l 1
 1065 954 l 1
 1358 954 l 1
 1358 762 l 1
 952 762 l 1
 903 676 l 1
 903 610 l 1
 1358 610 l 1
 1358 416 l 1
EndSplineSet
EndChar
StartChar: brokenbar
Encoding: 166 166 105
Width: 748
Flags: W
VStem: 260 227<-350 408 674 1432>
Fore
487 1432 m 1
 487 674 l 1
 260 674 l 1
 260 1432 l 1
 487 1432 l 1
487 408 m 1
 487 -350 l 1
 260 -350 l 1
 260 408 l 1
 487 408 l 1
EndSplineSet
EndChar
StartChar: section
Encoding: 167 167 106
Width: 1024
Flags: W
HStem: -195 211<301.975 591.633> 1235 21G<810 885> 1313 207<438.934 715.391>
VStem: 14 285<608.558 801.181> 739 277<525.212 721.667>
Fore
528 1520 m 0
 671 1520 800 1489 885 1462 c 1
 885 1235 l 1
 735 1294 634 1313 571 1313 c 0
 490 1313 420 1291 420 1217 c 0
 420 1097 783 1047 936 880 c 0
 990 822 1016 751 1016 668 c 0
 1016 491 918 398 786 344 c 1
 839 316 938 253 938 117 c 0
 938 -94 743 -195 483 -195 c 0
 409 -195 293 -188 115 -137 c 1
 115 100 l 1
 249 52 384 16 469 16 c 0
 556 16 612 52 612 106 c 0
 612 275 14 269 14 668 c 0
 14 792 73 902 238 977 c 1
 165 1026 98 1090 98 1214 c 0
 98 1427 289 1520 528 1520 c 0
604 471 m 1
 670 494 739 541 739 625 c 0
 739 717 646 782 434 856 c 1
 374 831 299 788 299 702 c 0
 299 608 376 554 604 471 c 1
EndSplineSet
EndChar
StartChar: dieresis
Encoding: 168 168 107
Width: 1024
Flags: W
HStem: 1339 246<197 432 592 827>
VStem: 197 235<1339 1585> 592 235<1339 1585>
Fore
197 1585 m 1
 432 1585 l 1
 432 1339 l 1
 197 1339 l 1
 197 1585 l 1
592 1585 m 1
 827 1585 l 1
 827 1339 l 1
 592 1339 l 1
 592 1585 l 1
EndSplineSet
EndChar
StartChar: copyright
Encoding: 169 169 108
Width: 2048
Flags: W
HStem: 0 154<805.3 1242.99> 313 187<946.301 1218.29> 983 186<949.678 1220.15> 1331 154<806.783 1241.05>
VStem: 283 151<522.505 961.883> 600 258<586.488 891.748> 1614 151<522.568 961.862>
Fore
1065 1169 m 0
 1164 1169 1247 1153 1323 1126 c 1
 1323 911 l 1
 1267 947 1192 983 1098 983 c 0
 948 983 858 895 858 741 c 0
 858 586 947 500 1098 500 c 0
 1191 500 1267 528 1323 571 c 1
 1323 358 l 1
 1231 327 1142 313 1065 313 c 0
 778 313 600 484 600 741 c 0
 600 1005 784 1169 1065 1169 c 0
1024 1331 m 256
 698 1331 434 1067 434 741 c 0
 434 424 689 154 1024 154 c 0
 1355 154 1614 418 1614 741 c 0
 1614 1066 1351 1331 1024 1331 c 256
1024 1485 m 256
 1425 1485 1765 1164 1765 741 c 0
 1765 327 1431 0 1024 0 c 256
 623 0 283 320 283 741 c 0
 283 1163 621 1485 1024 1485 c 256
EndSplineSet
EndChar
StartChar: ordfeminine
Encoding: 170 170 109
Width: 1155
Flags: W
HStem: 373 200<176 989> 696 162<425.39 645.003> 1081 138<440.975 731> 1354 166<292.449 703.642>
VStem: 158 248<879.531 1047.2> 733 268<929.903 1081 1219 1321.52> 756 245<717 844>
Fore
176 573 m 1xf8
 989 573 l 1
 989 373 l 1
 176 373 l 1
 176 573 l 1xf8
530 858 m 0
 652 858 733 945 733 1059 c 2
 733 1081 l 1xfc
 643 1081 l 2
 486 1081 406 1058 406 967 c 0
 406 897 454 858 530 858 c 0
561 1520 m 0
 833 1520 1001 1425 1001 1165 c 2
 1001 717 l 1
 756 717 l 1
 756 844 l 1xfa
 694 758 610 696 467 696 c 0
 286 696 158 780 158 946 c 0
 158 1110 258 1219 594 1219 c 2
 731 1219 l 1
 731 1239 l 2
 731 1285 707 1354 557 1354 c 0
 424 1354 316 1324 225 1284 c 1
 225 1464 l 1
 314 1491 439 1520 561 1520 c 0
EndSplineSet
EndChar
StartChar: guillemotleft
Encoding: 171 171 110
Width: 1323
Flags: W
HStem: 137 926<651 651>
VStem: 158 972<506 1063>
Fore
651 1063 m 1
 651 821 l 1
 358 600 l 1
 651 379 l 1
 651 137 l 1
 158 506 l 1
 158 692 l 1
 651 1063 l 1
1130 1063 m 1
 1130 821 l 1
 838 600 l 1
 1130 379 l 1
 1130 137 l 1
 637 506 l 1
 637 692 l 1
 1130 1063 l 1
EndSplineSet
EndChar
StartChar: logicalnot
Encoding: 172 172 111
Width: 1716
Flags: W
HStem: 672 237<217 1264>
VStem: 1264 235<287 672>
Fore
217 909 m 1
 1499 909 l 1
 1499 287 l 1
 1264 287 l 1
 1264 672 l 1
 217 672 l 1
 217 909 l 1
EndSplineSet
EndChar
StartChar: uni00AD
Encoding: 173 173 112
Width: 850
Flags: W
HStem: 444 291<111 739>
Fore
111 735 m 1
 739 735 l 1
 739 444 l 1
 111 444 l 1
 111 735 l 1
EndSplineSet
EndChar
StartChar: registered
Encoding: 174 174 113
Width: 2048
Flags: W
HStem: 0 154<805.3 1242.99> 694 135<932 1010.34> 1036 138<932 1103.51> 1331 154<808.432 1241.05>
VStem: 283 151<522.505 963.531> 719 213<338 694 829 1036> 1124 230<854.013 1011.92> 1614 151<522.568 961.862>
Fore
1024 1331 m 256
 706 1331 434 1075 434 741 c 0
 434 424 689 154 1024 154 c 0
 1355 154 1614 418 1614 741 c 0
 1614 1066 1351 1331 1024 1331 c 256
1124 934 m 256
 1124 995 1085 1036 967 1036 c 2
 932 1036 l 1
 932 829 l 1
 967 829 l 2
 1079 829 1124 871 1124 934 c 256
1354 934 m 0
 1354 809 1269 739 1153 719 c 1
 1223 681 1267 614 1294 559 c 2
 1405 338 l 1
 1176 338 l 1
 1069 551 l 2
 1035 621 994 694 944 694 c 2
 932 694 l 1
 932 338 l 1
 719 338 l 1
 719 1174 l 1
 1004 1174 l 2
 1263 1174 1354 1078 1354 934 c 0
1024 1485 m 256
 1425 1485 1765 1164 1765 741 c 0
 1765 327 1431 0 1024 0 c 256
 623 0 283 320 283 741 c 0
 283 1163 621 1485 1024 1485 c 256
EndSplineSet
EndChar
StartChar: macron
Encoding: 175 175 114
Width: 1024
Flags: W
HStem: 1368 188<197 827>
Fore
197 1556 m 1
 827 1556 l 1
 827 1368 l 1
 197 1368 l 1
 197 1556 l 1
EndSplineSet
EndChar
StartChar: degree
Encoding: 176 176 115
Width: 1024
Flags: W
HStem: 868 162<394.374 628.896> 1372 162<394.653 627.14>
VStem: 178 162<1083.62 1316.16> 684 160<1086.76 1313.87>
Fore
684 1200 m 0
 684 1300 604 1372 512 1372 c 0
 412 1372 340 1294 340 1200 c 256
 340 1103 413 1030 512 1030 c 0
 612 1030 684 1107 684 1200 c 0
178 1200 m 256
 178 1390 322 1534 512 1534 c 0
 681 1534 844 1400 844 1200 c 0
 844 1001 684 868 510 868 c 0
 322 868 178 1009 178 1200 c 256
EndSplineSet
EndChar
StartChar: plusminus
Encoding: 177 177 116
Width: 1716
Flags: W
HStem: 0 238<217 1499> 694 236<217 739 977 1499>
VStem: 739 238<340 694 930 1284>
Fore
977 1284 m 1
 977 930 l 1
 1499 930 l 1
 1499 694 l 1
 977 694 l 1
 977 340 l 1
 739 340 l 1
 739 694 l 1
 217 694 l 1
 217 930 l 1
 739 930 l 1
 739 1284 l 1
 977 1284 l 1
217 238 m 1
 1499 238 l 1
 1499 0 l 1
 217 0 l 1
 217 238 l 1
EndSplineSet
EndChar
StartChar: uni00B2
Encoding: 178 178 117
Width: 897
Flags: W
HStem: 668 168<412 782> 1372 148<211.543 510.28>
VStem: 535 243<1156.04 1345.52>
Fore
440 1520 m 0
 627 1520 778 1446 778 1280 c 0
 778 1168 718 1097 606 1001 c 2
 412 836 l 1
 782 836 l 1
 782 668 l 1
 109 668 l 1
 109 821 l 1
 422 1087 l 2
 485 1142 535 1196 535 1260 c 0
 535 1327 482 1372 403 1372 c 0
 288 1372 173 1312 115 1280 c 1
 115 1466 l 1
 193 1490 310 1520 440 1520 c 0
EndSplineSet
EndChar
StartChar: uni00B3
Encoding: 179 179 118
Width: 897
Flags: W
HStem: 653 146<149.041 506.487> 1047 137<248 502.028> 1372 148<287.195 501.09>
VStem: 520 244<1208.16 1351.75> 543 243<839.043 1009.38>
Fore
764 1303 m 0xf0
 764 1193 680 1139 592 1120 c 1
 702 1098 786 1031 786 911 c 0
 786 710 607 653 387 653 c 0
 275 653 177 670 90 698 c 1
 90 872 l 1
 153 837 244 799 344 799 c 0
 448 799 543 830 543 922 c 0xe8
 543 997 491 1047 322 1047 c 2
 248 1047 l 1
 248 1184 l 1
 332 1184 l 2
 479 1184 520 1223 520 1282 c 0
 520 1354 446 1372 362 1372 c 0
 313 1372 233 1364 117 1319 c 1
 117 1485 l 1
 206 1508 306 1520 420 1520 c 0
 715 1520 764 1390 764 1303 c 0xf0
EndSplineSet
EndChar
StartChar: acute
Encoding: 180 180 119
Width: 1024
Flags: W
HStem: 1262 376<561 647>
VStem: 365 565<1262 1638>
Fore
647 1638 m 1
 930 1638 l 1
 561 1262 l 1
 365 1262 l 1
 647 1638 l 1
EndSplineSet
EndChar
StartChar: mu
Encoding: 181 181 120
Width: 1507
Flags: W
HStem: -29 269<597.296 876.598 1214.63 1439.94>
VStem: 174 361<-428 66 304.844 1120> 940 360<303.073 371 371 1120>
Fore
743 -29 m 0
 642 -29 574 3 535 66 c 1
 535 -428 l 1
 174 -428 l 1
 174 1120 l 1
 535 1120 l 1
 535 469 l 2
 535 298 616 240 737 240 c 0
 880 240 940 322 940 469 c 2
 940 1120 l 1
 1300 1120 l 1
 1300 371 l 2
 1300 296 1311 244 1372 244 c 0
 1379 244 1406 243 1442 266 c 1
 1442 16 l 1
 1390 -6 1326 -29 1251 -29 c 0
 1118 -29 1054 33 1014 129 c 1
 930 -12 813 -29 743 -29 c 0
EndSplineSet
EndChar
StartChar: paragraph
Encoding: 182 182 121
Width: 1303
Flags: W
HStem: 1346 147<745 934>
VStem: 555 190<-197 649> 934 190<-197 1346>
Fore
129 1071 m 0
 129 1324 314 1493 604 1493 c 2
 1124 1493 l 1
 1124 -197 l 1
 934 -197 l 1
 934 1346 l 1
 745 1346 l 1
 745 -197 l 1
 555 -197 l 1
 555 649 l 1
 300 680 129 818 129 1071 c 0
EndSplineSet
EndChar
StartChar: periodcentered
Encoding: 183 183 122
Width: 778
Flags: W
HStem: 518 387<209 569>
VStem: 209 360<518 905>
Fore
209 905 m 1
 569 905 l 1
 569 518 l 1
 209 518 l 1
 209 905 l 1
EndSplineSet
EndChar
StartChar: cedilla
Encoding: 184 184 123
Width: 1024
Flags: W
HStem: -401 147<367.15 537.949> -20 20G<463 636>
VStem: 551 164<-236.973 -87.1476>
Fore
551 -168 m 0
 551 -134 525 -83 463 0 c 1
 602 0 l 1
 670 -72 715 -145 715 -215 c 0
 715 -327 653 -401 465 -401 c 0
 384 -401 312 -387 263 -375 c 1
 262 -223 l 1
 342 -248 395 -254 428 -254 c 0
 496 -254 551 -228 551 -168 c 0
EndSplineSet
EndChar
StartChar: uni0E01
Encoding: 3585 3585 124
Width: 1470
Flags: W
HStem: 0 21G<170 481 998 1309> 984 241<459.713 928.944>
VStem: 170 311<0 575.918> 998 311<0 911.631>
Fore
728 1225 m 0
 1054 1225 1309 1142 1309 812 c 2
 1309 0 l 1
 998 0 l 1
 998 796 l 2
 998 909 933 984 732 984 c 0
 578 984 502 961 453 938 c 1
 644 847 l 1
 644 651 l 1
 500 596 481 522 481 456 c 2
 481 0 l 1
 170 0 l 1
 170 456 l 2
 170 561 226 680 324 735 c 1
 139 812 l 1
 139 1088 l 1
 276 1145 492 1225 728 1225 c 0
EndSplineSet
EndChar
StartChar: uni0E02
Encoding: 3586 3586 125
Width: 1380
Flags: W
HStem: 0 222<574 855.177> 712 137<190.127 328.338> 996 219<190.767 438.87>
VStem: 39 144<856.471 987.476> 264 310<222 541.713> 336 150<855.675 974.097> 521 237<773.763 992.243> 878 312<236.432 1204>
Fore
260 996 m 0xf5
 221 996 183 971 183 920 c 0
 183 874 222 849 260 849 c 0
 304 849 336 879 336 924 c 0
 336 972 298 996 260 996 c 0xf5
264 406 m 2xf9
 264 648 521 719 521 897 c 0
 521 946 499 984 455 1009 c 1
 475 983 486 951 486 913 c 0
 486 853 434 712 260 712 c 0
 132 712 39 808 39 926 c 0
 39 1118 214 1215 375 1215 c 0
 517 1215 758 1145 758 864 c 0xf7
 758 676 574 591 574 361 c 2
 574 222 l 1
 775 222 l 0
 844 222 878 258 878 326 c 2
 878 1204 l 1
 1190 1204 l 1
 1190 320 l 2
 1190 107 1049 0 768 0 c 2
 264 0 l 1
 264 406 l 2xf9
EndSplineSet
EndChar
StartChar: uni0E03
Encoding: 3587 3587 126
Width: 1530
Flags: W
HStem: 0 222<721 1007.46> 605 136<190.295 327.157> 1195 20G<307.5 380.36 595.888 714.5 1026 1336>
VStem: 38 144<749.047 881.194> 335 145<748.383 883.033> 411 310<222 435.145> 660 254<791.36 999.13> 1026 310<242.017 1204>
Fore
626 1215 m 1xfb
 803 1192 914 1063 914 905 c 0xfb
 914 746 767 572 738 481 c 0
 727 445 721 405 721 361 c 2
 721 222 l 1
 923 222 l 2
 992 222 1026 258 1026 326 c 2
 1026 1204 l 1
 1336 1204 l 1
 1336 305 l 2
 1336 102 1192 0 924 0 c 2
 411 0 l 1
 411 406 l 2xf5
 411 448 409 607 588 763 c 0
 634 803 660 853 660 917 c 0
 660 970 642 998 593 1008 c 1
 490 970 l 1
 330 1051 l 1
 284 1032 l 1
 423 1012 480 895 480 798 c 0
 480 715 415 605 260 605 c 0
 171 605 38 655 38 853 c 0
 38 1143 267 1209 348 1215 c 1
 492 1126 l 1
 626 1215 l 1xfb
335 817 m 0
 335 856 305 890 262 890 c 16
 259 890 l 0
 218 890 182 858 182 814 c 0
 182 774 217 741 260 741 c 0
 300 741 335 773 335 817 c 0
EndSplineSet
EndChar
StartChar: uni0E04
Encoding: 3588 3588 127
Width: 1570
Flags: W
HStem: 0 21G<-4849 1391> 390 127<710.031 849.408> 666 139<711.214 848.223> 984 239<596.671 956.53>
VStem: 156 319<577 861.625> 177 311<0 214.162> 475 229<577 735> 856 143<524.453 658.301> 1080 311<1 869.535>
Fore
475 577 m 1xf980
 523 692 631 805 778 805 c 0
 883 805 999 717 999 590 c 0
 999 476 890 390 787 390 c 0
 726 390 663 406 624 453 c 1
 502 251 488 142 488 0 c 1
 177 0 l 1xf580
 156 732 l 2
 145 1110 470 1223 786 1223 c 0
 1134 1223 1391 1053 1391 729 c 2
 1391 0 l 1
 1079 1 l 1
 1080 738 l 2
 1080 885 966 984 783 984 c 2
 780 984 l 2
 596 984 475 884 475 735 c 2
 475 577 l 1xf980
704 590 m 0xf380
 704 546 739 517 779 517 c 24
 822 517 856 551 856 590 c 0
 856 634 822 666 780 666 c 0
 736 666 704 632 704 590 c 0xf380
EndSplineSet
EndChar
StartChar: uni0E05
Encoding: 3589 3589 128
Width: 1570
Flags: W
HStem: 0 21G<-4848 1392> 390 127<710.031 849.408> 666 139<711.017 847.823> 1198 20G<506 593.161 990.277 1078.5>
VStem: 156 319<576 806.326> 177 311<0 223.817> 475 229<576 745> 856 143<524.453 658.487> 1080 312<1 895.641>
Fore
704 590 m 0xf380
 704 546 739 517 779 517 c 24
 822 517 856 551 856 590 c 0
 856 634 822 666 780 666 c 0
 736 666 704 632 704 590 c 0xf380
624 453 m 1
 502 251 488 142 488 0 c 1
 177 0 l 1xf580
 156 765 l 2
 156 908 195 1013 274 1080 c 0
 358 1150 453 1196 559 1218 c 1
 793 1081 l 1
 1024 1218 l 1
 1133 1191 1221 1139 1290 1060 c 0
 1358 982 1392 875 1392 739 c 2
 1392 0 l 1
 1080 1 l 1
 1080 748 l 2
 1080 870 1016 931 978 952 c 1
 837 868 l 1
 746 868 l 1
 589 961 l 1
 482 888 475 796 475 745 c 2
 475 576 l 1xf980
 522 691 630 805 778 805 c 0
 881 805 999 718 999 590 c 0
 999 476 890 390 787 390 c 0
 726 390 663 406 624 453 c 1
EndSplineSet
EndChar
StartChar: uni0E06
Encoding: 3590 3590 129
Width: 1600
Flags: W
HStem: -11 216<381.946 532.955> 605 137<207.473 347.596> 1195 20G<327.5 400.36 615.888 726.5 1085 1411>
VStem: 58 144<749.187 881.194> 148 223<217.369 361.055> 355 145<748.563 882.9> 680 265<804.091 999.087> 1085 326<336 1204>
Fore
646 1215 m 1xf7
 807 1195 945 1073 945 910 c 0
 945 841 918 724 841 645 c 0
 806 608 784 573 776 540 c 1
 894 508 1059 399 1085 336 c 1
 1085 1204 l 1
 1411 1204 l 1
 1411 0 l 1
 1080 0 l 1
 1021 128 890 267 777 315 c 1
 777 265 l 2
 777 99 648 -11 468 -11 c 0
 276 -11 149 104 148 284 c 0xeb
 148 384 201 574 473 588 c 1
 537 778 680 767 680 917 c 0
 680 970 662 998 613 1008 c 1
 510 970 l 1
 350 1051 l 1
 304 1032 l 1
 443 1012 500 895 500 798 c 0
 500 715 435 605 280 605 c 0
 191 605 58 655 58 853 c 0
 58 1143 287 1209 368 1215 c 1
 512 1126 l 1
 646 1215 l 1xf7
279 890 m 0
 238 890 202 858 202 814 c 0
 202 767 241 742 279 742 c 0
 321 742 355 770 355 817 c 0xf7
 355 859 320 890 282 890 c 0
 279 890 l 0
371 288 m 0xeb
 371 238 412 205 458 205 c 0
 506 205 543 244 543 288 c 0
 543 332 507 373 457 373 c 0
 407 373 371 333 371 288 c 0xeb
EndSplineSet
EndChar
StartChar: uni0E07
Encoding: 3591 3591 130
Width: 1130
Flags: W
HStem: 0 21G<533 941> 744 146<490.056 616.37> 1039 176<491.391 628.169>
VStem: 324 160<896.31 1031.75> 626 315<371 752>
Back
372 960 m 4
 372 1029.33 396.667 1088.67 446 1138 c 0
 495.333 1187.33 554.667 1212 624 1212 c 0
 693.333 1212 752.667 1187.33 802 1138 c 0
 851.333 1088.67 876 1029.33 876 960 c 0
 876 890.667 851.333 831.333 802 782 c 0
 752.667 732.667 693.333 708 624 708 c 0
 554.667 708 495.333 732.667 446 782 c 0
 396.667 831.333 372 890.667 372 960 c 4
548 962 m 4
 548 982.667 555.167 1000.17 569.5 1014.5 c 0
 583.833 1028.83 601.333 1036 622 1036 c 0
 642.667 1036 660.167 1028.83 674.5 1014.5 c 0
 688.833 1000.17 696 982.667 696 962 c 0
 696 941.333 688.833 923.833 674.5 909.5 c 0
 660.167 895.167 642.667 888 622 888 c 0
 601.333 888 583.833 895.167 569.5 909.5 c 0
 555.167 923.833 548 941.333 548 962 c 4
EndSplineSet
Fore
484 963 m 0
 484 919 519 890 559 890 c 24
 602 890 636 924 636 963 c 0
 636 1004 605 1039 560 1039 c 0
 515 1039 484 1004 484 963 c 0
324 963 m 0
 324 1070 379 1215 598 1215 c 2
 600 1215 l 2
 723 1215 810 1176 862 1098 c 0
 915 1019 941 927 941 822 c 2
 941 0 l 25
 574 0 l 1
 492 109 283 381 39 570 c 1
 103 761 l 1
 232 696 489 526 626 371 c 1
 626 752 l 1
 615 746 589 744 558 744 c 0
 435 744 324 839 324 963 c 0
EndSplineSet
EndChar
StartChar: uni0E08
Encoding: 3592 3592 131
Width: 1360
Flags: W
HStem: 0 21G<833.5 1163> 364 144<393.325 533.16> 657 144<394.84 533.154> 994 240<280.304 768.362>
VStem: 244 144<514.825 649.075> 852 311<518 919.209>
Fore
59 1095 m 1
 265 1220 430 1234 538 1234 c 0
 717 1234 866 1202 985 1138 c 0
 1104 1075 1163 958 1163 789 c 10
 1163 0 l 1
 852 0 l 1
 815 214 747 367 649 460 c 1
 629 411 537 364 468 364 c 0
 350 364 244 472 244 564 c 0
 244 749 387 801 482 801 c 0
 576 801 655 772 718 714 c 0
 781 655 826 590 852 518 c 1
 852 806 l 2
 852 956 701 994 538 994 c 0
 249 990 103 861 59 822 c 1
 59 1095 l 1
388 581 m 0
 388 537 423 508 463 508 c 24
 506 508 540 542 540 581 c 0
 540 622 509 657 464 657 c 0
 419 657 388 622 388 581 c 0
EndSplineSet
EndChar
StartChar: uni0E09
Encoding: 3593 3593 132
Width: 1470
Flags: W
HStem: -10 174<1094.72 1233.43> 324 146<233.056 359.37> 619 176<234.27 367.483> 994 241<455.324 852.343>
VStem: 67 160<476.31 611.676> 932 311<507 918.765> 1241 193<172.258 304.547>
Fore
227 543 m 0xf8
 227 499 262 470 302 470 c 24
 345 470 379 504 379 543 c 0
 379 587 343 619 303 619 c 0
 259 619 227 583 227 543 c 0xf8
1243 507 m 1xfc
 1292 507 1434 419 1434 251 c 0xfa
 1434 163 1393 -10 1164 -10 c 0
 1021 -10 932 55 897 185 c 1
 810 157 736 96 675 0 c 1
 369 0 l 1
 369 332 l 1
 358 326 332 324 301 324 c 0
 178 324 67 419 67 543 c 0
 67 650 122 795 341 795 c 0
 580 795 675 560 675 432 c 2
 675 305 l 1
 746 370 831 425 932 471 c 1
 932 806 l 2
 932 859 910 903 867 940 c 0
 824 976 744 994 625 994 c 0
 560 994 381 990 119 822 c 1
 119 1095 l 1
 271 1179 452 1235 675 1235 c 0
 1090 1235 1243 1057 1243 789 c 2
 1243 507 l 1xfc
1089 237 m 0
 1089 193 1124 164 1164 164 c 24
 1207 164 1241 198 1241 237 c 0
 1241 281 1205 313 1165 313 c 0
 1121 313 1089 277 1089 237 c 0
EndSplineSet
EndChar
StartChar: uni0E0A
Encoding: 3594 3594 133
Width: 1420
Flags: W
HStem: 0 222<574 894.461> 712 136<190.611 327.749> 996 219<190.517 438.87>
VStem: 39 144<855.976 987.692> 264 310<222 541.713> 336 150<855.715 974.097> 521 237<773.763 992.243> 911 312<234.599 722.862>
Fore
183 923 m 0xf5
 183 886 209 848 260 848 c 0
 301 848 336 880 336 924 c 0
 336 972 298 996 260 996 c 0
 209 996 183 960 183 923 c 0xf5
758 864 m 0xf7
 758 676 574 591 574 361 c 2
 574 222 l 1
 808 222 l 0
 877 222 911 258 911 326 c 2
 911 608 l 2
 911 699 869 750 784 761 c 1
 784 1042 l 1
 901 1066 968 1206 968 1373 c 1
 1298 1373 l 1
 1298 1043 1111 920 1056 894 c 1
 1140 857 1223 742 1223 614 c 2
 1223 306 l 2
 1223 102 1079 -0 811 0 c 2
 264 0 l 1
 264 406 l 2xf9
 264 648 521 719 521 897 c 0
 521 946 499 984 455 1009 c 1
 475 983 486 951 486 913 c 0
 486 853 434 712 260 712 c 0
 132 712 39 808 39 926 c 0
 39 1118 214 1215 375 1215 c 0
 517 1215 758 1145 758 864 c 0xf7
EndSplineSet
EndChar
StartChar: uni0E0B
Encoding: 3595 3595 134
Width: 1580
Flags: W
HStem: 0 222<721 1054.01> 605 136<190.295 327.157> 1195 20G<307.5 380.36 595.888 714.5>
VStem: 38 144<749.047 881.194> 335 145<748.383 883.033> 411 310<222 435.145> 660 254<791.36 999.13> 1076 312<238.251 728.208>
Fore
626 1215 m 1xfb
 803 1192 914 1063 914 905 c 0xfb
 914 746 767 572 738 481 c 0
 727 445 721 405 721 361 c 2
 721 222 l 1
 973 222 l 0
 1042 222 1076 258 1076 326 c 2
 1076 608 l 2
 1076 706 1034 757 949 761 c 1
 949 1052 l 1
 1044 1070 1133 1163 1133 1373 c 1
 1463 1373 l 1
 1463 1043 1276 920 1221 894 c 1
 1305 857 1388 742 1388 614 c 2
 1388 290 l 18
 1388 97 1257 0 995 0 c 2
 411 0 l 1
 411 406 l 2xf5
 411 448 409 607 588 763 c 0
 634 803 660 853 660 917 c 0
 660 970 642 998 593 1008 c 1
 490 970 l 1
 330 1051 l 1
 284 1032 l 1
 423 1012 480 895 480 798 c 0
 480 715 415 605 260 605 c 0
 171 605 38 655 38 853 c 0
 38 1143 267 1209 348 1215 c 1
 492 1126 l 1
 626 1215 l 1xfb
335 817 m 0
 335 856 305 890 262 890 c 16
 259 890 l 0
 218 890 182 858 182 814 c 0
 182 774 217 741 260 741 c 0
 300 741 335 773 335 817 c 0
EndSplineSet
EndChar
StartChar: uni0E0C
Encoding: 3596 3596 135
Width: 2060
Flags: W
HStem: -20 186<390.468 526.568> -20 206<994.91 1145.7> 315 148<400.43 470.649 435.539 517.478> 984 241<446.557 900.699>
VStem: 535 158<175.082 308.521> 764 220<200.094 343.057> 960 308<547 924.487> 1547 304<366 1204>
Fore
1355 213 m 2xbb
 1355 117 1265 -20 1069 -20 c 0
 948 -20 764 62 764 267 c 0x7d
 764 428 882 505 960 536 c 1
 962 796 l 2
 963 945 857 984 732 984 c 0
 573 984 489 959 436 936 c 1
 589 850 l 1
 589 708 l 1
 406 640 400 554 400 516 c 2
 400 463 l 1
 401 463 408 464 422 464 c 0
 495 464 562 471 632 398 c 0
 672 356 693 297 693 220 c 0
 693 124 620 -20 402 -20 c 0
 324 -20 252 10 188 70 c 0
 122 131 90 220 90 337 c 2
 90 468 l 2
 90 549 108 678 263 765 c 1
 89 854 l 1
 90 1074 l 1
 246 1161 433 1225 661 1225 c 0
 874 1224 1029 1188 1124 1115 c 0
 1220 1042 1268 941 1268 812 c 2
 1269 547 l 1
 1381 522 1474 462 1547 366 c 1
 1547 1204 l 1
 1851 1204 l 1
 1851 0 l 1
 1541 0 l 1
 1490 121 1428 195 1355 220 c 1
 1355 213 l 2xbb
984 269 m 0
 984 219 1025 186 1071 186 c 0
 1119 186 1156 225 1156 269 c 0
 1156 313 1120 354 1070 354 c 0
 1020 354 984 314 984 269 c 0
535 242 m 0
 535 286 500 315 460 315 c 24
 417 315 383 281 383 242 c 0
 383 197 418 166 459 166 c 0xb9
 500 166 535 197 535 242 c 0
EndSplineSet
EndChar
StartChar: uni0E0D
Encoding: 3597 3597 136
Width: 1970
Flags: W
HStem: -461 176<1038.66 1254.86> -172 119<1040.18 1155.55> -11 189<366.985 504.958> 0 221<1186 1467> 994 240<448.941 792.095>
VStem: 104 256<187.361 329> 512 206<184.851 319.835> 876 311<221 920.539> 916 121<-282.031 -174.143> 1158 123<-271.258 -175.278> 1467 308<221 1204>
Fore
1158 -230 m 0xcee0
 1158 -202 1137 -172 1097 -172 c 0
 1065 -172 1037 -196 1037 -231 c 0
 1037 -266 1068 -285 1099 -285 c 0
 1138 -285 1158 -258 1158 -230 c 0xcee0
1276 -274 m 1
 1347 -267 1615 -203 1751 -67 c 1
 1790 -306 l 1
 1611 -441 1281 -461 1206 -461 c 0
 1129 -461 1071 -448 1032 -420 c 0
 947 -363 916 -317 916 -221 c 0
 916 -126 1003 -53 1098 -53 c 0
 1205 -53 1281 -147 1281 -233 c 0
 1281 -256 1279 -270 1276 -274 c 1
EndSplineSet
Refer: 256 63247 N 1 0 0 1 0 0 2
Substitution2: "Single Substitution lookup 11" uni0E0D.descless
Substitution2: "Single Substitution lookup 10" uni0E0D.descless
EndChar
StartChar: uni0E0E
Encoding: 3598 3598 137
Width: 1560
Flags: W
HStem: -532 193<532.259 663.811> -196 195<524.033 673.219> -10 179<252.468 386.731> 984 241<615.787 957.506>
VStem: 68 176<177.04 311.41> 300 212<-335.022 -213.414> 396 256<182.527 320> 1041 320<-217 907.59>
AnchorPoint: "BelowBase" 1351.5 -580.5 basechar 0
Fore
396 245 m 0xbb
 396 284 362 318 319 318 c 24
 279 318 244 289 244 245 c 0
 244 204 275 169 320 169 c 0
 365 169 396 204 396 245 c 0xbb
300 -284 m 0xbd
 300 -58 521 -1 628 -1 c 0
 673 -1 718 -10 763 -29 c 1
 775 62 l 1
 978 -1 l 1
 939 -127 l 1
 981 -156 1015 -186 1041 -217 c 1
 1040 795 l 2
 1040 947 885 984 753 984 c 0
 692 984 621 975 550 937 c 1
 770 836 l 1
 770 644 l 1
 702 620 652 561 652 478 c 2
 652 320 l 2xdb
 652 56 499 -10 340 -10 c 0
 223 -10 68 40 68 238 c 0
 68 407 190 486 292 493 c 2
 338 496 l 1
 338 622 362 690 452 734 c 1
 236 811 l 1
 236 1088 l 1
 501 1207 687 1225 800 1225 c 0
 973 1225 1111 1193 1210 1128 c 0
 1310 1064 1360 958 1360 811 c 2
 1361 -520 l 1
 1032 -520 l 1
 992 -457 944 -403 888 -358 c 1
 854 -427 807 -473 746 -498 c 0
 689 -521 633 -532 576 -532 c 0
 442 -532 300 -440 300 -284 c 0xbd
512 -276 m 0xdd
 512 -326 549 -339 571 -339 c 0
 624 -339 681 -299 705 -220 c 1
 674 -204 644 -196 616 -196 c 0
 564 -196 512 -229 512 -276 c 0xdd
EndSplineSet
EndChar
StartChar: uni0E0F
Encoding: 3599 3599 138
Width: 1550
Flags: W
HStem: -523 177<306.962 442.585> -241 162<297.695 418> -12 181<251.127 387.494> 985 240<560.744 955.199>
VStem: 68 176<176.039 310.723> 396 256<175.865 320> 1040 319<-254 907.285>
AnchorPoint: "BelowBase" 1350.5 -580.5 basechar 0
Fore
396 245 m 0
 396 284 362 318 319 318 c 24
 279 318 244 289 244 245 c 0
 244 204 275 169 320 169 c 0
 365 169 396 204 396 245 c 0
86 -304 m 0
 86 -231 156 -79 372 -79 c 2
 376 -79 l 2
 386 -79 478 -81 542 -119 c 1
 616 9 l 1
 856 -76 l 1
 736 -232 l 1
 793 -265 l 1
 877 -175 l 1
 955 -175 l 1
 1040 -254 l 1
 1040 795 l 2
 1040 947 883 985 750 985 c 0
 673 985 606 967 550 937 c 1
 770 836 l 1
 770 644 l 1
 702 620 652 561 652 478 c 2
 652 320 l 2
 652 38 438 -12 328 -12 c 0
 186 -12 68 102 68 238 c 0
 68 369 144 483 292 493 c 2
 338 496 l 1
 338 622 362 690 452 734 c 1
 236 811 l 1
 236 1088 l 1
 434 1195 629 1225 800 1225 c 0
 1000 1225 1143 1188 1230 1114 c 0
 1316 1040 1359 939 1359 811 c 2
 1359 -520 l 1
 1022 -520 l 1
 928 -418 l 1
 850 -508 l 1
 751 -508 l 1
 629 -388 l 1
 552 -471 480 -507 358 -523 c 1
 236 -520 86 -444 86 -304 c 0
292 -298 m 0
 292 -336 324 -346 356 -346 c 0
 421 -346 447 -304 463 -265 c 1
 432 -249 403 -241 376 -241 c 0
 326 -241 292 -264 292 -298 c 0
EndSplineSet
EndChar
StartChar: uni0E10
Encoding: 3600 3600 139
Width: 1250
Flags: HW
HStem: -617 143<249.966 364.424> -361 103<715.853 770.788> -156 111<717.248 814.935> 0 21<673.839 983.03> 205 144<310.118 449.51> 498 144<313.256 448.208> 984 241<535.614 906.637>
VStem: 109 139<-465.064 -395> 160 144<356.195 489.833> 600 115<-256.288 -171.333> 817 211<-321 -161.429>
Fore
754 -361 m 0xfee0
 691 -361 600 -313 600 -204 c 0
 600 -77 718 -45 793 -45 c 0
 873 -45 1028 -77 1028 -321 c 2
 1028 -615 l 1
 766 -615 l 1
 690 -528 l 1
 633 -610 l 1
 561 -610 l 1
 480 -518 l 1
 448 -584 386 -617 294 -617 c 0
 156 -617 109 -518 109 -444 c 0xff60
 109 -347 201 -264 304 -264 c 0
 334 -264 363 -265 422 -308 c 1
 452 -231 l 1
 578 -338 l 1
 540 -408 l 1
 598 -458 l 1
 656 -385 l 1
 715 -385 l 1
 771 -456 l 1
 771 -360 l 1
 765 -361 759 -361 754 -361 c 0xfee0
817 -204 m 0
 817 -179 795 -156 768 -156 c 16
 732 -156 715 -182 715 -207 c 0
 715 -233 732 -258 766 -258 c 0
 792 -258 817 -236 817 -204 c 0
366 -428 m 1
 339 -406 327 -395 294 -394 c 1
 263 -403 248 -417 248 -437 c 0
 248 -450 256 -474 288 -474 c 0
 341 -474 348 -446 366 -428 c 1
EndSplineSet
Refer: 241 63232 N 1 0 0 1 0 0 2
Substitution2: "Single Substitution lookup 11" uni0E10.descless
Substitution2: "Single Substitution lookup 10" uni0E10.descless
EndChar
StartChar: uni0E11
Encoding: 3601 3601 140
Width: 1820
Flags: W
HStem: 0 21G<432 818 1319 1629> 605 137<208.839 348.736> 1203 20G<328.5 401.36 616.888 735.5 1291 1451.5>
VStem: 59 144<749.293 881.267> 356 145<748.728 882.9> 681 254<791.36 999.13> 1319 310<0 835.488>
Fore
281 890 m 0
 235 890 203 854 203 815 c 0
 203 768 242 742 280 742 c 0
 324 742 356 772 356 818 c 0
 356 854 328 890 281 890 c 0
1333 1223 m 0
 1570 1223 1629 1070 1629 951 c 2
 1629 0 l 1
 1319 0 l 1
 1319 784 l 2
 1319 826 1286 836 1267 836 c 0
 1251 836 1221 810 1215 784 c 0
 1151 525 889 155 747 0 c 1
 432 0 l 1
 432 406 l 2
 432 448 430 607 609 763 c 0
 655 803 681 853 681 917 c 0
 681 970 663 998 614 1008 c 1
 511 970 l 1
 351 1051 l 1
 305 1032 l 1
 444 1012 501 895 501 798 c 0
 501 715 436 605 281 605 c 0
 192 605 59 655 59 853 c 0
 59 1143 288 1209 369 1215 c 1
 513 1126 l 1
 647 1215 l 1
 824 1192 935 1063 935 905 c 0
 935 746 788 572 759 481 c 0
 748 445 742 405 742 361 c 2
 742 340 l 1
 766 360 812 429 880 549 c 0
 947 668 1003 820 1046 1003 c 0
 1057 1051 1087 1100 1136 1149 c 0
 1184 1198 1249 1223 1333 1223 c 0
EndSplineSet
EndChar
StartChar: uni0E12
Encoding: 3602 3602 141
Width: 2230
Flags: W
HStem: -21 191<1194.48 1345.36> 702 140<703.61 854.305> 1203 20<519.5 606.894 1012.8 1176.5 1731 2037>
VStem: 548 144<550.446 691.612> 864 151<550.535 690.231> 978 206<180.973 326.727> 1165 307<515 930.922> 1731 306<318 1204>
Fore
1184 253 m 0xf5
 1184 203 1225 170 1271 170 c 0
 1319 170 1356 209 1356 253 c 0
 1356 297 1320 338 1270 338 c 0
 1220 338 1184 298 1184 253 c 0xf5
692 618 m 0
 692 573 731 539 779 539 c 0
 827 539 864 576 864 621 c 0xf9
 864 664 827 702 777 702 c 0
 732 702 692 669 692 618 c 0
1045 1223 m 1
 1308 1216 1472 1010 1472 746 c 2
 1472 512 l 1xfb
 1563 492 1649 427 1731 318 c 1
 1731 1204 l 1
 2037 1204 l 1
 2037 0 l 1
 1726 0 l 1
 1673 107 1614 176 1550 209 c 1
 1551 128 1458 -21 1283 -21 c 0
 1102 -21 978 76 978 251 c 0xf5
 978 410 1094 490 1164 515 c 1
 1165 737 l 2xf3
 1165 927 1088 983 1053 994 c 1
 897 898 l 1
 760 898 l 1
 592 993 l 1
 456 910 442 803 442 728 c 0
 442 716 443 703 444 689 c 2
 471 339 l 1
 574 362 642 394 673 437 c 1
 599 471 548 523 548 620 c 0
 548 743 629 842 775 842 c 0
 861 842 1015 800 1015 631 c 0
 1015 505 931 305 495 0 c 1
 187 0 l 1
 135 710 l 2
 134 726 133 742 133 757 c 0
 133 891 177 998 266 1078 c 0
 365 1168 467 1216 572 1223 c 1
 818 1082 l 1
 1045 1223 l 1
EndSplineSet
EndChar
StartChar: uni0E13
Encoding: 3603 3603 142
Width: 2060
Flags: W
HStem: -24 202<1594.8 1732.21> -18 203<394.426 528.714> 985 240<418.747 818.984>
VStem: 129 256<195.891 330> 537 206<194.389 326.506> 900 310<345 905.905> 1481 310<501 1204> 1740 213<188.011 319.179>
Fore
1588 251 m 0xbd
 1588 207 1623 178 1663 178 c 24
 1706 178 1740 212 1740 252 c 0
 1740 292 1709 327 1664 327 c 0
 1619 327 1588 292 1588 251 c 0xbd
1652 -24 m 0
 1472 -24 1384 90 1376 199 c 1
 1339 181 1283 115 1209 0 c 1
 900 0 l 1
 900 796 l 2
 900 847 879 892 837 930 c 0
 796 967 722 985 615 985 c 0
 512 985 465 968 410 938 c 1
 612 847 l 1
 612 651 l 1
 508 629 452 583 443 512 c 1
 499 509 l 2
 607 503 743 421 743 252 c 256
 743 100 614 -18 444 -18 c 256
 234 -18 129 141 129 330 c 2
 129 465 l 2
 129 569 183 681 282 735 c 1
 96 812 l 1
 96 1088 l 1
 374 1202 547 1225 660 1225 c 0
 978 1225 1210 1120 1210 812 c 2
 1210 345 l 1
 1291 429 1381 479 1481 495 c 1
 1481 1204 l 1
 1791 1204 l 1x7e
 1792 501 l 1
 1851 489 1953 397 1953 265 c 0
 1953 76 1830 -24 1652 -24 c 0
537 261 m 0
 537 305 502 334 462 334 c 24
 419 334 385 300 385 260 c 0
 385 221 417 185 461 185 c 0
 505 185 537 221 537 261 c 0
EndSplineSet
EndChar
StartChar: uni0E14
Encoding: 3604 3604 143
Width: 1600
Flags: W
HStem: 0 21G<-4795 1425> 666 145<706.542 843.366> 984 240<661.02 1008.13>
VStem: 150 320<528.298 850.005> 171 313<0 264> 554 144<522.888 657.19> 850 148<524.291 658.062> 1114 311<1 870.1>
Fore
150 751 m 2xf7
 150 1129 515 1224 823 1224 c 0
 1036 1224 1188 1175 1281 1078 c 0
 1377 976 1425 860 1425 729 c 2
 1425 0 l 1
 1114 1 l 1
 1114 738 l 2
 1114 787 1094 840 1054 898 c 0
 1015 956 935 984 815 984 c 0
 724 984 606 971 542 897 c 0
 492 840 468 786 470 735 c 2xf7
 484 264 l 1
 555 283 625 329 694 402 c 1
 648 413 554 471 554 595 c 0
 554 717 664 811 786 811 c 0
 888 811 998 707 998 595 c 0
 998 466 943 353 844 261 c 0
 730 155 610 68 482 0 c 1
 171 0 l 1xef
 150 732 l 1
 150 751 l 2xf7
698 590 m 0
 698 546 733 517 773 517 c 24
 816 517 850 551 850 590 c 0
 850 634 816 666 774 666 c 0
 730 666 698 632 698 590 c 0
EndSplineSet
EndChar
StartChar: uni0E15
Encoding: 3605 3605 144
Width: 1600
Flags: HW
HStem: 0 21G<-4795 1425> 636 135<706.34 842.809> 1193 20G<508 592.487 1019.7 1223>
VStem: 150 319<551.625 915.438> 171 310<0 302> 564 134<493.985 627.096> 850 148<495.863 627.271> 1114 311<1 855.543>
Fore
786 771 m 0xef
 885 771 998 681 998 561 c 0
 998 366 825 179 481 0 c 1
 171 0 l 1xef
 150 742 l 2
 150 751 l 0
 150 909 186 1022 268 1088 c 0
 350 1156 450 1198 566 1213 c 1
 811 1028 l 1
 1045 1213 l 1
 1401 1127 1425 890 1425 739 c 2
 1425 0 l 1
 1114 1 l 1
 1114 748 l 2
 1114 847 1104 907 1084 928 c 0
 1064 949 1046 962 1030 965 c 1
 897 854 l 1
 708 854 l 1
 572 966 l 1
 489 917 469 863 469 766 c 0xf7
 469 720 481 395 481 302 c 1
 557 313 627 343 690 392 c 1
 661 401 564 451 564 565 c 0
 564 704 684 771 786 771 c 0xef
698 560 m 0
 698 516 733 487 773 487 c 24
 816 487 850 521 850 560 c 0
 850 604 816 636 774 636 c 0
 730 636 698 602 698 560 c 0
EndSplineSet
EndChar
StartChar: uni0E16
Encoding: 3606 3606 145
Width: 1430
Flags: W
HStem: -11 195<391.279 527.317> 986 238<414.5 842.342>
VStem: 128 256<194.498 325.577> 536 206<190.726 325.51> 930 310<1 906.269>
Fore
128 466 m 2
 128 574 205 683 301 736 c 1
 95 813 l 1
 96 1090 l 1
 404 1215 537 1224 671 1224 c 0
 680 1224 l 0
 841 1224 973 1194 1076 1132 c 0
 1179 1072 1233 965 1240 813 c 2
 1239 1 l 1
 929 1 l 1
 930 797 l 2
 930 948 765 986 643 986 c 0
 558 986 456 965 409 939 c 1
 611 848 l 1
 611 652 l 1
 502 615 456 579 442 511 c 1
 498 508 l 2
 651 508 742 367 742 252 c 0
 742 78 599 -11 449 -11 c 0
 368 -11 284 16 220 68 c 0
 162 118 131 203 128 325 c 2
 128 466 l 2
536 260 m 0
 536 304 501 333 461 333 c 24
 418 333 384 299 384 260 c 0
 384 216 418 184 460 184 c 0
 504 184 536 218 536 260 c 0
EndSplineSet
EndChar
StartChar: uni0E17
Encoding: 3607 3607 146
Width: 1690
Flags: W
HStem: 0 21G<335 684.13 1202 1512> 745 146<191.309 318.107> 901 313<1067.65 1333> 1040 175<190.579 327.1>
VStem: 38 146<898.692 1033.1> 335 316<467 759 898.423 1026> 1202 310<0 895.357>
Fore
307 1215 m 0xde
 430 1215 651 1169 651 813 c 2
 651 467 l 1
 862 993 l 2
 898 1082 998 1214 1202 1214 c 0
 1464 1214 1512 1049 1512 941 c 2
 1512 0 l 1
 1202 0 l 1
 1202 839 l 2
 1202 876 1161 901 1130 901 c 0xee
 1096 901 1069 863 1058 839 c 2
 675 0 l 1
 335 0 l 1
 335 759 l 1
 315 750 290 745 259 745 c 0
 174 745 38 815 38 965 c 0
 38 1058 81 1215 307 1215 c 0xde
184 964 m 0
 184 920 219 891 259 891 c 24
 302 891 336 925 336 964 c 0
 336 1008 302 1040 260 1040 c 0xde
 216 1040 184 1006 184 964 c 0
EndSplineSet
EndChar
StartChar: uni0E18
Encoding: 3608 3608 147
Width: 1330
Flags: W
HStem: 0 158<515 800> 984 241<458.064 904.173>
VStem: 204 311<158 622> 802 314<158 608.304>
Fore
1010 848 m 1
 973 962 889 984 732 984 c 0
 578 984 502 961 453 938 c 1
 967 798 l 2
 1066 771 1116 678 1116 521 c 2
 1116 0 l 1
 204 0 l 1
 204 622 l 1
 515 622 l 1
 515 158 l 1
 800 158 l 1
 802 520 l 2
 803 587 751 632 647 656 c 2
 139 772 l 1
 139 1078 l 1
 387 1182 530 1225 728 1225 c 0
 832 1225 1053 1218 1193 1112 c 1
 1010 848 l 1
EndSplineSet
EndChar
StartChar: uni0E19
Encoding: 3609 3609 148
Width: 1580
Flags: W
HStem: -23 196<1161.82 1299.15> 751 146<191.552 307.019> 1046 175<190.369 329.182>
VStem: 38 146<905.059 1037.23> 336 315<304 765 904.423 1031.58> 1046 312<491 1204> 1306 213<182.633 314.52>
Fore
184 970 m 0xf8
 184 926 219 897 259 897 c 24
 302 897 336 931 336 970 c 0
 336 1014 302 1046 260 1046 c 0
 216 1046 184 1012 184 970 c 0xf8
1154 246 m 0
 1154 202 1189 173 1229 173 c 24
 1272 173 1306 207 1306 246 c 0xfa
 1306 290 1272 322 1230 322 c 0
 1186 322 1154 288 1154 246 c 0
1229 -23 m 0
 1014 -23 965 144 960 199 c 1
 867 178 763 111 648 -1 c 1
 337 -1 l 1
 336 765 l 17
 312 756 286 751 259 751 c 2
 258 751 l 2
 171 751 38 825 38 970 c 0
 38 1069 85 1221 318 1221 c 0
 433 1221 651 1174 651 819 c 2
 651 304 l 1
 746 409 877 470 1046 485 c 1
 1046 1204 l 1
 1358 1204 l 1
 1358 491 l 1xfc
 1379 488 1412 463 1457 418 c 0
 1498 376 1519 323 1519 260 c 0
 1519 159 1461 -23 1229 -23 c 0
EndSplineSet
EndChar
StartChar: uni0E1A
Encoding: 3610 3610 149
Width: 1600
Flags: W
HStem: 0 222<651 1114> 744 146<190.042 318.073> 1039 176<193.25 326.745>
VStem: 38 146<896.516 1031.25> 336 315<222 755 897.423 1025.96> 1114 314<222 1204>
Fore
184 963 m 0
 184 919 219 890 259 890 c 24
 302 890 336 924 336 963 c 0
 336 1004 305 1039 260 1039 c 0
 215 1039 184 1004 184 963 c 0
308 1215 m 0
 484 1215 651 1129 651 831 c 2
 651 222 l 1
 1114 222 l 1
 1114 1204 l 1
 1428 1204 l 1
 1428 0 l 1
 337 0 l 1
 336 755 l 1
 323 748 297 744 259 744 c 0
 130 744 38 843 38 961 c 0
 38 1070 92 1215 308 1215 c 0
EndSplineSet
EndChar
StartChar: uni0E1B
Encoding: 3611 3611 150
Width: 1600
Flags: W
HStem: 0 222<651 1114> 754 146<191.577 317.889> 1049 175<193.502 328.347>
VStem: 38 146<905.957 1041.7> 336 315<222 768 907.423 1041.61> 1114 314<222 1641>
AnchorPoint: "AboveBase" 986 1344 basechar 0
Fore
184 973 m 0
 184 929 219 900 259 900 c 24
 302 900 336 934 336 973 c 0
 336 1014 305 1049 260 1049 c 0
 215 1049 184 1014 184 973 c 0
651 822 m 2
 651 222 l 1
 1114 222 l 1
 1114 1641 l 1
 1428 1641 l 1
 1428 0 l 1
 337 0 l 1
 335 768 l 1
 324 760 302 754 258 754 c 0
 165 754 38 837 38 961 c 0
 38 1067 88 1224 298 1224 c 0
 454 1224 651 1148 651 822 c 2
EndSplineSet
EndChar
StartChar: uni0E1C
Encoding: 3612 3612 151
Width: 1580
Flags: W
HStem: 0 21G<172 518.322 1042.09 1385> 748 146<523.499 662.887> 1042 175<526.076 662.159>
VStem: 172 316<352 762> 669 146<901.956 1034.87> 1074 311<336 1204>
Fore
517 966 m 0
 517 927 551 894 594 894 c 24
 633 894 669 923 669 966 c 0
 669 1011 634 1042 593 1042 c 0
 552 1042 517 1011 517 966 c 0
815 973 m 0
 815 826 696 748 584 748 c 0
 534 748 502 753 488 762 c 9
 488 352 l 1
 692 652 l 1
 866 652 l 1
 1074 336 l 1
 1074 1204 l 1
 1385 1204 l 1
 1385 0 l 1
 1056 0 l 1
 784 391 l 1
 504 0 l 1
 172 0 l 1
 172 286 172 857 172 857 c 2
 172 1021 246 1217 542 1217 c 0
 711 1217 815 1129 815 973 c 0
EndSplineSet
EndChar
StartChar: uni0E1D
Encoding: 3613 3613 152
Width: 1580
Flags: W
HStem: 0 21G<172 518.322 1042.09 1385> 747 147<522.903 663.387> 1042 175<524.234 662.364>
VStem: 172 316<352 762> 669 147<901.115 1033.61> 1074 311<336 1638>
AnchorPoint: "AboveBase" 960 1340 basechar 0
Fore
517 966 m 0
 517 927 551 894 594 894 c 24
 633 894 669 923 669 966 c 0
 669 1011 634 1042 593 1042 c 0
 552 1042 517 1011 517 966 c 0
816 980 m 0
 816 827 693 747 577 747 c 0
 525 747 489 761 488 762 c 9
 488 352 l 1
 692 652 l 1
 866 652 l 1
 1074 336 l 1
 1074 1638 l 1
 1385 1638 l 1
 1385 0 l 1
 1056 0 l 1
 784 391 l 1
 504 0 l 1
 172 0 l 1
 172 836 l 2
 172 1135 346 1217 543 1217 c 0
 758 1217 816 1075 816 980 c 0
EndSplineSet
EndChar
StartChar: uni0E1E
Encoding: 3614 3614 153
Width: 1700
Flags: W
HStem: 0 21G<337 661.625 1212.84 1531> 753 146<193.015 319.953> 1048 177<192.541 331.265>
VStem: 40 146<905.458 1039.92> 337 316<505 767 906.423 1039.38> 1221 310<500 1204>
Fore
314 1225 m 0
 432 1225 653 1180 653 830 c 2
 653 505 l 1
 854 1064 l 1
 1013 1064 l 1
 1221 500 l 1
 1221 1204 l 1
 1531 1204 l 1
 1531 0 l 1
 1222 0 l 1
 929 640 l 25
 653 0 l 1
 337 0 l 1
 337 767 l 1
 315 758 290 753 261 753 c 0
 163 753 40 839 40 960 c 0
 40 1075 95 1225 314 1225 c 0
186 972 m 0
 186 928 221 899 261 899 c 24
 304 899 338 933 338 972 c 0
 338 1016 304 1048 262 1048 c 0
 218 1048 186 1014 186 972 c 0
EndSplineSet
EndChar
StartChar: uni0E1F
Encoding: 3615 3615 154
Width: 1700
Flags: W
HStem: 0 21G<337 661.625 1212.84 1531> 753 146<193.015 319.953> 1048 177<192.541 331.265>
VStem: 40 146<905.458 1039.92> 337 316<505 767 906.423 1039.38> 1221 310<500 1639>
AnchorPoint: "AboveBase" 1103 1296 basechar 0
Fore
314 1225 m 0
 432 1225 653 1180 653 830 c 2
 653 505 l 1
 854 1064 l 1
 1013 1064 l 1
 1221 500 l 1
 1221 1639 l 1
 1531 1639 l 1
 1531 0 l 1
 1222 0 l 1
 929 640 l 25
 653 0 l 1
 337 0 l 1
 337 767 l 1
 315 758 290 753 261 753 c 0
 163 753 40 839 40 960 c 0
 40 1075 95 1225 314 1225 c 0
186 972 m 0
 186 928 221 899 261 899 c 24
 304 899 338 933 338 972 c 0
 338 1016 304 1048 262 1048 c 0
 218 1048 186 1014 186 972 c 0
EndSplineSet
EndChar
StartChar: uni0E20
Encoding: 3616 3616 155
Width: 1550
Flags: W
HStem: -13 192<252.921 388.745> 986 237<705.54 947.557>
VStem: 59 186<187.395 318.976> 397 256<189.362 320.577> 1052 310<0 888.064>
Fore
397 255 m 0
 397 294 363 328 320 328 c 24
 280 328 245 299 245 255 c 0
 245 211 281 179 321 179 c 0
 365 179 397 215 397 255 c 0
337 -13 m 0
 118 -13 59 129 59 235 c 0
 59 449 220 498 293 503 c 2
 339 506 l 1
 339 514 l 2
 339 623 375 697 442 735 c 1
 237 812 l 1
 238 1088 l 1
 419 1210 784 1223 806 1223 c 0
 1005 1223 1148 1183 1234 1104 c 0
 1319 1024 1362 927 1362 812 c 2
 1362 0 l 1
 1053 0 l 1
 1052 796 l 2
 1052 831 1028 872 981 917 c 0
 934 962 871 985 792 986 c 0
 767 986 633 983 551 938 c 1
 771 837 l 1
 771 635 l 1
 709 616 653 533 653 479 c 2
 653 290 l 2
 653 48 445 -13 337 -13 c 0
EndSplineSet
EndChar
StartChar: uni0E21
Encoding: 3617 3617 156
Width: 1560
Flags: W
HStem: -11 207<324.098 472.711> 752 146<254.835 382.747> 1047 178<258.958 389.426>
VStem: 100 213<209.549 353.412> 103 146<905.192 1040.13> 401 318<579 766 905.423 1033.57> 1069 306<356 1204>
Fore
249 971 m 0xee
 249 927 284 898 324 898 c 24
 367 898 401 932 401 971 c 0
 401 1015 365 1047 325 1047 c 0
 281 1047 249 1011 249 971 c 0xee
103 972 m 0
 103 1065 155 1225 363 1225 c 0
 600 1225 719 1090 719 820 c 2
 719 541 l 1
 845 504 962 443 1069 356 c 1
 1069 1204 l 1
 1375 1204 l 1
 1375 0 l 1
 1064 0 l 1
 985 165 870 245 719 296 c 1
 719 266 l 2
 719 121 597 -11 400 -11 c 0
 212 -11 100 105 100 285 c 0xf6
 100 376 134 448 202 500 c 0
 270 553 336 579 401 579 c 1
 401 766 l 1
 384 757 354 752 311 752 c 0
 246 752 103 819 103 972 c 0
313 279 m 0
 313 229 354 196 400 196 c 24
 449 196 485 235 485 279 c 0
 485 323 449 364 399 364 c 0
 349 364 313 324 313 279 c 0
EndSplineSet
EndChar
StartChar: uni0E22
Encoding: 3618 3618 157
Width: 1470
Flags: W
HStem: 0 222<462 960> 447 200<522.469 724> 749 149<468.034 605.891> 1048 175<468.131 604.681>
VStem: 126 335<789.11 1038.98> 613 146<905.196 1040.74> 960 315<222 1204>
Fore
461 972 m 0
 461 932 494 898 538 898 c 24
 577 898 613 928 613 972 c 0
 613 1016 577 1048 537 1048 c 0
 493 1048 461 1012 461 972 c 0
479 1223 m 0
 723 1223 759 1056 759 970 c 0
 759 837 643 749 510 749 c 0
 468 749 422 773 404 789 c 1
 410 692 612 647 707 647 c 2
 724 647 l 1
 724 447 l 1
 695 447 l 2
 517 447 462 378 462 222 c 1
 960 222 l 1
 960 1204 l 1
 1275 1204 l 1
 1275 0 l 1
 153 0 l 1
 153 237 l 2
 153 475 319 533 380 540 c 1
 310 562 250 600 200 653 c 0
 151 706 126 783 126 884 c 0
 126 917 129 999 215 1110 c 0
 273 1185 362 1223 479 1223 c 0
EndSplineSet
EndChar
StartChar: uni0E23
Encoding: 3619 3619 158
Width: 1190
Flags: W
HStem: -12 191<584.937 722.672> 328 175<586.426 691.538> 984 241<459.352 906.725>
VStem: 382 196<188.355 319.61>
Fore
677 -12 m 0
 459 -12 382 128 382 258 c 0
 382 372 478 497 636 503 c 2
 692 505 l 1
 692 550 l 2
 692 616 640 661 537 686 c 2
 139 782 l 1
 139 1088 l 1
 255 1136 486 1225 718 1225 c 0
 917 1225 1062 1191 1153 1122 c 1
 970 858 l 1
 944 954 833 984 722 984 c 0
 577 984 501 960 453 938 c 1
 857 828 l 2
 955 801 1006 710 1006 556 c 2
 1006 330 l 2
 1006 102 838 -12 677 -12 c 0
730 255 m 0
 730 294 696 328 653 328 c 24
 613 328 578 299 578 255 c 0
 578 214 609 179 654 179 c 0
 699 179 730 214 730 255 c 0
EndSplineSet
EndChar
StartChar: uni0E24
Encoding: 3620 3620 159
Width: 1410
Flags: W
HStem: -11 196<374.406 507.321> 985 238<397.604 803.428>
VStem: 109 256<197.005 326.577> 517 206<194.619 327.381> 910 310<-410 889.475>
Fore
76 1088 m 1
 219 1156 439 1223 681 1223 c 0
 836 1223 964 1195 1064 1138 c 0
 1168 1079 1220 971 1220 812 c 2
 1220 -410 l 1
 911 -410 l 1
 910 796 l 2
 910 862 822 985 624 985 c 0
 539 985 437 964 390 938 c 1
 592 847 l 1
 592 661 l 1
 446 609 428 554 423 512 c 1
 479 509 l 2
 636 501 723 375 723 241 c 0
 723 105 607 -11 411 -11 c 0
 224 -11 109 112 109 306 c 2
 109 455 l 2
 109 564 186 683 282 735 c 1
 76 812 l 1
 76 1088 l 1
517 261 m 0
 517 305 482 334 442 334 c 24
 399 334 365 300 365 261 c 0
 365 217 401 185 441 185 c 0
 485 185 517 221 517 261 c 0
EndSplineSet
EndChar
StartChar: uni0E25
Encoding: 3621 3621 160
Width: 1460
Flags: W
HStem: -12 180<407.805 542.482> 317 166<428.655 540.24> 606 254<447.946 669.508> 979 242<385.714 848.506>
VStem: 552 196<175.477 308.978> 965 310<588 871.401>
Fore
552 244 m 0
 552 288 517 317 477 317 c 24
 436 317 400 288 400 244 c 0
 399 201 434 168 476 168 c 0
 517 168 551 200 552 244 c 0
497 860 m 0
 714 860 876 722 965 588 c 1
 964 716 l 2
 963 875 885 979 618 979 c 0
 477 979 303 951 192 836 c 1
 149 1082 l 1
 287 1154 479 1221 700 1221 c 0
 847 1221 978 1188 1094 1122 c 0
 1215 1052 1275 935 1275 770 c 2
 1275 -1 l 1
 966 -1 l 1
 858 354 741 606 531 606 c 0
 469 606 428 574 428 485 c 1
 494 483 l 2
 667 477 748 352 748 225 c 0
 748 108 660 -12 437 -12 c 0
 236 -12 125 137 124 319 c 2
 123 494 l 2
 122 710 302 860 497 860 c 0
EndSplineSet
EndChar
StartChar: uni0E26
Encoding: 3622 3622 161
Width: 1570
Flags: W
HStem: -12 191<258.59 387.328> 983 240<553.327 985.165>
VStem: 49 196<186.121 320.593> 397 256<186.975 320.577> 1052 310<-410 918.321>
Fore
397 255 m 0
 397 294 363 328 320 328 c 24
 280 328 245 299 245 255 c 0
 245 211 281 179 321 179 c 0
 365 179 397 215 397 255 c 0
339 506 m 1
 339 627 372 695 442 735 c 1
 237 812 l 1
 238 1088 l 1
 528 1209 645 1223 802 1223 c 0
 963 1223 1097 1190 1203 1126 c 0
 1309 1060 1362 956 1362 812 c 2
 1362 -410 l 1
 1053 -410 l 1
 1052 796 l 2
 1052 946 939 983 791 983 c 0
 659 983 592 960 551 938 c 1
 771 837 l 1
 771 635 l 1
 709 616 653 533 653 479 c 2
 653 290 l 2
 653 189 619 113 550 63 c 0
 481 13 412 -12 341 -12 c 2
 337 -12 l 2
 107 -12 49 156 49 251 c 0
 49 360 129 492 293 503 c 2
 339 506 l 1
EndSplineSet
EndChar
StartChar: uni0E27
Encoding: 3623 3623 162
Width: 1270
Flags: W
HStem: -11 196<663.842 800.66> 334 185<665.621 772.712> 981 240<303.339 673.724>
VStem: 470 186<194.912 326.399> 774 311<517 878.954>
Fore
808 261 m 0
 808 300 774 334 731 334 c 24
 691 334 656 305 656 261 c 0
 656 220 687 185 732 185 c 0
 777 185 808 220 808 261 c 0
470 264 m 0
 470 379 581 519 734 519 c 2
 774 517 l 1
 774 717 l 2
 774 792 753 855 711 906 c 0
 669 956 592 981 481 981 c 0
 298 981 156 940 81 837 c 1
 38 1083 l 1
 222 1211 396 1221 484 1221 c 0
 664 1221 809 1187 919 1120 c 0
 1030 1052 1085 936 1085 771 c 2
 1085 316 l 2
 1085 54 895 -11 752 -11 c 0
 587 -8 470 99 470 264 c 0
EndSplineSet
EndChar
StartChar: uni0E28
Encoding: 3624 3624 163
Width: 1580
Flags: W
HStem: 0 21G<-4833 1387> 390 127<706.031 845.408> 666 139<707.214 843.823> 984 239<595.602 968.043>
VStem: 152 320<577 872.241> 173 311<0 220.891> 472 228<577 735> 852 143<524.453 658.487> 1076 311<1 782.303>
Fore
620 453 m 1xf980
 498 251 484 142 484 0 c 1
 173 0 l 1xf580
 152 755 l 2
 152 875 205 981 304 1073 c 0
 410 1173 574 1223 793 1223 c 0
 953 1223 1071 1197 1146 1144 c 1
 1242 1278 l 1
 1462 1129 l 1
 1315 985 l 1
 1363 911 1387 826 1387 729 c 2
 1387 0 l 1
 1076 1 l 1
 1076 738 l 2
 1076 754 1075 770 1074 786 c 1
 1012 744 l 1
 859 828 l 1
 978 930 l 1
 949 966 886 984 789 984 c 0
 534 982 473 835 472 735 c 2
 471 577 l 1
 519 692 627 805 774 805 c 0
 877 805 995 718 995 590 c 0
 995 476 886 390 783 390 c 0
 722 390 659 406 620 453 c 1xf980
700 590 m 0xf380
 700 546 735 517 775 517 c 24
 818 517 852 551 852 590 c 0
 852 634 818 666 776 666 c 0
 732 666 700 632 700 590 c 0xf380
EndSplineSet
EndChar
StartChar: uni0E29
Encoding: 3625 3625 164
Width: 1620
Flags: W
HStem: 0 222<651 1114> 410 175<911 1114> 699 119<850.085 966.59> 744 146<190.042 318.073> 1039 176<193.25 326.745>
VStem: 38 146<896.516 1031.25> 336 315<222 755 897.423 1025.96> 727 121<587.57 694.992> 1114 314<222 410 682 1204>
Fore
184 963 m 0xdf80
 184 919 219 890 259 890 c 24
 302 890 336 924 336 963 c 0
 336 1004 305 1039 260 1039 c 0
 215 1039 184 1004 184 963 c 0xdf80
914 818 m 0xef80
 968 818 1095 795 1114 624 c 9
 1114 1204 l 1
 1428 1204 l 1
 1428 682 l 17
 1471 711 1509 751 1542 801 c 1
 1581 552 l 1
 1540 516 1489 487 1428 466 c 9
 1428 0 l 1
 337 0 l 1
 336 755 l 1
 323 748 297 744 259 744 c 0xdf80
 130 744 38 843 38 961 c 0
 38 1070 92 1215 308 1215 c 0
 484 1215 651 1129 651 831 c 2
 651 222 l 1
 1114 222 l 1
 1114 410 l 17
 917 410 729 476 727 647 c 0
 727 730 801 818 914 818 c 0xef80
848 640 m 0
 848 609 877 585 911 585 c 0
 942 585 969 609 969 643 c 0
 969 673 943 698 911 699 c 0xef80
 875 699 848 673 848 640 c 0
EndSplineSet
EndChar
StartChar: uni0E2A
Encoding: 3626 3626 165
Width: 1490
Flags: W
HStem: -12 191<428.162 562.419> 328 175<449.261 565.604> 609 254<495.581 675.711> 983 240<382.696 873.098>
VStem: 572 196<186.963 320.57>
Fore
572 255 m 0
 572 299 537 328 497 328 c 24
 454 328 420 294 420 255 c 0
 420 214 451 179 496 179 c 0
 541 179 572 214 572 255 c 0
143 499 m 2
 143 674 288 863 511 863 c 0
 632 863 732 834 809 777 c 0
 886 720 946 658 987 591 c 1
 987 719 l 2
 987 770 982 801 972 814 c 1
 900 759 l 1
 790 842 l 1
 888 924 l 1
 851 967 805 983 638 983 c 0
 458 983 318 927 212 839 c 1
 169 1085 l 1
 334 1192 510 1223 665 1223 c 0
 902 1223 1004 1197 1068 1158 c 1
 1128 1276 l 1
 1355 1134 l 1
 1233 1012 l 1
 1275 948 1296 868 1296 773 c 2
 1296 -2 l 1
 986 -1 l 1
 898 289 734 609 566 609 c 0
 539 609 479 613 448 506 c 1
 524 503 l 2
 678 503 768 361 768 248 c 0
 768 78 638 -11 456 -12 c 0
 263 -12 143 130 143 321 c 2
 143 499 l 2
EndSplineSet
EndChar
StartChar: uni0E2B
Encoding: 3627 3627 166
Width: 1620
Flags: W
HStem: 0 21G<335 675 1136 1446> 756 146<191.577 318.091> 1051 175<191.098 326.864> 1066 158<1095.05 1255.83>
VStem: 38 146<907.957 1043.92> 335 316<540 760 909.423 1039.71> 898 180<891.768 1049.42> 1136 310<0 680.855> 1271 175<890.925 1050.28>
Fore
1174 1224 m 0xdf
 1324 1224 1446 1106 1446 956 c 0xde80
 1446 890 1423 832 1377 783 c 1
 1423 725 1446 663 1446 596 c 2
 1446 0 l 1
 1136 0 l 1
 1136 656 l 2
 1136 678 1126 693 1106 701 c 1
 992 506 672 229 675 0 c 1
 335 0 l 1
 335 760 l 1
 335 760 268 756 258 756 c 0
 165 756 38 839 38 963 c 0
 38 1084 111 1226 298 1226 c 0xef
 436 1226 651 1163 651 824 c 2
 651 540 l 1
 704 601 926 743 950 812 c 1
 925 841 898 903 898 957 c 0
 898 1103 1018 1224 1174 1224 c 0xdf
1078 970 m 0
 1078 919 1119 876 1174 876 c 24
 1229 876 1271 919 1271 970 c 0
 1271 1026 1227 1066 1175 1066 c 0
 1120 1066 1078 1022 1078 970 c 0
184 975 m 0
 184 931 219 902 259 902 c 24
 302 902 336 936 336 975 c 0
 336 1016 305 1051 260 1051 c 0xee
 215 1051 184 1016 184 975 c 0
EndSplineSet
EndChar
StartChar: uni0E2C
Encoding: 3628 3628 167
Width: 1700
Flags: W
HStem: 0 21G<337 662.857 1211.54 1531> 753 146<193.577 319.789> 1048 176<193.336 330.317> 1323 251<1132.21 1265.96>
VStem: 40 146<904.957 1040.54> 337 316<475 767 906.423 1038.8> 873 251<1182.1 1311.46> 1221 310<470 936>
AnchorPoint: "AboveBase" 774 1341 basechar 0
Fore
318 1224 m 0
 436 1224 653 1179 653 830 c 2
 653 475 l 1
 854 894 l 1
 1013 894 l 1
 1221 470 l 1
 1221 936 l 1
 1030 939 873 1074 873 1246 c 0
 873 1443 1020 1574 1211 1574 c 0
 1407 1574 1529 1427 1529 1258 c 1
 1567 1281 1607 1317 1650 1366 c 1
 1678 1107 l 1
 1630 1070 1581 1040 1531 1016 c 1
 1531 0 l 1
 1222 0 l 1
 929 560 l 25
 653 0 l 1
 337 0 l 1
 337 767 l 1
 314.724 757.887 289.513 753 260 753 c 0
 167 753 40 836 40 960 c 0
 40 1032 61 1094 102 1146 c 0
 143.485 1197.6 216.294 1224 318 1224 c 0
186 972 m 0
 186 928 221 899 261 899 c 24
 304 899 338 933 338 972 c 0
 338 1016 304 1048 262 1048 c 0
 218 1048 186 1014 186 972 c 0
1200 1174 m 0
 1242 1174 1275 1206 1275 1245 c 0
 1275 1289 1242 1323 1204 1323 c 0
 1160 1323 1124 1289 1124 1249 c 0
 1124 1204 1160 1174 1200 1174 c 0
EndSplineSet
EndChar
StartChar: uni0E2D
Encoding: 3629 3629 168
Width: 1420
Flags: W
HStem: 0 222<465 933> 353 146<491.698 620.581> 648 178<481.838 620.058> 986 240<323.206 800.739>
VStem: 627 166<505.794 640.041> 933 306<222 866.505>
Fore
475 572 m 0
 475 528 511 499 552 499 c 24
 592 499 627 528 627 572 c 0
 626 617 592 648 551 648 c 0
 509 648 474 615 475 572 c 0
150 421 m 2
 150 558 208 826 510 826 c 0
 737 826 793 670 793 565 c 0
 793 447 674 354 552 353 c 0
 508 353 479 358 465 367 c 9
 465 222 l 1
 933 222 l 1
 933 722 l 2
 933 914 781 986 581 986 c 0
 439 986 270 956 157 842 c 1
 114 1088 l 1
 248 1167 412 1226 611 1226 c 0
 791 1226 941 1193 1060 1129 c 0
 1179 1064 1239 947 1239 776 c 2
 1239 -1 l 1
 150 0 l 1
 150 421 l 2
EndSplineSet
EndChar
StartChar: uni0E2E
Encoding: 3630 3630 169
Width: 1460
Flags: W
HStem: 0 222<486 959> 257 131<502.601 640.791> 537 175<503.947 620.418> 736 179<430.235 760.278> 1020 206<485.856 747.01>
VStem: 648 146<395.951 528.739> 959 304<222 808.302>
Fore
496 461 m 0
 496 422 530 388 573 388 c 24
 613 388 648 417 648 461 c 0
 648 502 617 537 572 537 c 0
 527 537 496 502 496 461 c 0
794 454 m 0
 794 325 677 257 556 257 c 0
 525 257 502 260 487 266 c 1
 486 222 l 1
 959 222 l 1
 959 722 l 2
 959 768 955 807 947 838 c 1
 893 806 713 736 543 736 c 0
 368 736 143 787 140 936 c 0
 139 1037 192 1111 300 1156 c 0
 413 1205 524 1226 650 1226 c 0
 807 1226 933 1206 1031 1166 c 1
 1080 1207 1123 1257 1160 1316 c 1
 1324 1094 l 1
 1207 1007 l 1
 1245 944 1264 867 1264 776 c 2
 1263 0 l 1
 170 0 l 1
 170 310 l 2
 170 443 209 543 287 612 c 0
 364 679 447 712 539 712 c 0
 578 712 640 706 714 658 c 0
 768 622 794 555 794 454 c 0
428 961 m 0
 428 933 455 915 558 915 c 0
 660 915 749 952 812 984 c 1
 773 998 682 1020 617 1020 c 0
 567 1020 428 1008 428 961 c 0
EndSplineSet
EndChar
StartChar: uni0E2F
Encoding: 3631 3631 170
Width: 1410
Flags: W
HStem: 0 21G<877 1188> 488 253<438.723 632.625> 1058 157<248.426 377.107>
VStem: 35 203<916.423 1046.87> 390 161<914.877 1049.56> 877 310<0 624>
Back
1217 1509.5 m 29
 1217 -110.5 l 1
1260 1207.5 m 29
 1260 -412.5 l 1
1411 1327.5 m 29
 1410 -292.5 l 1
1324 1318.5 m 29
 1323 -301.5 l 1
1392 1276.5 m 29
 1391 -343.5 l 1
1310 1149.5 m 29
 1310 -470.5 l 1
EndSplineSet
Fore
238 982 m 0
 238 943 272 909 315 909 c 24
 355 909 390 938 390 982 c 0
 390 1026 356 1058 314 1058 c 0
 270 1058 238 1024 238 982 c 0
877 624 m 1
 850 581 715 488 485 488 c 0
 433 488 336 489 183 594 c 0
 84 663 34 759 34 882 c 2
 35 951 l 2
 38 1126 179 1214 310 1215 c 2
 312 1215 l 2
 503 1215 551 1065 551 968 c 0
 551 845 453 784 369 783 c 1
 384 769 455 741 492 741 c 0
 563 741 752 769 837 1161 c 1
 1187 1081 l 1
 1188 0 l 1
 877 0 l 1
 877 624 l 1
EndSplineSet
EndChar
StartChar: uni0E30
Encoding: 3632 3632 171
Width: 1160
Flags: W
HStem: 28 187<213.602 455.894> 328 128<213.433 328.896> 714 185<219.468 462.978> 1012 129<219.435 335.461>
VStem: 86 131<218.829 326.286 903.496 1008.73> 338 133<255.913 320.535 940.867 1008.8>
Fore
338 954 m 0
 338 982 317 1012 277 1012 c 0
 245 1012 217 988 217 953 c 0
 217 918 248 899 279 899 c 0
 318 899 338 926 338 954 c 0
466 930 m 1
 556 939 793 1019 921 1147 c 1
 970 888 l 1
 816 770 534 714 395 714 c 0
 279 714 86 765 86 967 c 0
 86 1043 178 1141 281 1141 c 0
 390 1141 471 1045 471 961 c 0
 471 946 473 938 477 941 c 1
 474 939 470 935 466 930 c 1
332 270 m 0
 332 305 304 328 270 328 c 0
 239 328 211 304 211 269 c 0
 211 234 242 215 272 215 c 0
 312 215 332 242 332 270 c 0
459 245 m 1
 551 254 787 334 915 462 c 1
 964 203 l 1
 814 89 541 28 383 28 c 0
 206 28 80 129 80 282 c 0
 80 358 172 456 275 456 c 0
 381 456 465 362 465 276 c 0
 465 261 467 254 471 256 c 1
 468 255 468 255 470 256 c 1
 468 255 464 251 459 245 c 1
EndSplineSet
EndChar
StartChar: uni0E31
Encoding: 3633 3633 172
Width: 0
Flags: W
HStem: 1336 176<-531.138 -274.81> 1625 119<-532.217 -416.327>
VStem: -666 131<1516.02 1622.45> -414 133<1543.87 1619.24>
AnchorPoint: "AboveMark" -195 1752 basemark 0
AnchorPoint: "AboveBase" -318 1284 mark 0
Fore
-473 1625 m 0
 -508 1625 -535 1599 -535 1566 c 0
 -535 1531 -505 1512 -474 1512 c 0
 -434 1512 -414 1539 -414 1567 c 0
 -414 1595 -434 1623 -473 1625 c 0
-287 1533 m 1
 -208 1540 44 1605 179 1740 c 1
 218 1491 l 1
 38 1355 -295 1336 -371 1336 c 0
 -571 1336 -666 1467 -666 1575 c 0
 -666 1650 -573 1744 -471 1744 c 0
 -361 1744 -281 1648 -281 1563 c 0
 -281 1549 -279 1541 -275 1544 c 1
 -281 1540 -281 1540 -276 1544 c 1
 -279 1542 -282 1539 -287 1533 c 1
EndSplineSet
EndChar
StartChar: uni0E32
Encoding: 3634 3634 173
Width: 1220
Flags: W
HStem: 990 240<270.848 620.525>
VStem: 722 311<0 888.317>
Fore
441 990 m 0
 666 990 722 862 722 726 c 2
 722 0 l 1
 1033 0 l 1
 1033 780 l 2
 1033 1050 906 1230 441 1230 c 0
 383 1230 217 1238 35 1092 c 1
 78 846 l 1
 172 952 297 990 441 990 c 0
EndSplineSet
EndChar
StartChar: uni0E34
Encoding: 3636 3636 175
Width: 0
Flags: W
HStem: 1430 148<-930 -736.555> 1683 159<-879.018 -568.798>
AnchorPoint: "AboveMark" -284 1841 basemark 0
AnchorPoint: "AboveBase" -186 1288 mark 0
Fore
-480 1536 m 1
 -554 1644 -601 1683 -726 1683 c 0
 -836 1683 -881 1653 -930 1578 c 1
 -886 1578 l 2
 -642 1578 -529 1548 -480 1536 c 1
-939 1430 m 0
 -1056 1430 -1174 1425 -1231 1414 c 1
 -1230 1575 l 1
 -1140 1743 -878 1842 -717 1842 c 0
 -468 1842 -257 1673 -144 1524 c 1
 -180 1326 l 1
 -593 1434 -823 1430 -939 1430 c 0
EndSplineSet
EndChar
StartChar: uni0E35
Encoding: 3637 3637 176
Width: 0
Flags: W
HStem: 1430 148<-930 -736.555> 1683 159<-878.844 -567.785>
VStem: -402 197<1753 1903>
AnchorPoint: "AboveBase" -190 1283 mark 0
AnchorPoint: "AboveMark" -288 1962 basemark 0
Fore
-480 1536 m 1
 -554 1644 -601 1683 -726 1683 c 0
 -836 1683 -881 1653 -930 1578 c 1
 -886 1578 l 2
 -642 1578 -529 1548 -480 1536 c 1
-939 1430 m 0
 -1056 1430 -1174 1425 -1231 1414 c 1
 -1230 1575 l 1
 -1140 1744 -878 1842 -716 1842 c 0
 -611 1842 -506 1812 -402 1753 c 1
 -402 1903 l 1
 -205 1903 l 1
 -205 1596 l 1
 -183 1572 -163 1548 -144 1524 c 1
 -180 1326 l 1
 -593 1434 -823 1430 -939 1430 c 0
EndSplineSet
EndChar
StartChar: uni0E36
Encoding: 3638 3638 177
Width: 0
Flags: W
HStem: 1430 148<-930 -736.555> 1683 159<-879.018 -602.359> 1840 124<-370.488 -237.783>
VStem: -486 110<1770 1833.52> -232 122<1707.19 1834.93>
AnchorPoint: "AboveBase" -187 1284 mark 0
AnchorPoint: "AboveMark" -256.5 2001.5 basemark 0
Fore
-480 1536 m 1xd8
 -554 1644 -601 1683 -726 1683 c 0
 -836 1683 -881 1653 -930 1578 c 1
 -886 1578 l 2
 -642 1578 -529 1548 -480 1536 c 1xd8
-939 1430 m 0
 -1056 1430 -1174 1425 -1231 1414 c 1
 -1230 1575 l 1
 -1140 1743 -878 1842 -717 1842 c 0xd8
 -640 1842 -563 1826 -486 1794 c 1
 -487 1879 -403 1964 -303 1964 c 0xb8
 -191 1964 -110 1877 -110 1774 c 0
 -110 1695 -158 1631 -218 1604 c 1
 -180 1565 -155 1539 -144 1524 c 1
 -180 1326 l 1
 -593 1434 -823 1430 -939 1430 c 0
-302 1840 m 0xb8
 -340 1840 -376 1812 -376 1770 c 0
 -376 1732 -344 1702 -302 1702 c 0
 -261 1702 -232 1733 -232 1770 c 0
 -232 1808 -261 1840 -302 1840 c 0xb8
EndSplineSet
EndChar
StartChar: uni0E37
Encoding: 3639 3639 178
Width: 0
Flags: W
HStem: 1430 148<-930 -736.555> 1683 159<-878.844 -653.049>
VStem: -388 183<1744 1927>
AnchorPoint: "AboveBase" -186 1290 mark 0
AnchorPoint: "AboveMark" -294 1980 basemark 0
Fore
-480 1536 m 1
 -554 1644 -601 1683 -726 1683 c 0
 -836 1683 -881 1653 -930 1578 c 1
 -886 1578 l 2
 -642 1578 -529 1548 -480 1536 c 1
-939 1430 m 0
 -1056 1430 -1174 1425 -1231 1414 c 1
 -1230 1575 l 1
 -1140 1744 -878 1842 -716 1842 c 0
 -695 1842 -673 1841 -651 1838 c 1
 -650 1928 l 1
 -455 1928 l 1
 -455 1780 l 1
 -433 1770 -410 1758 -388 1744 c 1
 -387 1927 l 1
 -204 1927 l 1
 -205 1595 l 1
 -183 1572 -163 1548 -144 1524 c 1
 -180 1326 l 1
 -593 1434 -823 1430 -939 1430 c 0
EndSplineSet
EndChar
StartChar: uni0E38
Encoding: 3640 3640 179
Width: 0
Flags: W
HStem: -412 102<-488.02 -389.972> -204 126<-487.603 -381.595>
VStem: -589 99<-307.967 -207.055>
AnchorPoint: "BelowBase" -133.5 -85.5 mark 0
Fore
-589 -254 m 0
 -589 -176 -538 -78 -406 -78 c 0
 -252 -78 -135 -211 -130 -378 c 2
 -128 -512 l 1
 -386 -512 l 1
 -386 -405 l 1
 -396 -410 -412 -412 -435 -412 c 0
 -509 -411 -589 -339 -589 -254 c 0
-378 -257 m 0
 -378 -228 -401 -204 -433 -204 c 24
 -465 -204 -490 -227 -490 -256 c 0
 -490 -286 -465 -310 -433 -310 c 0
 -402 -310 -378 -286 -378 -257 c 0
EndSplineSet
EndChar
StartChar: uni0E39
Encoding: 3641 3641 180
Width: 0
Flags: W
HStem: -560 152<-524 -442> -404 102<-882.367 -783.972> -196 126<-881.951 -775.595>
VStem: -988 104<-300.167 -198.87> -442 262<-409 -76>
AnchorPoint: "BelowBase" -133.5 -85.5 mark 0
Fore
-988 -246 m 0
 -988 -167 -932 -70 -800 -70 c 0
 -646 -70 -529 -203 -524 -370 c 2
 -524 -408 l 1
 -442 -409 l 1
 -438 -76 l 1
 -180 -76 l 1
 -180 -560 l 1
 -780 -560 l 1
 -780 -397 l 1
 -790 -402 -806 -404 -829 -404 c 0
 -903 -403 -988 -332 -988 -246 c 0
-772 -249 m 0
 -772 -220 -795 -196 -827 -196 c 24
 -859 -196 -884 -219 -884 -248 c 0
 -884 -278 -859 -302 -827 -302 c 0
 -796 -302 -772 -278 -772 -249 c 0
EndSplineSet
EndChar
StartChar: uni0E3A
Encoding: 3642 3642 181
Width: 0
Flags: W
HStem: -433 330<-385.986 -165.108>
VStem: -439 328<-379.289 -157.108>
AnchorPoint: "BelowBase" -158 -108 mark 0
Fore
-439 -268 m 0
 -439 -176 -367 -103 -276 -103 c 24
 -184 -103 -111 -177 -111 -268 c 0
 -111 -360 -185 -433 -276 -433 c 0
 -371 -433 -439 -356 -439 -268 c 0
EndSplineSet
EndChar
StartChar: uni0E3F
Encoding: 3647 3647 182
Width: 1561
Flags: W
VStem: 188 385<262 653 915 1231> 666 194<-136 0 266 649 922 1222 1493 1593> 1032 385<329.126 587.076>
Fore
1417 428 m 0
 1417 117 1190 7 860 0 c 1
 860 -136 l 1
 666 -136 l 1
 666 0 l 1
 188 0 l 1
 188 1493 l 1
 666 1493 l 1
 666 1593 l 1
 860 1593 l 1
 860 1491 l 1
 1156 1476 1356 1386 1356 1098 c 0
 1356 942 1277 845 1157 799 c 1
 1314 753 1417 625 1417 428 c 0
860 922 m 17
 890 937 971 953 971 1073 c 0
 971 1157 927 1206 860 1222 c 1
 860 922 l 17
860 266 m 1
 922 273 1032 305 1032 459 c 0
 1032 575 968 635 860 649 c 1
 860 266 l 1
666 262 m 1
 666 653 l 1
 573 653 l 1
 573 262 l 1
 666 262 l 1
667 915 m 1
 667 1231 l 1
 573 1231 l 1
 573 915 l 1
 667 915 l 1
860 1222 m 0
860 266 m 0
860 649 m 0
EndSplineSet
EndChar
StartChar: uni0E40
Encoding: 3648 3648 183
Width: 850
Flags: W
HStem: -11 207<460.508 596.621> 345 178<490.018 597.313> 1186 20G<182 490>
VStem: 182 308<523 1206> 604 206<203.246 338.136>
Fore
503 -11 m 0
 386 -11 182 44 182 347 c 2
 182 1206 l 1
 490 1206 l 1
 490 523 l 1
 530 523 l 2
 633 523 705 494 746 440 c 0
 789 384 810 326 810 265 c 0
 810 92 659 -11 503 -11 c 0
604 272 m 0
 604 311 572 345 529 345 c 24
 485 345 452 312 452 272 c 0
 452 232 484 196 528 196 c 0
 573 196 604 232 604 272 c 0
EndSplineSet
EndChar
StartChar: uni0E41
Encoding: 3649 3649 184
Width: 1570
Flags: W
HStem: -10 206<460.475 595.142 1180.48 1315.14> 345 178<490.018 597.313 1210.02 1317.31> 1186 20G<182 490 902 1210>
VStem: 182 308<523 1206> 604 206<204.99 338.136> 902 308<523 1206> 1324 206<204.99 338.136>
Back
258 282 m 4
 258 360 285.5 426.5 340.5 481.5 c 0
 395.5 536.5 462 564 540 564 c 0
 618 564 684.5 536.5 739.5 481.5 c 0
 794.5 426.5 822 360 822 282 c 0
 822 204 794.5 137.5 739.5 82.5 c 0
 684.5 27.5 618 0 540 0 c 0
 462 0 395.5 27.5 340.5 82.5 c 0
 285.5 137.5 258 204 258 282 c 4
461 282 m 0
 461 303.333 468.667 321.667 484 337 c 0
 499.333 352.333 517.667 360 539 360 c 0
 560.333 360 578.667 352.333 594 337 c 0
 609.333 321.667 617 303.333 617 282 c 0
 617 260.667 609.333 242.333 594 227 c 0
 578.667 211.667 560.333 204 539 204 c 0
 517.667 204 499.333 211.667 484 227 c 0
 468.667 242.333 461 260.667 461 282 c 0
EndSplineSet
Fore
1530 265 m 0
 1530 104 1397 -10 1218 -10 c 0
 1130 -10 1058 17 994 77 c 0
 932 134 902 224 902 347 c 2
 902 1206 l 1
 1210 1206 l 1
 1210 523 l 1
 1250 523 l 2
 1353 523 1425 494 1466 440 c 0
 1509 384 1530 326 1530 265 c 0
1324 272 m 0
 1324 311 1292 345 1249 345 c 24
 1205 345 1172 312 1172 272 c 0
 1172 232 1204 196 1248 196 c 0
 1293 196 1324 232 1324 272 c 0
810 265 m 0
 810 104 677 -10 498 -10 c 0
 410 -10 338 17 274 77 c 0
 212 134 182 224 182 347 c 2
 182 1206 l 1
 490 1206 l 1
 490 523 l 1
 530 523 l 2
 633 523 705 494 746 440 c 0
 789 384 810 326 810 265 c 0
604 272 m 0
 604 311 572 345 529 345 c 24
 485 345 452 312 452 272 c 0
 452 232 484 196 528 196 c 0
 573 196 604 232 604 272 c 0
EndSplineSet
EndChar
StartChar: uni0E42
Encoding: 3650 3650 185
Width: 1090
Flags: W
HStem: -10 206<704.809 838.153> 345 178<731.418 840.326> 1817 241<264.352 716.423>
VStem: 424 307<523 1472.12> 847 206<204.604 338.136>
Fore
847 272 m 0
 847 311 815 345 772 345 c 24
 728 345 695 312 695 272 c 0
 695 232 727 196 772 196 c 0
 816 196 847 232 847 272 c 0
775 1691 m 1
 746 1799 621 1817 527 1817 c 0
 382 1817 306 1793 258 1771 c 1
 582 1661 l 2
 680 1628 731 1537 731 1389 c 2
 731 523 l 1
 773 523 l 2
 876 523 948 494 990 440 c 0
 1032 384 1053 326 1053 265 c 0
 1053 104 920 -10 741 -10 c 0
 559 -10 424 114 424 331 c 2
 424 1388 l 2
 424 1450 373 1495 270 1524 c 2
 -56 1615 l 1
 -56 1921 l 1
 60 1969 291 2058 523 2058 c 0
 722 2058 867 2023 958 1954 c 1
 775 1691 l 1
EndSplineSet
EndChar
StartChar: uni0E43
Encoding: 3651 3651 186
Width: 1040
Flags: W
HStem: -10 206<604.727 738.153> 345 178<631.418 740.326> 1408 160<117.592 254.678>
VStem: -54 163<1577.12 1705.34> 262 168<1576.26 1710.91> 324 307<523 1263.28> 516 312<1516.7 1732.59> 747 206<204.604 338.136>
Fore
747 272 m 0xf1
 747 311 715 345 672 345 c 24
 628 345 595 312 595 272 c 0
 595 232 627 196 672 196 c 0
 716 196 747 232 747 272 c 0xf1
-54 1663 m 0
 -54 1943 195 2052 381 2052 c 0
 507 2052 611 2011 695 1925 c 0
 774 1843 828 1741 828 1618 c 0xfa
 828 1534 789 1454 760 1406 c 2
 700 1310 l 2
 667 1255 631 1169 631 1074 c 2
 631 523 l 1
 673 523 l 2
 776 523 848 494 890 440 c 0
 932 384 953 326 953 265 c 0
 953 104 820 -10 641 -10 c 0
 458 -10 324 115 324 331 c 2
 324 1142 l 2xf5
 324 1226 359 1304 392 1352 c 2
 446 1432 l 2
 507 1516 516 1576 516 1612 c 0
 516 1689 464 1776 354 1804 c 1
 414 1768 430 1721 430 1634 c 0xfa
 430 1524 341 1408 187 1408 c 0
 67 1408 -54 1482 -54 1663 c 0
262 1643 m 0
 262 1688 226 1717 188 1717 c 0
 146 1717 109 1687 109 1641 c 0
 109 1601 143 1568 186 1568 c 0
 231 1568 262 1605 262 1643 c 0
EndSplineSet
EndChar
StartChar: uni0E44
Encoding: 3652 3652 187
Width: 1100
Flags: W
HStem: -11 207<692.722 829.825> 345 178<721.418 830.326>
VStem: 414 307<523 1150.39> 558 320<1452.27 1672> 837 206<202.86 338.136>
Fore
837 272 m 0xc8
 837 311 805 345 762 345 c 24
 718 345 685 312 685 272 c 0
 685 232 717 196 762 196 c 0
 806 196 837 232 837 272 c 0xc8
736 -11 m 0
 613 -11 414 58 414 331 c 2
 414 1092 l 2xe8
 414 1181 436 1276 465 1344 c 2
 505 1434 l 2
 525 1477 558 1564 558 1624 c 2
 556 1672 l 1
 453 1661 382 1522 356 1424 c 1
 104 1424 l 1
 64 1623 -51 1804 -152 1856 c 1
 -108 2064 l 1
 -29 2010 195 1844 240 1700 c 1
 298 1887 485 1972 556 1972 c 2
 774 1972 l 2
 806 1972 878 1864 878 1792 c 2
 878 1628 l 2xd0
 878 1529 853 1442 823 1380 c 2
 777 1288 l 2
 721 1179 721 1113 721 1088 c 2
 721 523 l 1xe0
 763 523 l 2
 866 523 938 494 980 440 c 0
 1022 384 1043 326 1043 265 c 0
 1043 92 893 -11 736 -11 c 0
EndSplineSet
EndChar
StartChar: uni0E45
Encoding: 3653 3653 188
Width: 1210
Flags: W
HStem: 990 240<120.848 470.525>
VStem: 572 311<-410 888.317>
Fore
291 990 m 0
 516 990 572 862 572 726 c 2
 572 -410 l 1
 883 -410 l 1
 883 780 l 2
 883 1050 756 1230 291 1230 c 0
 233 1230 67 1238 -115 1092 c 1
 -72 846 l 1
 22 952 147 990 291 990 c 0
EndSplineSet
EndChar
StartChar: uni0E46
Encoding: 3654 3654 189
Width: 1460
Flags: W
HStem: 436 165<286.09 430.864> 1204 20G<396.5 490 772.926 934>
VStem: 95 182<608.871 883.992> 438 170<609.934 743.785> 940 310<-411 894.716>
Fore
802 1224 m 1
 1066 1209 1250 1009 1250 780 c 2
 1250 -411 l 1
 941 -411 l 1
 940 764 l 2
 940 856 894 929 802 984 c 1
 642 896 l 1
 468 992 l 1
 428 976 400 953 384 924 c 1
 521 907 608 799 608 692 c 0
 608 520 466 436 356 436 c 0
 239.617 436 95 513.985 95 733 c 0
 95 1022 303 1205 490 1224 c 1
 490 1221 542 1185 645 1116 c 1
 802 1224 l 1
277 675 m 0
 277 633 314 601 359 601 c 0
 401 601 438 632 438 678 c 0
 438 720 402 754 357 754 c 0
 315 754 277 722 277 675 c 0
EndSplineSet
EndChar
StartChar: uni0E47
Encoding: 3655 3655 190
Width: 0
Flags: W
HStem: 1302 110<-405.763 -307.131> 1391 61<-599 -485> 1514 76<-406.885 -306.85> 1613 117<-702.351 -278.785>
VStem: -868 129<1448.36 1573.61> -486 78<1453.23 1513.22> -306 78<1412.34 1513.45>
AnchorPoint: "AboveMark" -525 1293 mark 0
AnchorPoint: "AboveBase" -152 1293 mark 0
Fore
-306 1464 m 0xbe
 -306 1493 -329 1514 -355 1514 c 24
 -386 1514 -408 1491 -408 1463 c 0
 -408 1432 -383 1412 -354 1412 c 0
 -328 1412 -306 1435 -306 1464 c 0xbe
-495 1730 m 0
 -362 1730 -250 1751 -222 1853 c 1
 -154 1734 l 1
 -211 1639 -331 1613 -493 1613 c 0
 -505 1613 -515 1613 -524 1614 c 0
 -619 1614 -739 1591 -739 1498 c 0
 -739 1472 -732 1446 -713 1434 c 1
 -708 1452 -693 1525 -615 1525 c 0
 -612 1525 l 0
 -569 1525 -522 1452 -485 1452 c 1x7e
 -486 1456 -486 1457 -486 1458 c 2
 -484 1478 l 2
 -484 1545 -428 1590 -362 1590 c 0
 -309 1590 -228 1565 -228 1464 c 0
 -228 1402 -274 1302 -399 1302 c 0xbe
 -506 1302 -556 1391 -599 1391 c 0x7e
 -641 1391 -631 1315 -640 1303 c 1
 -766 1303 -868 1345 -868 1511 c 0
 -868 1689 -645 1733 -542 1733 c 0
 -514 1733 -523 1730 -495 1730 c 0
EndSplineSet
EndChar
StartChar: uni0E48
Encoding: 3656 3656 191
Width: 0
Flags: W
VStem: -422 212<1822 2178>
AnchorPoint: "AboveMark" -268 1746 mark 0
Fore
-422 2178 m 29
 -210 2178 l 5
 -210 1822 l 1
 -422 1822 l 1
 -422 2178 l 29
EndSplineSet
Substitution2: "Single Substitution lookup 7" uni0E48.low
MultipleSubs2: "Multiple Substitution lookup 6" uni0E4D uni0E48
EndChar
StartChar: uni0E49
Encoding: 3657 3657 192
Width: 0
Flags: W
HStem: 1934 80<-521.905 -473> 2128 88<-521.682 -404.519>
VStem: -605 81<2016.5 2125.19> -403 102<2017.07 2126.24>
AnchorPoint: "AboveMark" -274 1734 mark 0
Fore
-605 2080 m 0
 -605 2158 -524 2216 -457 2216 c 0
 -356 2216 -301 2132 -301 2064 c 0
 -301 2016 -317 1971 -349 1928 c 1
 -253 1945 -154 2031 -53 2184 c 1
 62 2042 l 1
 -86 1852 -330 1764 -562 1764 c 2
 -573 1764 l 1
 -571 1896 l 1
 -505 1902 -504 1901 -473 1934 c 1
 -482 1934 l 0
 -525 1934 -605 1968 -605 2080 c 0
-524 2069 m 0
 -524 2039 -498 2014 -465 2014 c 24
 -432 2014 -403 2038 -403 2074 c 0
 -403 2104 -430 2128 -462 2128 c 0
 -495 2128 -524 2105 -524 2069 c 0
EndSplineSet
Substitution2: "Single Substitution lookup 7" uni0E49.low
MultipleSubs2: "Multiple Substitution lookup 6" uni0E4D uni0E49
EndChar
StartChar: uni0E4A
Encoding: 3658 3658 193
Width: 0
Flags: W
HStem: 1827 85<-654.718 -549.158> 2010 66<-649.903 -550.638>
VStem: -784 128<1912.82 2008.29> -549 71<1913.6 2008.74> -348 137<1992.08 2094.48>
AnchorPoint: "AboveMark" -458 1730 mark 0
Fore
-604 1912 m 0
 -574 1912 -549 1931 -549 1958 c 24
 -549 1989 -574 2010 -602 2010 c 0
 -633 2010 -656 1984 -656 1956 c 0
 -656 1930 -632 1912 -604 1912 c 0
-392 1936 m 1
 -350 1976 -348 2002 -348 2030 c 0
 -348 2071 -361 2100 -386 2118 c 1
 -488 2050 l 1
 -600 2116 l 1
 -635 2085 -632 2090 -650 2058 c 1
 -652 2078 -643 2076 -602 2076 c 0
 -529 2075 -478 2018 -478 1962 c 0
 -478 1899 -520 1827 -605 1827 c 0
 -691 1827 -784 1899 -784 1994 c 0
 -784 2063 -748 2181 -612 2230 c 1
 -486 2152 l 1
 -376 2232 l 1
 -282 2200 -211 2108 -211 2031 c 0
 -211 2006 -219 1983 -236 1964 c 2
 -265 1931 l 1
 -184 1960 -118 2124 -96 2227 c 1
 48 2118 l 1
 28 2009 -138 1831 -326 1828 c 1
 -392 1936 l 1
EndSplineSet
Substitution2: "Single Substitution lookup 7" uni0E4A.low
MultipleSubs2: "Multiple Substitution lookup 6" uni0E4D uni0E4A
EndChar
StartChar: uni0E4B
Encoding: 3659 3659 194
Width: 0
Flags: W
HStem: 1964 179<-625 -488 -300 -163>
VStem: -488 188<1827 1963 2143 2279>
AnchorPoint: "AboveMark" -377 1732 mark 0
Fore
-163 1964 m 1
 -300 1964 l 1
 -300 1827 l 1
 -488 1827 l 1
 -488 1963 l 1
 -625 1963 l 1
 -625 2142 l 1
 -488 2142 l 1
 -488 2279 l 1
 -300 2280 l 1
 -300 2143 l 1
 -163 2143 l 1
 -163 1964 l 1
EndSplineSet
Substitution2: "Single Substitution lookup 7" uni0E4B.low
MultipleSubs2: "Multiple Substitution lookup 6" uni0E4D uni0E4B
EndChar
StartChar: uni0E4C
Encoding: 3660 3660 195
Width: 0
Flags: W
HStem: 1818 110<-523.131 -399.316>
VStem: -658 130<1933.09 2057.27> -394 122<1932.62 2050.66>
AnchorPoint: "AboveBase" -460 1750 mark 0
Fore
-460 1818 m 0
 -605 1818 -658 1927 -658 2002 c 0
 -658 2098 -586 2193 -460 2210 c 0
 -406 2218 -76 2222 16 2282 c 1
 42 2120 l 1
 -4 2093 -52 2085 -130 2085 c 0
 -180 2085 -218 2090 -256 2090 c 0
 -270 2090 -281 2089 -290 2088 c 1
 -273 2064 -272 2040 -272 1993 c 0
 -272 1927 -335 1818 -460 1818 c 0
-394 1994 m 0
 -394 2033 -422 2064 -458 2064 c 24
 -496 2064 -528 2033 -528 1992 c 0
 -528 1956 -497 1928 -458 1928 c 0
 -420 1928 -394 1959 -394 1994 c 0
EndSplineSet
Substitution2: "Single Substitution lookup 7" uni0E4C.low
MultipleSubs2: "Multiple Substitution lookup 6" uni0E4D uni0E4C
EndChar
StartChar: uni0E4D
Encoding: 3661 3661 196
Width: 0
Flags: W
HStem: 1336 180<-485.889 -324.959> 1708 180<-483.041 -322.111>
VStem: -680 180<1532.96 1693.89> -308 180<1530.11 1691.04>
AnchorPoint: "AboveMark" -391.5 2003 basemark 0
AnchorPoint: "AboveBase" -205.5 1319 mark 0
Fore
-404 1336 m 0
 -556 1336 -680 1457 -680 1612 c 0
 -680 1764 -559 1888 -404 1888 c 0
 -252 1888 -128 1767 -128 1612 c 0
 -128 1460 -249 1336 -404 1336 c 0
-404 1708 m 0
 -460 1708 -500 1664 -500 1612 c 0
 -500 1556 -456 1516 -404 1516 c 0
 -348 1516 -308 1560 -308 1612 c 0
 -308 1668 -352 1708 -404 1708 c 0
EndSplineSet
Substitution2: "Single Substitution lookup 5" uni0E4D.high
EndChar
StartChar: uni0E4E
Encoding: 3662 3662 197
Width: 0
Flags: W
HStem: 1256 149<-360.101 -285 -285 -132> 1538 132<-387.069 -165> 1797 144<-388.681 -190.789>
VStem: -604 192<1413.1 1518.09> -577 184<1686.34 1785.54>
AnchorPoint: "AboveBase" -140 1227 mark 0
Fore
-412 1471 m 0xf0
 -412 1408 -356 1405 -266 1405 c 0
 -239 1405 -253 1406 -132 1406 c 1
 -132 1256 l 1
 -285 1256 l 0
 -540 1256 -604 1334 -604 1450 c 0xf0
 -604 1514 -527 1588 -470 1602 c 1
 -496 1615 -577 1663 -577 1755 c 0
 -577 1884 -438 1941 -295 1941 c 0
 -256 1941 -175 1937 -99 1918 c 1
 -98 1773 l 1
 -161 1789 -217 1797 -266 1797 c 0
 -351 1797 -393 1777 -393 1738 c 0xe8
 -393 1693 -340 1670 -234 1670 c 2
 -164 1670 l 1
 -165 1538 l 1
 -230 1538 l 2
 -382 1538 -412 1498 -412 1471 c 0xf0
EndSplineSet
EndChar
StartChar: uni0E4F
Encoding: 3663 3663 198
Width: 1310
Flags: W
HStem: -1 198<484.18 826.914> 290 156<557.458 746.446> 677 156<559.108 747.761> 933 198<484.964 826.241>
VStem: 87 198<388.842 732.765> 374 156<474.33 648.952> 773 156<471.543 649.194> 1023 198<388.368 729.089>
Fore
773 557 m 0
 773 632 716 677 653 677 c 24
 585 677 530 625 530 560 c 0
 530 493 591 446 656 446 c 0
 722 446 773 497 773 557 c 0
285 561 m 0
 285 357 452 197 655 197 c 0
 860 197 1023 355 1023 558 c 0
 1023 767 858 933 656 933 c 0
 440 933 285 757 285 561 c 0
659 -1 m 0
 343 -1 90 250 87 557 c 24
 87 884 350 1131 652 1131 c 0
 968 1131 1221 872 1221 561 c 2
 1221 556 l 2
 1221 243 960 -1 659 -1 c 0
656 290 m 0
 499 290 374 411 374 562 c 0
 374 708 495 833 653 833 c 0
 804 833 929 715 929 560 c 2
 929 557 l 2
 929 410 809 290 656 290 c 0
EndSplineSet
EndChar
StartChar: uni0E50
Encoding: 3664 3664 199
Width: 1330
Flags: W
HStem: 0 263<508.49 822.812> 802 263<509.166 828.832>
VStem: 108 264<390.559 670.594> 959 263<397.568 680.291>
Fore
1222 535 m 0
 1222 240 973 0 670 0 c 24
 382 0 108 219 108 534 c 0
 108 834 365 1065 675 1065 c 0
 975 1065 1222 827 1222 535 c 0
676 802 m 0
 505 802 372 681 372 533 c 0
 372 371 512 263 668 263 c 0
 830 264 958 383 959 536 c 0
 959 686 831 802 676 802 c 0
EndSplineSet
EndChar
StartChar: uni0E51
Encoding: 3665 3665 200
Width: 1400
Flags: W
HStem: -160 177<692 790.45> 117 238<459.302 713.269> 500 131<608.682 741.735> 808 258<500.233 871.429>
VStem: 102 269<401.136 688.118> 472 131<373.975 494.033> 748 131<360.89 493.836> 1031 268<285.503 643.019>
Back
538.275 -12 m 4
 441.949 -12 362.147 -3.2484 298.869 14.2548 c 132
 235.592 31.7581 170.404 58.8893 103.306 95.6484 c 5
 126 294 l 5
 174.255 256.779 236.952 227.987 314.09 207.624 c 132
 391.229 187.26 465.107 177.19 535.724 177.413 c 4
 608.786 180.42 677.684 197.516 742.417 228.699 c 132
 807.15 259.882 859.44 301.587 899.287 353.814 c 132
 939.133 406.041 959.371 462.103 960 522 c 4
 960.503 569.848 952.396 615.215 935.679 658.102 c 132
 918.962 700.989 895.158 738.714 864.266 771.278 c 132
 833.375 803.842 794.152 829.497 746.599 848.243 c 132
 699.046 866.989 646.612 875.929 589.297 875.062 c 4
 513.795 872.069 449.445 848.332 396.248 803.85 c 132
 343.05 759.368 311.664 700.012 302.09 625.783 c 4
 302.069 596.466 306.492 569.33 315.361 544.375 c 132
 324.23 519.421 335.907 498.614 350.393 481.954 c 132
 364.879 465.293 381.283 450.975 399.606 439 c 132
 417.929 427.025 436.606 418.477 455.638 413.357 c 132
 474.67 408.238 493.089 405.68 510.895 405.684 c 132
 528.702 405.689 544.403 408.461 558 414 c 5
 516.823 420.588 480.936 439.412 450.339 470.473 c 132
 419.741 501.534 404.442 540.957 404.442 588.743 c 4
 404.442 620.923 411.354 652.172 425.177 682.491 c 132
 439 712.81 460.601 738.642 489.979 759.985 c 132
 519.358 781.328 553.198 792 591.5 792 c 4
 632.379 792 669.666 784.226 703.361 768.679 c 132
 737.056 753.131 764.387 732.598 785.354 707.081 c 132
 806.321 681.564 822.303 653.009 833.3 621.417 c 132
 844.297 589.825 849.31 557.45 848.34 524.293 c 4
 847.431 493.206 839.432 461.814 824.344 430.118 c 132
 809.257 398.423 788.492 369.097 762.049 342.141 c 132
 735.606 315.185 701.566 293.215 659.928 276.23 c 132
 618.29 259.245 573.062 250.753 524.243 250.753 c 4
 463.336 250.753 405.616 259.074 351.085 275.715 c 132
 296.554 292.356 247.843 316.372 204.952 347.763 c 132
 162.061 379.154 128.02 419.91 102.827 470.031 c 132
 77.6344 520.152 65.0381 576.313 65.0381 638.516 c 4
 65.0381 701 79.7291 759.416 109.111 813.764 c 132
 138.493 868.111 177.673 913.728 226.651 950.614 c 132
 275.63 987.498 332.277 1016.47 396.593 1037.53 c 132
 460.908 1058.58 527.694 1069.11 596.951 1069.11 c 4
 636.544 1069.11 676.141 1066.26 715.744 1060.55 c 132
 755.347 1054.84 795.671 1045.42 836.717 1032.31 c 132
 877.762 1019.19 916.474 1002.88 952.853 983.381 c 132
 989.231 963.882 1023.41 939.37 1055.39 909.846 c 132
 1087.36 880.322 1114.71 847.336 1137.42 810.888 c 132
 1160.13 774.44 1177.72 731.672 1190.19 682.583 c 132
 1202.65 633.495 1208.14 580.608 1206.67 523.923 c 4
 1205.22 468.119 1195.97 415.907 1178.94 367.286 c 132
 1161.91 318.665 1139.62 276.514 1112.07 240.831 c 132
 1084.52 205.149 1052.29 172.756 1015.39 143.651 c 132
 978.482 114.547 939.984 90.5106 899.896 71.5423 c 132
 859.807 52.574 818.116 36.6655 774.823 23.8169 c 132
 731.53 10.9683 690.312 1.78672 651.17 -3.72797 c 132
 612.029 -9.24266 574.397 -12 538.275 -12 c 4
525.968 591.058 m 28
 526.334 570.613 533.976 553.309 548.895 539.148 c 132
 563.814 524.987 581.533 518.14 602.054 518.608 c 4
 623.222 519.091 641.288 526.677 656.251 541.366 c 132
 671.214 556.055 678.51 573.776 678.139 594.53 c 4
 677.788 614.104 669.775 630.226 654.098 642.897 c 132
 638.421 655.568 620.223 661.666 599.502 661.193 c 4
 579.261 660.731 561.859 653.784 547.294 640.353 c 132
 532.729 626.922 525.62 610.49 525.968 591.058 c 28
EndSplineSet
Fore
696 808 m 0
 947 808 1031 608 1031 480 c 0
 1031 357 990 91 569 17 c 1
 692 -160 l 1
 888 -141 1299 -31 1299 483 c 0
 1299 759 1127 1066 712 1066 c 0
 212 1066 102 724 102 507 c 0
 102 195 367 117 498 117 c 0
 802 117 879 312 879 425 c 0
 879 557 777 631 676 631 c 0
 558 631 472 537 472 431 c 0
 472 401 477 377 485 356 c 1
 422 377 371 429 371 545 c 0
 371 650 429 808 696 808 c 0
676 355 m 0
 638 355 603 385 603 427 c 0
 603 465 632 500 675 500 c 0
 719 500 748 465 748 427 c 0
 748 389 717 355 676 355 c 0
EndSplineSet
EndChar
StartChar: uni0E52
Encoding: 3666 3666 201
Width: 1600
Flags: W
HStem: 0 234<412 1131.05> 310 132<756.054 887.177> 586 132<774.826 887.364> 1050 20G<702 831.28 1102.09 1296.5> 1445 20G<184.935 325>
VStem: 161 269<292.118 951.955> 520 229<448.603 701.331> 893 132<447.636 580.177> 1202 276<305.803 790.979>
Fore
122 0 m 1
 135 104 161 404 161 725 c 0
 161 996 112 1186 28 1296 c 1
 206 1465 l 1
 444 1255 430 695 430 519 c 0
 430 418 424 323 412 234 c 1
 1062 234 l 2
 1107 234 1202 256 1202 616 c 0
 1202 737 1174 805 1118 820 c 1
 962 743 l 1
 808 824 l 1
 782 800 767 760 763 704 c 1
 786 713 805 718 821 718 c 0
 935 718 1025 627 1025 514 c 0
 1025 400 934 310 821 310 c 0
 580 310 520 497 520 595 c 0
 520 839 611 998 793 1070 c 1
 971 977 l 1
 1138 1070 l 1
 1455 1031 1478 751 1478 568 c 0
 1478 189 1337 -0 1071 0 c 2
 122 0 l 1
821 586 m 0
 778 586 749 552 749 514 c 0
 749 471 783 442 821 442 c 0
 864 442 893 476 893 514 c 0
 893 557 859 586 821 586 c 0
EndSplineSet
EndChar
StartChar: uni0E53
Encoding: 3667 3667 202
Width: 1600
Flags: W
HStem: -16 132<529.793 652.662> 260 132<519.676 652.177> 813 249<481.427 650.129 987.268 1129.81>
VStem: 134 287<346.629 686.565> 658 132<121.242 254.364> 681 279<486 791.431> 1170 286<230.221 773.647>
Fore
790 188 m 0xfa
 790 302 699 392 586 392 c 0
 523 392 472 372 432 332 c 1
 425 333 421 389 421 499 c 0
 421 515 415 683 466 752 c 0
 495 792 536 813 586 813 c 0
 649 813 681 741 681 597 c 2
 681 486 l 9
 960 486 l 17
 960 597 l 2xf6
 960 758 995 813 1048 813 c 0
 1121 813 1170 751 1170 558 c 0
 1170 391 1136 202 1038 -6 c 1
 1298 -6 l 1
 1434 172 1456 409 1456 577 c 0
 1456 700 1426 810 1364 909 c 0
 1302 1010 1196 1062 1053 1062 c 0
 941 1062 863 1015 818 922 c 1
 777 1006 701 1062 569 1062 c 0
 395 1062 134 962 134 517 c 0
 134 248 262 83 350 36 c 0
 433 -8 549 -16 591 -16 c 0
 695 -16 790 72 790 188 c 0xfa
586 116 m 0
 543 116 514 150 514 188 c 0
 514 231 548 260 586 260 c 0
 629 260 658 226 658 188 c 0xfa
 658 145 624 116 586 116 c 0
EndSplineSet
EndChar
StartChar: uni0E54
Encoding: 3668 3668 203
Width: 1600
Flags: W
HStem: -1 226<512.65 738.6> 0 240<1110.31 1401> 584 132<751.994 884.527> 831 236<600.033 991.081> 1208 20G<1497 1545>
VStem: 124 274<347.773 658.805> 603 143<445.274 576.333> 890 132<445.993 578.416>
Fore
831 831 m 0xbf
 515 831 398 653 398 509 c 0
 398 347 500 225 653 225 c 0xbf
 689 225 730 230 778 240 c 1
 650 307 603 387 603 486 c 0
 603 635 721 716 818 716 c 0
 921 716 1022 638 1022 503 c 0
 1022 443 1004 391 961 354 c 1
 1040 286 1187 248 1401 240 c 1
 1401 0 l 1x7f
 1250 11 1122 35 1015 72 c 1
 967 24 735 -1 653 -1 c 0
 443 -1 124 101 124 507 c 0
 124 676 176 786 302 904 c 0
 421 1009 603 1063 850 1067 c 0
 1288 1074 1449 1146 1545 1228 c 1
 1545 978 l 1
 1320 831 870 831 831 831 c 0xbf
818 584 m 0
 775 584 746 550 746 512 c 0
 746 469 780 440 818 440 c 0
 861 440 890 474 890 512 c 0
 890 555 856 584 818 584 c 0
EndSplineSet
EndChar
StartChar: uni0E55
Encoding: 3669 3669 204
Width: 1600
Flags: W
HStem: -1 226<511.876 738.6> 0 240<1110.31 1401> 584 132<751.994 884.527> 831 236<861 991.081> 1208 20G<1498 1545> 1273 144<568.004 727.088>
VStem: 124 274<342.275 658.104> 407 144<1095.71 1257.09> 603 143<445.223 576.333> 743 144<1108.98 1256> 890 132<445.993 578.416>
Fore
647 1273 m 0x3f60
 591 1273 551 1229 551 1177 c 0
 551 1121 595 1081 647 1081 c 0
 703 1081 743 1125 743 1177 c 0
 743 1233 699 1273 647 1273 c 0x3f60
647 1417 m 0
 783 1417 887 1308 887 1177 c 0
 887 1137 878 1100 861 1067 c 1
 1298 1076 1451 1147 1545 1228 c 1
 1545 978 l 1
 1320 831 870 831 831 831 c 0
 504 831 398 640 398 512 c 0
 398 345 500 225 653 225 c 0xbf60
 689 225 730 230 778 240 c 1
 655 305 603 387 603 486 c 0
 603 635 721 716 818 716 c 0
 921 716 1022 638 1022 503 c 0
 1022 443 1004 391 961 354 c 1
 1040 286 1187 248 1401 240 c 1
 1401 0 l 1x7fa0
 1250 11 1122 35 1015 72 c 1
 967 24 735 -1 653 -1 c 0xbfa0
 439 -1 124 101 124 514 c 0
 124 638 150 769 244 868 c 0
 320 948 398 995 478 1008 c 1
 431 1055 407 1111 407 1177 c 0
 407 1313 516 1417 647 1417 c 0
818 584 m 0
 775 584 746 550 746 512 c 0x3fa0
 746 469 780 440 818 440 c 0
 861 440 890 474 890 512 c 0
 890 555 856 584 818 584 c 0
EndSplineSet
EndChar
StartChar: uni0E56
Encoding: 3670 3670 205
Width: 1380
Flags: W
HStem: -0 236<642 836.035> 454 128<372.578 524.799> 830 242<425.13 803.07> 1433 20G<20.1311 101.5>
VStem: 216 142<295.622 441.766> 538 140<306.971 441.233> 988 267<366.124 667.35>
Fore
446 582 m 0
 567 582 678 492 678 371 c 0
 678 330 676 254 642 236 c 1
 814 242 988 296 988 535 c 0
 988 637 897 830 579 830 c 0
 440 830 319 793 222 720 c 1
 211 939 123 1128 -12 1209 c 1
 23 1453 l 1
 180 1407 340 1251 359 1032 c 1
 435 1059 516 1072 604 1072 c 0
 895 1072 1255 961 1255 516 c 0
 1255 237 1029 -0 658 -0 c 0
 363 0 216 171 216 335 c 0
 216 481 312 582 446 582 c 0
358 363 m 0
 358 324 394 283 451 283 c 0
 503 283 538 324 538 368 c 0
 538 413 501 454 445 454 c 0
 395 454 358 412 358 363 c 0
EndSplineSet
EndChar
StartChar: uni0E57
Encoding: 3671 3671 206
Width: 1800
Flags: W
HStem: -16 132<500.343 621.133> 260 132<489.669 622.171> 813 249<430.93 578.649 901.282 1045.75>
VStem: 104 277<357.118 762.098> 611 259<486 784.359> 628 132<121.963 254.118> 1090 276<335.885 768.014> 1455 251<915.347 1234.97> 1511 230<544.472 1007.15>
Fore
1324 233 m 1xf6
 1391 327 1511 554 1511 872 c 0xf680
 1511 1010 1492 1175 1455 1368 c 9
 1706 1264 l 17xf3
 1729 1105 1741 962 1741 835 c 0
 1741 597 1706 414 1632 287 c 0
 1518 92 1380 -6 1218 -6 c 2
 958 -6 l 1
 1056 202 1090 391 1090 558 c 0
 1090 728 1049 813 967 813 c 0
 901 813 870 738 870 597 c 2
 870 486 l 9
 611 486 l 17
 611 597 l 2xfa80
 611 757 567 813 505 813 c 0
 402 813 381 660 381 511 c 0
 381 393 388 333 402 332 c 1
 442 372 493 392 556 392 c 0
 669 392 760 302 760 187 c 0
 760 77 669 -16 561 -16 c 0
 513 -16 404 -9 321 36 c 0
 237 81 104 241 104 517 c 0
 104 778 181 1062 489 1062 c 0
 621 1062 697 1006 738 922 c 1
 782 1015 860 1062 970 1062 c 0
 1207 1062 1366 929 1366 577 c 0
 1366 442 1352 328 1324 233 c 1xf6
556 260 m 0
 513 260 484 226 484 188 c 0
 484 145 518 116 556 116 c 0
 599 116 628 150 628 188 c 0
 628 231 594 260 556 260 c 0
EndSplineSet
EndChar
StartChar: uni0E58
Encoding: 3672 3672 207
Width: 1600
Flags: W
HStem: 0 261<1019.19 1281.02> 405 135<1161.32 1293.23> 831 236<579.441 971.081> 1208 20G<1477 1525>
VStem: 104 274<338.613 656.659> 1024 131<267.263 398.471> 1299 133<269.481 398.333>
Fore
1432 323 m 0
 1432 140 1313 0 1100 0 c 0
 922 0 806 66 751 198 c 9
 692 0 l 17
 417 0 104 108 104 538 c 0
 104 677 163 799 282 904 c 0
 401 1009 583 1063 830 1067 c 0
 1268 1074 1429 1146 1525 1228 c 1
 1525 978 l 1
 1300 831 850 831 811 831 c 0
 484 831 378 640 378 512 c 0
 378 293 516 252 516 252 c 1
 598 554 l 9
 827 511 l 17
 895 327 982 221 1089 194 c 1
 1046 234 1024 281 1024 336 c 0
 1024 450 1115 540 1228 540 c 0
 1327 540 1432 468 1432 323 c 0
1227 405 m 0
 1184 405 1155 371 1155 333 c 0
 1155 290 1189 261 1227 261 c 0
 1270 261 1299 295 1299 333 c 0
 1299 376 1265 405 1227 405 c 0
EndSplineSet
EndChar
StartChar: uni0E59
Encoding: 3673 3673 208
Width: 1670
Flags: W
HStem: 0 161<473 741.803> 305 132<612.62 743.364> 832 244<433.131 687.314> 845 231<1065.87 1236.64> 1202 20G<1529.5 1557.17>
VStem: 100 255<370.856 746.128> 749 132<168.271 299.177>
Fore
1300 676 m 1xde
 1280 751 1235 845 1134 845 c 0xde
 1105 845 1071 815 1032 757 c 1
 1214 486 1316 187 1370 0 c 9
 1116 0 l 17
 819 811 645 832 559 832 c 0
 427 832 355 721 355 603 c 0
 355 392 425 301 472 258 c 1
 470 296 532 437 677 437 c 0
 791 437 881 346 881 233 c 0
 881 91 747 0 592 0 c 0
 354 0 103 179 100 596 c 0
 97 881 299 1076 608 1076 c 0xee
 658 1076 782 1071 907 936 c 1
 972 1047 1048 1076 1122 1076 c 256
 1262 1076 1324 1011 1355 957 c 1
 1457 1023 1513 1128 1546 1222 c 1
 1670 1000 l 1
 1640 912 1566 753 1300 676 c 1xde
677 305 m 0
 634 305 605 271 605 233 c 0
 605 190 639 161 677 161 c 0
 720 161 749 195 749 233 c 0
 749 276 715 305 677 305 c 0
EndSplineSet
EndChar
StartChar: uni0E5A
Encoding: 3674 3674 209
Width: 1600
Flags: W
HStem: 0 21G<872 1116 1223 1467> 591 340<259.534 577.255> 1080 158<260.295 396.303>
VStem: 48 204<943.271 1070.27> 404 172<938.511 1071.03> 872 244<0 819> 1223 244<0 1036>
Fore
252 1004 m 0
 252 960 290 931 329 931 c 24
 372 931 404 965 404 1004 c 0
 404 1048 368 1080 328 1080 c 0
 284 1080 252 1044 252 1004 c 0
576 996 m 0
 576 930 555 882 514 851 c 1
 622 882 728 997 832 1196 c 1
 1116 1116 l 1
 1116 0 l 1
 872 0 l 1
 872 819 l 1
 830 727 685 591 479 591 c 0
 314 591 48 665 48 962 c 0
 48 1125 180 1238 330 1238 c 0
 461 1238 576 1133 576 996 c 0
1467 0 m 1
 1223 0 l 1
 1223 1096 l 1
 1466 1036 l 1
 1467 0 l 1
EndSplineSet
EndChar
StartChar: uni0E5B
Encoding: 3675 3675 210
Width: 2550
Flags: W
HStem: -0 264<532.772 819.692> 258 229<1400 1477.88 1768 1840.89> 299 216<2178.75 2505> 411 131<701.905 832.641> 687 131<701.346 823.69> 919 269<511.04 792.263>
VStem: 129 258<413.704 788.529> 564 131<549.318 681.568> 840 238<579.767 819.869>
Fore
684 -0 m 0x8f80
 417 0 129 172 129 576 c 0
 129 740 164 907 286 1027 c 0
 400 1139 539 1188 687 1188 c 0
 948 1188 1078 997 1078 774 c 0
 1078 516 900 411 766 411 c 0
 647 411 564 507 564 614 c 0
 564 732 656 818 766 818 c 0
 795 818 818 813 839 806 c 1
 808 901 718 919 652 919 c 0
 544 919 387 848 387 592 c 0
 387 349 564 264 687 264 c 0x9f80
 745 264 921 287 1016 395 c 0
 1079 466 1133 583 1178 745 c 1
 1352 675 l 1
 1400 487 l 1
 1407 487 l 2
 1472 487 1525 576 1566 746 c 9
 1717 675 l 9
 1768 487 l 1
 1774 487 l 0x4f80
 1833 487 1883 576 1924 746 c 9
 2075 675 l 1
 2106 571 2220 515 2418 515 c 0
 2445 515 2474 515 2505 517 c 1
 2505 299 l 1x2f80
 2184 300 2013 348 1991 444 c 1
 1950 320 1863 257 1729 257 c 0
 1710 257 1691 259 1670 261 c 1
 1633 444 l 17
 1599 320 1509 258 1362 258 c 0x4f80
 1343 258 1323 259 1302 261 c 1
 1284 347 l 17
 1280 346 1242 298 1170 201 c 0
 1070 67 909 -0 684 -0 c 0x8f80
840 614 m 0
 840 652 811 687 768 687 c 0
 724 687 695 652 695 614 c 0
 695 575 727 542 768 542 c 0
 806 542 840 573 840 614 c 0
EndSplineSet
EndChar
StartChar: afii301
Encoding: 8205 8205 212
Width: 0
Flags: W
VStem: -36 72<-275 1114>
Fore
36 -275 m 1
 -36 -275 l 1
 -36 1114 l 1
 -170 978 l 1
 -219 1027 l 1
 -48 1196 l 1
 -219 1364 l 1
 -170 1413 l 1
 0 1242 l 1
 170 1413 l 1
 219 1364 l 1
 48 1196 l 1
 219 1027 l 1
 170 978 l 1
 36 1114 l 1
 36 -275 l 1
EndSplineSet
EndChar
StartChar: afii299
Encoding: 8206 8206 213
Width: 0
Flags: W
HStem: 1163 71<35 301>
VStem: -36 71<-275 1163>
Fore
430 1198 m 1
 213 984 l 1
 164 1033 l 1
 301 1163 l 1
 35 1163 l 1
 35 -275 l 1
 -36 -275 l 1
 -36 1234 l 1
 301 1234 l 1
 164 1364 l 1
 213 1413 l 1
 430 1198 l 1
EndSplineSet
EndChar
StartChar: afii300
Encoding: 8207 8207 214
Width: 0
Flags: W
HStem: 1163 71<-302 -36>
VStem: -36 71<-275 1163>
Fore
35 -275 m 1
 -36 -275 l 1
 -36 1163 l 1
 -302 1163 l 1
 -165 1033 l 1
 -214 984 l 1
 -431 1198 l 1
 -214 1413 l 1
 -165 1364 l 1
 -302 1234 l 1
 35 1234 l 1
 35 -275 l 1
EndSplineSet
EndChar
StartChar: uni2010
Encoding: 8208 8208 215
Width: 973
Flags: W
HStem: 543 225<190 815>
Fore
190 768 m 1
 815 768 l 1
 815 543 l 1
 190 543 l 1
 190 768 l 1
EndSplineSet
EndChar
StartChar: endash
Encoding: 8211 8211 216
Width: 1024
Flags: W
HStem: 432 258<0 1024>
Fore
0 690 m 1
 1024 690 l 1
 1024 432 l 1
 0 432 l 1
 0 690 l 1
EndSplineSet
EndChar
StartChar: emdash
Encoding: 8212 8212 217
Width: 2048
Flags: W
HStem: 432 258<0 2048>
Fore
0 690 m 1
 2048 690 l 1
 2048 432 l 1
 0 432 l 1
 0 690 l 1
EndSplineSet
EndChar
StartChar: afii00208
Encoding: 8213 8213 218
Width: 1862
Flags: W
HStem: 572 160<110 1752>
Fore
1752 572 m 1
 110 572 l 1
 110 732 l 1
 1752 732 l 1
 1752 572 l 1
EndSplineSet
EndChar
StartChar: underscoredbl
Encoding: 8215 8215 219
Width: 1118
Flags: W
HStem: -423 130<-16 1134> -212 130<-16 1134>
Fore
1134 -212 m 1
 -16 -212 l 1
 -16 -82 l 1
 1134 -82 l 1
 1134 -212 l 1
1134 -423 m 1
 -16 -423 l 1
 -16 -293 l 1
 1134 -293 l 1
 1134 -423 l 1
EndSplineSet
EndChar
StartChar: quoteleft
Encoding: 8216 8216 220
Width: 778
Flags: W
VStem: 211 340<856 1141>
Fore
551 856 m 1
 211 856 l 1
 211 1141 l 1
 438 1493 l 1
 651 1493 l 1
 551 1141 l 1
 551 856 l 1
EndSplineSet
EndChar
StartChar: quoteright
Encoding: 8217 8217 221
Width: 778
Flags: W
VStem: 229 340<1208 1493>
Fore
229 1493 m 1
 569 1493 l 1
 569 1208 l 1
 342 856 l 1
 129 856 l 1
 229 1208 l 1
 229 1493 l 1
EndSplineSet
EndChar
StartChar: quotesinglbase
Encoding: 8218 8218 222
Width: 778
Flags: W
VStem: 248 340<102 387>
Fore
248 387 m 1
 588 387 l 1
 588 102 l 1
 358 -250 l 1
 147 -250 l 1
 248 102 l 1
 248 387 l 1
EndSplineSet
EndChar
StartChar: quotereversed
Encoding: 8219 8219 223
Width: 432
Flags: W
HStem: 997 559<178 335>
VStem: -64 399<997 1556>
Fore
335 1556 m 1
 178 997 l 1
 -64 997 l 1
 197 1556 l 1
 335 1556 l 1
EndSplineSet
EndChar
StartChar: quotedblleft
Encoding: 8220 8220 224
Width: 1346
Flags: W
VStem: 211 340<856 1141> 717 340<856 1139>
Fore
1057 856 m 1
 717 856 l 1
 717 1139 l 1
 944 1493 l 1
 1157 1493 l 1
 1057 1139 l 1
 1057 856 l 1
551 856 m 1
 211 856 l 1
 211 1141 l 1
 438 1493 l 1
 651 1493 l 1
 551 1141 l 1
 551 856 l 1
EndSplineSet
EndChar
StartChar: quotedblright
Encoding: 8221 8221 225
Width: 1346
Flags: W
VStem: 289 340<1208 1493> 795 340<1206 1493>
Fore
289 1493 m 1
 629 1493 l 1
 629 1208 l 1
 401 856 l 1
 188 856 l 1
 289 1208 l 1
 289 1493 l 1
795 1493 m 1
 1135 1493 l 1
 1135 1206 l 1
 907 856 l 1
 694 856 l 1
 795 1206 l 1
 795 1493 l 1
EndSplineSet
EndChar
StartChar: quotedblbase
Encoding: 8222 8222 226
Width: 1346
Flags: W
VStem: 248 340<102 387> 754 340<100 387>
Fore
248 387 m 1
 588 387 l 1
 588 102 l 1
 358 -250 l 1
 147 -250 l 1
 248 102 l 1
 248 387 l 1
754 387 m 1
 1094 387 l 1
 1094 100 l 1
 866 -250 l 1
 653 -250 l 1
 754 100 l 1
 754 387 l 1
EndSplineSet
EndChar
StartChar: dagger
Encoding: 8224 8224 227
Width: 1024
Flags: W
HStem: 874 238<53 342 672 963>
VStem: 342 330<-197 874 1112 1493>
Fore
342 1493 m 1
 672 1493 l 1
 672 1112 l 1
 963 1112 l 1
 963 874 l 1
 672 874 l 1
 672 -197 l 1
 342 -197 l 1
 342 874 l 1
 53 874 l 1
 53 1112 l 1
 342 1112 l 1
 342 1493 l 1
EndSplineSet
EndChar
StartChar: daggerdbl
Encoding: 8225 8225 228
Width: 1024
Flags: W
HStem: 184 238<51 342 672 963> 874 238<53 342 672 963>
VStem: 342 330<-197 184 422 874 1112 1493>
Fore
342 1493 m 1
 672 1493 l 1
 672 1112 l 1
 963 1112 l 1
 963 874 l 1
 672 874 l 1
 672 422 l 1
 963 422 l 1
 963 184 l 1
 672 184 l 1
 672 -197 l 1
 342 -197 l 1
 342 184 l 1
 51 184 l 1
 51 422 l 1
 342 422 l 1
 342 874 l 1
 53 874 l 1
 53 1112 l 1
 342 1112 l 1
 342 1493 l 1
EndSplineSet
EndChar
StartChar: bullet
Encoding: 8226 8226 229
Width: 1309
Flags: W
Fore
653 401 m 0
 456 401 295 557 295 762 c 256
 295 977 467 1120 655 1120 c 0
 847 1120 1014 970 1014 762 c 0
 1014 551 846 401 653 401 c 0
EndSplineSet
EndChar
StartChar: ellipsis
Encoding: 8230 8230 230
Width: 2048
Flags: W
HStem: 0 387<162 522 844 1204 1526 1886>
VStem: 162 360<0 387> 844 360<0 387> 1526 360<0 387>
CounterMasks: 1 70
Fore
1526 387 m 1
 1886 387 l 1
 1886 0 l 1
 1526 0 l 1
 1526 387 l 1
162 387 m 1
 522 387 l 1
 522 0 l 1
 162 0 l 1
 162 387 l 1
844 387 m 1
 1204 387 l 1
 1204 0 l 1
 844 0 l 1
 844 387 l 1
EndSplineSet
EndChar
StartChar: perthousand
Encoding: 8240 8240 231
Width: 2949
Flags: W
HStem: -29 170<1489.56 1684.25 2404.97 2594.53> 616 168<1490 1675.1 2405.38 2594.68> 707 167<372.22 562.386> 1352 168<367.773 557.865>
VStem: 66 249<931.11 1295.32> 614 250<930.209 1295.97> 1186 252<195.678 560.665> 1735 252<195.893 561.384> 2101 252<196.238 559.718> 2650 252<196.047 561.229>
Fore
2650 379 m 0xdfc0
 2650 503 2614 616 2503 616 c 0
 2391 616 2353 505 2353 379 c 0
 2353 177 2443 141 2503 141 c 0
 2614 141 2650 254 2650 379 c 0xdfc0
2101 379 m 0
 2101 634 2256 784 2503 784 c 0
 2750 784 2902 634 2902 379 c 256
 2902 124 2749 -29 2503 -29 c 0
 2256 -29 2101 123 2101 379 c 0
465 1352 m 0
 353 1352 315 1240 315 1114 c 0
 315 912 405 874 465 874 c 256xbfc0
 577 874 614 987 614 1114 c 0
 614 1314 525 1352 465 1352 c 0
466 1520 m 0
 712 1520 864 1369 864 1114 c 256
 864 859 712 707 465 707 c 256
 218 707 66 859 66 1114 c 256
 66 1370 218 1520 466 1520 c 0
670 -29 m 1
 449 -29 l 1
 1382 1520 l 1
 1604 1520 l 1
 670 -29 l 1
1186 379 m 0
 1186 634 1341 784 1587 784 c 256xdfc0
 1834 784 1987 634 1987 379 c 0
 1987 124 1834 -29 1587 -29 c 256
 1340 -29 1186 123 1186 379 c 0
1735 379 m 0
 1735 504 1698 616 1587 616 c 256
 1527 616 1438 579 1438 379 c 0
 1438 253 1475 141 1587 141 c 256
 1699 141 1735 253 1735 379 c 0
EndSplineSet
EndChar
StartChar: minute
Encoding: 8242 8242 232
Width: 602
Flags: W
HStem: 870 619<273 571>
VStem: 137 434<870 1489>
Fore
571 1489 m 1
 273 870 l 1
 137 870 l 1
 331 1489 l 1
 571 1489 l 1
EndSplineSet
EndChar
StartChar: second
Encoding: 8243 8243 233
Width: 972
Flags: W
HStem: 870 619<269 567>
VStem: 137 824<870 1489>
Fore
567 1489 m 1
 269 870 l 1
 137 870 l 1
 331 1489 l 1
 567 1489 l 1
961 1489 m 1
 663 870 l 1
 531 870 l 1
 725 1489 l 1
 961 1489 l 1
EndSplineSet
EndChar
StartChar: guilsinglleft
Encoding: 8249 8249 234
Width: 844
Flags: W
HStem: 137 926<651 651>
VStem: 158 493<506 1063>
Fore
651 1063 m 1
 651 821 l 1
 358 600 l 1
 651 379 l 1
 651 137 l 1
 158 506 l 1
 158 692 l 1
 651 1063 l 1
EndSplineSet
EndChar
StartChar: guilsinglright
Encoding: 8250 8250 235
Width: 844
Flags: W
HStem: 137 926<193 193>
VStem: 193 493<692 1063>
Fore
193 1063 m 1
 686 692 l 1
 686 506 l 1
 193 137 l 1
 193 379 l 1
 485 600 l 1
 193 821 l 1
 193 1063 l 1
EndSplineSet
EndChar
StartChar: uni203E
Encoding: 8254 8254 237
Width: 1118
Flags: W
HStem: 1658 131<-48 1118>
Fore
1118 1658 m 1
 -48 1658 l 1
 -48 1789 l 1
 1118 1789 l 1
 1118 1658 l 1
EndSplineSet
EndChar
StartChar: fraction
Encoding: 8260 8260 238
Width: 886
Flags: W
HStem: 0 21G<-29 146.477>
VStem: -29 945<0 1489>
Fore
916 1489 m 1
 136 0 l 1
 -29 0 l 1
 751 1489 l 1
 916 1489 l 1
EndSplineSet
EndChar
StartChar: uni207F
Encoding: 8319 8319 239
Width: 1010
Flags: W
HStem: 1368 151<503.388 671.724>
VStem: 125 171<566 1254 1388 1488> 718 172<566 1321.89>
Fore
586 1519 m 0
 689 1519 890 1482 890 1163 c 2
 890 566 l 1
 718 566 l 1
 718 1088 l 2
 718 1275 706 1368 541 1368 c 0
 492 1368 423 1357 296 1254 c 1
 296 566 l 1
 125 566 l 1
 125 1488 l 1
 296 1488 l 1
 296 1388 l 1
 442 1513 528 1519 586 1519 c 0
EndSplineSet
EndChar
StartChar: dottedcircle
Encoding: 9676 9676 240
Width: 1247
Flags: W
HStem: 7 121<553.139 669.635> 68 121<847.139 963.782> 98 121<288.139 404.913> 234 121<1013.14 1129.78> 249 121<145.139 261.635> 438 121<1088.14 1204.91> 445 121<24.2128 141.099> 679 121<39.1394 155.635 1074.21 1191.1> 868 121<145.139 261.782> 891 121<967.139 1083.64> 1011 121<334.213 451.099> 1034 121<779.139 895.782> 1079 121<560.213 677.099>
VStem: 22 121<447.213 563.782> 37 121<681.213 797.635> 143 121<251.213 367.635 870.213 987.099> 286 121<100.213 216.709> 332 121<1013.21 1129.78> 551 121<9.21281 125.635> 558 121<1081.21 1197.78> 777 121<1036.21 1153.1> 845 121<70.2128 187.099> 965 121<893.213 1009.64> 1011 121<236.213 353.099> 1072 121<681.213 797.782> 1086 121<440.213 556.709>
Fore
203 868 m 0x0181
 168 868 143 894 143 928 c 0
 143 962 167 989 203 989 c 0
 240 989 264 962 264 928 c 0
 264 894 238 868 203 868 c 0x0181
392 1011 m 0x012040
 357 1011 332 1037 332 1071 c 0
 332 1106 358 1132 392 1132 c 0
 426 1132 453 1108 453 1071 c 0
 453 1035 426 1011 392 1011 c 0x012040
618 1079 m 0x010810
 583 1079 558 1105 558 1139 c 0
 558 1174 584 1200 618 1200 c 0
 652 1200 679 1176 679 1139 c 0
 679 1103 652 1079 618 1079 c 0x010810
82 445 m 0x0304
 47 445 22 471 22 505 c 0
 22 540 48 566 82 566 c 0
 116 566 143 542 143 505 c 0
 143 469 116 445 82 445 c 0x0304
203 249 m 0x0901
 168 249 143 275 143 309 c 0
 143 342 167 370 203 370 c 0
 238 370 264 343 264 309 c 0
 264 273 236 249 203 249 c 0x0901
346 98 m 0x210080
 311 98 286 124 286 158 c 0
 286 192 310 219 346 219 c 0
 377 219 407 197 407 158 c 0
 407 122 380 98 346 98 c 0x210080
611 7 m 0x810020
 576 7 551 33 551 67 c 0
 551 100 575 128 611 128 c 0
 646 128 672 101 672 67 c 0
 672 31 644 7 611 7 c 0x810020
905 68 m 0x410004
 870 68 845 94 845 128 c 0x810004
 845 162 869 189 905 189 c 0x410004
 942 189 966 162 966 128 c 0x810004
 966 94 940 68 905 68 c 0x410004
1071 234 m 0x110001
 1036 234 1011 260 1011 294 c 0
 1011 328 1035 355 1071 355 c 0
 1108 355 1132 328 1132 294 c 0
 1132 260 1106 234 1071 234 c 0x110001
1146 438 m 0x05000040
 1111 438 1086 464 1086 498 c 0
 1086 532 1110 559 1146 559 c 0
 1177 559 1207 537 1207 498 c 0
 1207 462 1180 438 1146 438 c 0x05000040
1132 679 m 0x010001
 1097 679 1072 705 1072 739 c 0x01000080
 1072 774 1098 800 1132 800 c 0x010001
 1166 800 1193 776 1193 739 c 0x01000080
 1193 703 1166 679 1132 679 c 0x010001
1025 891 m 0x014002
 990 891 965 917 965 951 c 0
 965 984 989 1012 1025 1012 c 0
 1060 1012 1086 985 1086 951 c 0
 1086 915 1058 891 1025 891 c 0x014002
837 1034 m 0x011008
 802 1034 777 1060 777 1094 c 0
 777 1128 801 1155 837 1155 c 0
 874 1155 898 1128 898 1094 c 0
 898 1060 872 1034 837 1034 c 0x011008
97 679 m 0
 62 679 37 705 37 739 c 0
 37 772 61 800 97 800 c 0
 132 800 158 773 158 739 c 0x0102
 158 703 130 679 97 679 c 0
EndSplineSet
EndChar
StartChar: uni0E10.descless
Encoding: 63232 63232 241
Width: 1251
Flags: W
HStem: 0 21G<673.839 983.03> 205 144<310.118 449.51> 498 144<313.256 448.208> 984 241<535.614 906.637>
VStem: 160 144<356.195 489.833>
Back
1125 984 m 29,0,-1
1038 537 m 14,1,-1
 1038 0 l 5,2,-1
 727 0 l 5,3,-1
 509 336 l 5,4,5
 494.333 312 471.167 292.333 439.5 277 c 4,6,7
 407.833 261.667 374 254.333 338 255 c 4,8,9
 274.667 255.667 222 276 180 316 c 4,10,11
 138 356 117 405.667 117 465 c 4,12,13
 117 531.667 140.167 586.333 186.5 629 c 4,14,15
 232.833 671.667 289 692.667 355 692 c 4,16,17
 398.333 692 440.333 682.167 481 662.5 c 4,18,19
 521.667 642.833 557.667 616.5 589 583.5 c 4,20,21
 620.333 550.5 646.667 518.667 668 488 c 4,22,23
 689.333 457.333 708.333 425.667 725 393 c 5,24,-1
 724 590 l 6,25,26
 724 626.667 695.333 660.167 638 690.5 c 4,27,28
 580.667 720.833 512.167 744.167 432.5 760.5 c 4,29,30
 352.833 776.833 278.833 789.5 210.5 798.5 c 4,31,32
 142.167 807.5 88.6667 812 50 812 c 5,33,-1
 49 1085 l 5,34,35
 253 1178.33 441.333 1225 614 1225 c 4,36,37
 658 1225 715.667 1214.67 787 1194 c 4,38,39
 858.333 1173.33 916.333 1162 961 1160 c 4,40,41
 1015 1157.33 1069.67 1172 1125 1204 c 5,42,-1
 1125 984 l 5,43,44
 1077 945.333 1017.67 927.333 947 930 c 4,45,46
 916.333 930.667 865.167 939.833 793.5 957.5 c 4,47,48
 721.833 975.167 663.333 984 618 984 c 4,49,50
 576.667 986 533.167 983.333 487.5 976 c 4,51,52
 441.833 968.667 402.667 957 370 941 c 5,53,-1
 407 938.5 l 6,54,55
 431.667 936.833 463.667 932.667 503 926 c 4,56,57
 542.333 919.333 585.667 910.667 633 900 c 4,58,59
 680.333 889.333 727.667 873.667 775 853 c 4,60,61
 822.333 832.333 865.667 808.5 905 781.5 c 4,62,63
 944.333 754.5 976.333 719.833 1001 677.5 c 4,64,65
 1025.67 635.167 1038 588.333 1038 537 c 14,1,-1
336 399 m 28,43,-1
 356.667 399 374.5 406 389.5 420 c 4,44,45
 404.5 434 412.333 451.333 413 472 c 4,46,47
 413 493.333 405.5 511.333 390.5 526 c 4,48,49
 375.5 540.667 357.667 548 337 548 c 4,50,51
 316.333 548 298.5 540.667 283.5 526 c 4,52,53
 268.5 511.333 261 493.333 261 472 c 4,54,55
 261 451.333 268.333 434 283 420 c 4,56,57
 297.667 406 315.333 399 336 399 c 28,43,-1
EndSplineSet
Fore
970 858 m 1
 943 954 834 984 722 984 c 0
 615 984 524 971 453 938 c 1
 937 808 l 2
 1041 780 1095 716 1095 614 c 0
 1095 589 1092 561 1086 531 c 2
 979 0 l 1
 683 0 l 1
 552 286 l 1
 525 242 461 205 387 205 c 0
 253 205 160 291 160 420 c 0
 160 536 251 642 398 642 c 0
 470 642 534 614 588 558 c 0
 644 501 693 435 734 360 c 1
 772 530 l 2
 773 536 774 541 774 547 c 0
 774 600 723 640 617 666 c 2
 139 782 l 1
 139 1088 l 1
 252 1135 486 1225 718 1225 c 0
 917 1225 1062 1190 1153 1122 c 1
 970 858 l 1
304 422 m 0
 304 378 339 349 379 349 c 24
 426 349 455 385 456 422 c 0
 456 467 421 498 380 498 c 0
 339 498 304 467 304 422 c 0
EndSplineSet
EndChar
StartChar: uni0E48.low
Encoding: 63242 63242 251
Width: 0
Flags: W
VStem: -415.5 212<1364 1720>
AnchorPoint: "AboveBase" -207.5 1276.5 mark 0
Fore
-415.5 1720 m 29
 -203.5 1720 l 5
 -203.5 1364 l 1
 -415.5 1364 l 1
 -415.5 1720 l 29
EndSplineSet
EndChar
StartChar: uni0E49.low
Encoding: 63243 63243 252
Width: 0
Flags: W
HStem: 1498 80<-539.905 -491> 1692 88<-539.682 -422.519>
VStem: -623 81<1580.5 1689.19> -421 102<1581.07 1690.24>
AnchorPoint: "AboveBase" -289.5 1315 mark 0
Fore
-623 1644 m 0
 -623 1722 -542 1780 -475 1780 c 0
 -374 1780 -319 1696 -319 1628 c 0
 -319 1580 -335 1535 -367 1492 c 1
 -271 1509 -172 1595 -71 1748 c 1
 44 1606 l 1
 -104 1416 -348 1328 -580 1328 c 2
 -591 1328 l 1
 -589 1460 l 1
 -523 1466 -522 1465 -491 1498 c 1
 -500 1498 l 0
 -543 1498 -623 1532 -623 1644 c 0
-542 1633 m 0
 -542 1603 -516 1578 -483 1578 c 24
 -450 1578 -421 1602 -421 1638 c 0
 -421 1668 -448 1692 -480 1692 c 0
 -513 1692 -542 1669 -542 1633 c 0
EndSplineSet
EndChar
StartChar: uni0E4A.low
Encoding: 63244 63244 253
Width: 0
Flags: W
HStem: 1325 84<-619.932 -515.231> 1508 66<-615.891 -515.507>
VStem: -750 129<1409.55 1506.3> -514 70<1410.9 1507.16> -314 138<1461.84 1593.11>
AnchorPoint: "AboveBase" -158 1316.5 mark 0
Fore
-514 1459 m 0
 -514 1482 -537 1508 -567 1508 c 0
 -601 1508 -621 1480 -621 1454 c 0
 -621 1431 -605 1409 -571 1409 c 0
 -542 1409 -514 1432 -514 1459 c 0
-358 1434 m 1
 -315 1473 -314 1499 -314 1528 c 0
 -314 1568 -326 1597 -352 1616 c 1
 -454 1548 l 1
 -566 1614 l 1
 -600 1584 -596 1588 -616 1556 c 1
 -614 1572 -623 1574 -568 1574 c 0
 -499 1572 -444 1519 -444 1459 c 0
 -444 1396 -487 1325 -572 1325 c 0
 -654 1325 -750 1394 -750 1492 c 0
 -750 1560 -714 1678 -578 1728 c 1
 -452 1650 l 1
 -342 1730 l 1
 -252 1700 -176 1606 -176 1529 c 0
 -176 1481 -202 1463 -230 1428 c 1
 -149 1457 -83 1620 -62 1724 c 1
 82 1616 l 1
 61 1507 -102 1328 -292 1326 c 1
 -358 1434 l 1
EndSplineSet
EndChar
StartChar: uni0E4B.low
Encoding: 63245 63245 254
Width: 0
Flags: W
HStem: 1473.5 179<-633 -496 -308 -171>
VStem: -496 188<1336.5 1472.5 1652.5 1788.5>
AnchorPoint: "AboveBase" -227 1298.5 mark 0
Fore
-171 1473.5 m 1
 -308 1473.5 l 1
 -308 1336.5 l 1
 -496 1336.5 l 1
 -496 1472.5 l 1
 -633 1472.5 l 1
 -633 1651.5 l 1
 -496 1651.5 l 1
 -496 1788.5 l 1
 -308 1789.5 l 1
 -308 1652.5 l 1
 -171 1652.5 l 1
 -171 1473.5 l 1
EndSplineSet
EndChar
StartChar: uni0E4C.low
Encoding: 63246 63246 255
Width: 0
Flags: W
HStem: 1315 109<-552.274 -431.267>
VStem: -687 129<1429.11 1554.65> -424 122<1427.88 1558>
AnchorPoint: "AboveBase" -294 1310.78 mark 0
Fore
-489 1315 m 0
 -624 1315 -687 1413 -687 1499 c 0
 -687 1588 -621 1690 -490 1706 c 0
 -427 1715 -105 1719 -14 1778 c 1
 12 1616 l 1
 -38 1586 -100 1581 -137 1581 c 0
 -151 1581 -218 1586 -272 1586 c 0
 -290 1586 -306 1586 -320 1584 c 1
 -308 1559 -302 1566 -302 1490 c 0
 -302 1408 -380 1315 -489 1315 c 0
-424 1490 m 0
 -424 1529 -453 1564 -488 1560 c 8
 -525 1560 -558 1530 -558 1488 c 0
 -558 1450 -522 1423 -488 1424 c 0
 -453 1425 -424 1452 -424 1490 c 0
EndSplineSet
EndChar
StartChar: uni0E0D.descless
Encoding: 63247 63247 256
Width: 1968
Flags: W
HStem: -11 189<366.985 504.958> 0 221<1186 1467> 994 240<448.941 792.095>
VStem: 104 256<187.361 329> 512 206<184.851 319.835> 876 311<221 920.539> 1467 308<221 1204>
Fore
410 -11 m 0xbe
 306 -11 104 57 104 329 c 2
 104 474 l 2
 104 545 118 668 257 744 c 1
 71 821 l 1
 72 1097 l 1
 349 1211 523 1234 636 1234 c 0
 1039 1234 1187 1069 1187 822 c 2
 1186 221 l 1
 1467 221 l 1
 1467 1204 l 1
 1775 1204 l 1
 1775 0 l 1
 876 0 l 1x7e
 876 806 l 2
 876 957 724 994 587 994 c 0
 527 994 455 985 385 947 c 1
 587 856 l 1
 587 660 l 1
 422 607 418 536 418 505 c 1
 484 502 l 2
 576 498 718 412 718 247 c 0
 718 92 589 -11 410 -11 c 0xbe
512 254 m 0
 512 298 477 327 437 327 c 24
 394 327 360 293 360 254 c 0
 360 213 391 178 436 178 c 0xbe
 481 178 512 213 512 254 c 0
EndSplineSet
EndChar
StartChar: uniF71B
Encoding: 63259 63259 268
Width: 1000
Flags: W
HStem: 1065 20G<215 830>
VStem: 215 615<61 1085>
Fore
830 1085 m 1
 830 61 l 1
 215 61 l 1
 215 1085 l 1
 830 1085 l 1
EndSplineSet
EndChar
StartChar: uniF71C
Encoding: 63260 63260 269
Width: 700
Flags: W
VStem: 107 379<-423 -154>
Fore
107 -423 m 1
 244 -154 l 1
 486 -154 l 1
 245 -423 l 1
 107 -423 l 1
EndSplineSet
EndChar
StartChar: uniF71D
Encoding: 63261 63261 270
Width: 800
Flags: W
HStem: -236 211<182 266 532 616> -127 102<266 532>
VStem: 182 84<-236 -127> 532 84<-236 -127>
Fore
616 -236 m 1xb0
 532 -236 l 1xb0
 532 -127 l 1
 266 -127 l 1x70
 266 -236 l 1
 182 -236 l 1
 182 -25 l 1
 616 -25 l 1
 616 -236 l 1xb0
EndSplineSet
EndChar
StartChar: afii61664
Encoding: 8204 8204 271
Width: 0
Flags: W
VStem: -36 72<-275 1289>
Fore
36 1289 m 1
 36 -275 l 1
 -36 -275 l 1
 -36 1289 l 1
 36 1289 l 1
EndSplineSet
EndChar
StartChar: uni00B9
Encoding: 185 185 274
Width: 897
Flags: W
HStem: 668 157<141 348 578 782>
VStem: 348 230<825 1346>
Fore
141 825 m 1
 348 825 l 1
 348 1346 l 1
 123 1294 l 1
 123 1454 l 1
 352 1503 l 1
 578 1503 l 1
 578 825 l 1
 782 825 l 1
 782 668 l 1
 141 668 l 1
 141 825 l 1
EndSplineSet
EndChar
StartChar: ordmasculine
Encoding: 186 186 275
Width: 1155
Flags: W
HStem: 373 200<166 989> 698 170<465.323 690.046> 1350 170<465.976 689.658>
VStem: 117 286<933.242 1283.62> 752 286<933.242 1283.44>
Fore
117 1108 m 256
 117 1369 298 1520 578 1520 c 0
 857 1520 1038 1369 1038 1108 c 256
 1038 847 857 698 578 698 c 256
 299 698 117 847 117 1108 c 256
166 573 m 1
 989 573 l 1
 989 373 l 1
 166 373 l 1
 166 573 l 1
752 1108 m 256
 752 1245 702 1350 578 1350 c 0
 454 1350 403 1246 403 1108 c 256
 403 971 453 868 578 868 c 0
 701 868 752 971 752 1108 c 256
EndSplineSet
EndChar
StartChar: guillemotright
Encoding: 187 187 276
Width: 1323
Flags: W
HStem: 137 926<672 672>
VStem: 193 972<692 1063>
Fore
672 1063 m 1
 1165 692 l 1
 1165 506 l 1
 672 137 l 1
 672 379 l 1
 965 600 l 1
 672 821 l 1
 672 1063 l 1
193 1063 m 1
 684 692 l 1
 684 506 l 1
 193 137 l 1
 193 379 l 1
 485 600 l 1
 193 821 l 1
 193 1063 l 1
EndSplineSet
EndChar
StartChar: onequarter
Encoding: 188 188 277
Width: 2120
Flags: W
HStem: 0 21G<1593 1823> 162 155<1354 1593 1823 1960> 668 157<119 324 553 758>
VStem: 324 229<825 1346> 1593 230<0 162 317 641>
Fore
1593 641 m 1
 1354 317 l 1
 1593 317 l 1
 1593 641 l 1
1575 836 m 1
 1823 836 l 1
 1823 317 l 1
 1960 317 l 1
 1960 162 l 1
 1823 162 l 1
 1823 0 l 1
 1593 0 l 1
 1593 162 l 1
 1202 162 l 1
 1202 330 l 1
 1575 836 l 1
733 -29 m 1
 510 -29 l 1
 1444 1520 l 1
 1667 1520 l 1
 733 -29 l 1
119 825 m 1
 324 825 l 1
 324 1346 l 1
 100 1294 l 1
 100 1454 l 1
 330 1503 l 1
 553 1503 l 1
 553 825 l 1
 758 825 l 1
 758 668 l 1
 119 668 l 1
 119 825 l 1
EndSplineSet
LCarets2: 2 0 0 
Ligature2: "'frac' Diagonal Fractions in Thai lookup 3" one slash four
Ligature2: "'frac' Diagonal Fractions in Thai lookup 3" one fraction four
EndChar
StartChar: onehalf
Encoding: 189 189 278
Width: 2120
Flags: W
HStem: 0 168<1649 2021> 668 157<119 324 553 758> 705 147<1512.27 1747.66>
VStem: 324 229<825 1346> 1774 241<488.245 678.409>
Fore
1677 852 m 0xb8
 1864 852 2015 780 2015 614 c 0
 2015 503 1953 427 1843 334 c 2
 1649 168 l 1
 2021 168 l 1
 2021 0 l 1
 1346 0 l 1
 1346 154 l 1
 1661 422 l 2
 1725 477 1774 528 1774 592 c 0
 1774 662 1717 705 1640 705 c 0
 1583 705 1496 692 1354 612 c 1
 1354 799 l 1
 1431 823 1548 852 1677 852 c 0xb8
733 -29 m 1
 510 -29 l 1
 1444 1520 l 1
 1667 1520 l 1
 733 -29 l 1
119 825 m 1xd8
 324 825 l 1
 324 1346 l 1
 100 1294 l 1
 100 1454 l 1
 330 1503 l 1
 553 1503 l 1
 553 825 l 1
 758 825 l 1
 758 668 l 1
 119 668 l 1
 119 825 l 1xd8
EndSplineSet
LCarets2: 2 0 0 
Ligature2: "'frac' Diagonal Fractions in Thai lookup 3" one slash two
Ligature2: "'frac' Diagonal Fractions in Thai lookup 3" one fraction two
EndChar
StartChar: threequarters
Encoding: 190 190 279
Width: 2120
Flags: W
HStem: 0 21G<1593 1823> 162 155<1354 1593 1823 1960> 653 146<163.041 520.533> 1047 137<262 516.769> 1372 148<301.434 515.366>
VStem: 535 243<1208.93 1351.15> 557 244<839.043 1009.26> 1593 230<0 162 317 641>
Fore
1575 836 m 1xf9
 1823 836 l 1
 1823 317 l 1
 1960 317 l 1
 1960 162 l 1
 1823 162 l 1
 1823 0 l 1
 1593 0 l 1
 1593 162 l 1
 1202 162 l 1
 1202 330 l 1
 1575 836 l 1xf9
1593 641 m 1
 1354 317 l 1
 1593 317 l 1
 1593 641 l 1
778 1303 m 0xfd
 778 1193 694 1139 606 1120 c 1
 717 1099 801 1031 801 911 c 0
 801 710 621 653 401 653 c 0
 289 653 191 670 104 698 c 1
 104 872 l 1
 167 837 258 799 358 799 c 0
 462 799 557 830 557 922 c 0xfb
 557 1022 460 1047 336 1047 c 2
 262 1047 l 1
 262 1184 l 1
 346 1184 l 2
 492 1184 535 1223 535 1282 c 0
 535 1336 492 1372 377 1372 c 0
 353 1372 270 1372 131 1319 c 1
 131 1485 l 1
 219 1508 321 1520 434 1520 c 0
 729 1520 778 1390 778 1303 c 0xfd
733 -29 m 1
 510 -29 l 1
 1444 1520 l 1
 1667 1520 l 1
 733 -29 l 1
EndSplineSet
LCarets2: 2 0 0 
Ligature2: "'frac' Diagonal Fractions in Thai lookup 3" three slash four
Ligature2: "'frac' Diagonal Fractions in Thai lookup 3" three fraction four
EndChar
StartChar: questiondown
Encoding: 191 191 280
Width: 1188
Flags: W
HStem: -29 262<546.816 882.619> 1137 356<487 848>
VStem: 487 361<826.902 987 1137 1493>
Fore
641 -29 m 0
 345 -29 141 84 141 360 c 0
 141 497 194 591 313 702 c 2
 377 760 l 2
 449 825 487 869 487 942 c 2
 487 987 l 1
 848 987 l 1
 848 938 l 2
 848 808 790 737 674 631 c 2
 610 573 l 2
 552 520 502 459 502 383 c 0
 502 284 575 233 684 233 c 0
 758 233 885 256 1055 367 c 1
 1055 53 l 1
 940 12 797 -29 641 -29 c 0
848 1137 m 1
 487 1137 l 1
 487 1493 l 1
 848 1493 l 1
 848 1137 l 1
EndSplineSet
EndChar
StartChar: Agrave
Encoding: 192 192 281
Width: 1585
Flags: W
HStem: 0 21<10 403.985 1181.09 1575> 272 277<588 997> 1635 264<717 915>
VStem: 434 481<1635 1899>
Fore
717 1899 m 1
 915 1635 l 1
 719 1635 l 1
 434 1899 l 1
 717 1899 l 1
EndSplineSet
Refer: 37 65 N 1 0 0 1 0 0 3
EndChar
StartChar: Aacute
Encoding: 193 193 282
Width: 1585
Flags: W
HStem: 0 21<10 403.985 1181.09 1575> 272 277<588 997> 1635 264<817 819>
VStem: 621 481<1635 1899>
Fore
819 1899 m 5
 1102 1899 l 1
 817 1635 l 1
 621 1635 l 1
 819 1899 l 5
EndSplineSet
Refer: 37 65 N 1 0 0 1 0 0 3
EndChar
StartChar: Acircumflex
Encoding: 194 194 283
Width: 1585
Flags: W
HStem: 0 21<10 403.985 1181.09 1575> 272 277<588 997> 1635 264<614 1145>
VStem: 391 754<1635 1635>
Fore
614 1899 m 5
 922 1899 l 1
 1145 1635 l 1
 967 1635 l 1
 768 1796 l 1
 569 1635 l 1
 391 1635 l 1
 614 1899 l 5
EndSplineSet
Refer: 37 65 N 1 0 0 1 0 0 3
EndChar
StartChar: Atilde
Encoding: 195 195 284
Width: 1585
Flags: W
HStem: 0 21<10 403.985 1181.09 1575> 272 277<588 997> 1636 148<864.767 996.993> 1751 149<568.28 670.496>
Fore
966 1636 m 0xe0
 892 1636 858 1627 770 1684 c 2
 714 1719 l 2
 658 1756 638 1751 631 1751 c 0
 550 1751 559 1648 559 1635 c 1
 420 1635 l 1
 420 1870 539 1900 570 1900 c 0xd0
 642 1900 672 1910 766 1852 c 2
 825 1813 l 2
 838 1804 871 1784 901 1784 c 0
 983 1784 977 1874 977 1901 c 1
 1116 1901 l 1
 1116 1701 1026 1636 966 1636 c 0xe0
EndSplineSet
Refer: 37 65 N 1 0 0 1 0 0 3
EndChar
StartChar: Adieresis
Encoding: 196 196 285
Width: 1585
Flags: W
HStem: 0 21<10 403.985 1181.09 1575> 272 277<588 997> 1653 246<453 688 848 1083>
VStem: 453 235<1653 1899> 848 235<1653 1899>
Fore
453 1899 m 1
 688 1899 l 1
 688 1653 l 1
 453 1653 l 1
 453 1899 l 1
848 1899 m 1
 1083 1899 l 1
 1083 1653 l 1
 848 1653 l 1
 848 1899 l 1
EndSplineSet
Refer: 37 65 N 1 0 0 1 0 0 3
EndChar
StartChar: Aring
Encoding: 197 197 286
Width: 1585
Flags: W
HStem: 0 21G<10 403.985 1181.09 1575> 272 277<588 997> 1747 154<699.813 890.309>
VStem: 508 154<1517.92 1713.82> 924 153<1517.66 1713.89>
Fore
1077 1616 m 0
 1077 1551 1062 1501 1032 1464 c 1
 1575 0 l 1
 1188 0 l 1
 1094 272 l 1
 492 272 l 1
 397 0 l 1
 10 0 l 1
 553 1464 l 1
 534 1492 508 1540 508 1616 c 0
 508 1771 631 1901 793 1901 c 0
 949 1901 1077 1774 1077 1616 c 0
793 1747 m 0
 719 1747 662 1687 662 1616 c 256
 662 1542 721 1485 793 1485 c 256
 867 1485 924 1545 924 1616 c 256
 924 1690 864 1747 793 1747 c 0
588 549 m 1
 997 549 l 1
 793 1143 l 1
 588 549 l 1
EndSplineSet
EndChar
StartChar: AE
Encoding: 198 198 287
Width: 2222
Flags: W
HStem: 0 291<1397 2073> 350 277<635 1012> 633 291<1397 2011> 1202 291<1397 2050>
VStem: 1012 385<291 350 627 633 924 1202>
Fore
891 1237 m 1
 635 627 l 1
 1012 627 l 1
 1012 1237 l 1
 891 1237 l 1
625 1493 m 1
 2050 1493 l 1
 2050 1202 l 1
 1397 1202 l 1
 1397 924 l 1
 2011 924 l 1
 2011 633 l 1
 1397 633 l 1
 1397 291 l 1
 2073 291 l 1
 2073 0 l 1
 1012 0 l 1
 1012 350 l 1
 518 350 l 1
 371 0 l 1
 0 0 l 1
 625 1493 l 1
EndSplineSet
EndChar
StartChar: Egrave
Encoding: 200 200 289
Width: 1399
Flags: W
HStem: 0 291<573 1249> 633 291<573 1188> 1202 291<573 1227> 1635 264<641 839>
VStem: 188 385<291 633 924 1202> 358 481<1635 1899>
Fore
641 1899 m 5xf4
 839 1635 l 1
 643 1635 l 1
 358 1899 l 1
 641 1899 l 5xf4
EndSplineSet
Refer: 41 69 N 1 0 0 1 0 0 3
EndChar
StartChar: Eacute
Encoding: 201 201 290
Width: 1399
Flags: W
HStem: 0 291<573 1249> 633 291<573 1188> 1202 291<573 1227> 1635 264<741 743>
VStem: 188 385<291 633 924 1202> 545 481<1635 1899>
Fore
743 1899 m 5xf4
 1026 1899 l 1
 741 1635 l 1
 545 1635 l 1
 743 1899 l 5xf4
EndSplineSet
Refer: 41 69 N 1 0 0 1 0 0 3
EndChar
StartChar: Ecircumflex
Encoding: 202 202 291
Width: 1399
Flags: W
HStem: 0 291<573 1249> 633 291<573 1188> 1202 291<573 1227> 1635 264<538 1069>
VStem: 188 385<291 633 924 1202> 315 754<1635 1635>
Fore
538 1899 m 5xf4
 846 1899 l 1
 1069 1635 l 1
 891 1635 l 1
 692 1796 l 1
 493 1635 l 1
 315 1635 l 1
 538 1899 l 5xf4
EndSplineSet
Refer: 41 69 N 1 0 0 1 0 0 3
EndChar
StartChar: Edieresis
Encoding: 203 203 292
Width: 1399
Flags: W
HStem: 0 291<573 1249> 633 291<573 1188> 1202 291<573 1227> 1653 246<377 612 772 1007>
VStem: 188 385<291 633 924 1202> 377 235<1653 1899> 772 235<1653 1899>
Fore
377 1899 m 5xf6
 612 1899 l 1
 612 1653 l 1
 377 1653 l 1
 377 1899 l 5xf6
772 1899 m 5
 1007 1899 l 1
 1007 1653 l 1
 772 1653 l 1
 772 1899 l 5
EndSplineSet
Refer: 41 69 N 1 0 0 1 0 0 3
EndChar
StartChar: Igrave
Encoding: 204 204 293
Width: 762
Flags: W
HStem: 0 21<188 573> 1635 264<305 503>
VStem: 22 481<1635 1899> 188 385<0 1493>
Fore
305 1899 m 5xe0
 503 1635 l 1
 307 1635 l 1
 22 1899 l 1
 305 1899 l 5xe0
EndSplineSet
Refer: 45 73 N 1 0 0 1 0 0 3
EndChar
StartChar: Iacute
Encoding: 205 205 294
Width: 762
Flags: W
HStem: 0 21<188 573> 1635 264<405 407>
VStem: 188 385<0 1493> 209 481<1635 1899>
Fore
407 1899 m 5xd0
 690 1899 l 1
 405 1635 l 1
 209 1635 l 1
 407 1899 l 5xd0
EndSplineSet
Refer: 45 73 N 1 0 0 1 0 0 3
EndChar
StartChar: Icircumflex
Encoding: 206 206 295
Width: 762
Flags: W
HStem: 0 21<188 573> 1635 264<202 733>
VStem: -21 754<1635 1635> 188 385<0 1493>
Fore
202 1899 m 5xe0
 510 1899 l 1
 733 1635 l 1
 555 1635 l 1
 356 1796 l 1
 157 1635 l 1
 -21 1635 l 1
 202 1899 l 5xe0
EndSplineSet
Refer: 45 73 N 1 0 0 1 0 0 3
EndChar
StartChar: Idieresis
Encoding: 207 207 296
Width: 762
Flags: W
HStem: 0 21<188 573> 1653 246<41 276 436 671>
VStem: 41 235<1653 1899> 188 385<0 1493> 436 235<1653 1899>
Fore
41 1899 m 5xe0
 276 1899 l 1
 276 1653 l 1
 41 1653 l 1
 41 1899 l 5xe0
436 1899 m 5xc8
 671 1899 l 1
 671 1653 l 1
 436 1653 l 1
 436 1899 l 5xc8
EndSplineSet
Refer: 45 73 N 1 0 0 1 0 0 3
EndChar
StartChar: Eth
Encoding: 208 208 297
Width: 1716
Flags: W
HStem: 0 291<592 968.353> 621 260<33 207 592 827> 1202 291<592 978.398>
VStem: 207 385<291 621 881 1202> 1214 398<530.929 972.939>
Fore
1214 748 m 0
 1214 1050 1040 1202 729 1202 c 2
 592 1202 l 1
 592 881 l 1
 827 881 l 1
 827 621 l 1
 592 621 l 1
 592 291 l 1
 729 291 l 2
 1039 291 1214 446 1214 748 c 0
207 1493 m 1
 612 1493 l 2
 987 1493 1218 1461 1405 1280 c 0
 1554 1135 1612 954 1612 748 c 0
 1612 328 1362 120 1116 48 c 0
 1004 16 836 0 612 0 c 2
 207 0 l 1
 207 621 l 1
 33 621 l 1
 33 881 l 1
 207 881 l 1
 207 1493 l 1
EndSplineSet
EndChar
StartChar: Ntilde
Encoding: 209 209 298
Width: 1714
Flags: W
HStem: 0 21<188 553 1085.39 1526> 1636 148<917.767 1049.99> 1751 149<621.28 723.496>
VStem: 188 365<0 1024> 1161 365<469 1493>
Fore
1019 1636 m 0xd8
 945 1636 911 1627 823 1684 c 2
 767 1719 l 2
 711 1756 691 1751 684 1751 c 0
 603 1751 612 1648 612 1635 c 1
 473 1635 l 1
 473 1870 592 1900 623 1900 c 0xb8
 695 1900 725 1910 819 1852 c 2
 878 1813 l 2
 891 1804 924 1784 954 1784 c 0
 1036 1784 1030 1874 1030 1901 c 1
 1169 1901 l 1
 1169 1701 1079 1636 1019 1636 c 0xd8
EndSplineSet
Refer: 50 78 N 1 0 0 1 0 0 3
EndChar
StartChar: Ograve
Encoding: 210 210 299
Width: 1741
Flags: W
HStem: -29 279<697.504 1042.94> 1241 279<697.504 1042.94> 1635 264<795 993>
VStem: 102 398<482.559 1008.04> 512 481<1635 1899> 1241 397<482.559 1007.82>
Fore
795 1899 m 5
 993 1635 l 1
 797 1635 l 1
 512 1899 l 1
 795 1899 l 5
EndSplineSet
Refer: 51 79 N 1 0 0 1 0 0 3
EndChar
StartChar: Oacute
Encoding: 211 211 300
Width: 1741
Flags: W
HStem: -29 279<697.504 1042.94> 1241 279<697.504 1042.94> 1635 264<895 897>
VStem: 102 398<482.559 1008.04> 699 481<1635 1899> 1241 397<482.559 1007.82>
Fore
897 1899 m 5
 1180 1899 l 1
 895 1635 l 1
 699 1635 l 1
 897 1899 l 5
EndSplineSet
Refer: 51 79 N 1 0 0 1 0 0 3
EndChar
StartChar: Ocircumflex
Encoding: 212 212 301
Width: 1741
Flags: W
HStem: -29 279<697.504 1042.94> 1241 279<697.504 1042.94> 1635 264<692 1223>
VStem: 102 398<482.559 1008.04> 469 754<1635 1635> 1241 397<482.559 1007.82>
Fore
692 1899 m 5xec
 1000 1899 l 1
 1223 1635 l 1
 1045 1635 l 1
 846 1796 l 1
 647 1635 l 1
 469 1635 l 1
 692 1899 l 5xec
EndSplineSet
Refer: 51 79 N 1 0 0 1 0 0 3
EndChar
StartChar: Otilde
Encoding: 213 213 302
Width: 1741
Flags: W
HStem: -29 279<697.504 1042.94> 1241 279<697.504 1042.94> 1636 148<942.767 1074.99> 1751 149<646.28 748.496>
VStem: 102 398<482.559 1008.04> 1241 397<482.559 1007.82>
Fore
1044 1636 m 0xec
 970 1636 936 1627 848 1684 c 2
 792 1719 l 2
 736 1756 716 1751 709 1751 c 0
 628 1751 637 1648 637 1635 c 1
 498 1635 l 1
 498 1870 617 1900 648 1900 c 0xdc
 720 1900 750 1910 844 1852 c 2
 903 1813 l 2
 916 1804 949 1784 979 1784 c 0
 1061 1784 1055 1874 1055 1901 c 1
 1194 1901 l 1
 1194 1701 1104 1636 1044 1636 c 0xec
EndSplineSet
Refer: 51 79 N 1 0 0 1 0 0 3
EndChar
StartChar: Odieresis
Encoding: 214 214 303
Width: 1741
Flags: W
HStem: -29 279<697.504 1042.94> 1241 279<697.504 1042.94> 1653 246<531 766 926 1161>
VStem: 102 398<482.559 1008.04> 531 235<1653 1899> 926 235<1653 1899> 1241 397<482.559 1007.82>
Fore
531 1899 m 5
 766 1899 l 1
 766 1653 l 1
 531 1653 l 1
 531 1899 l 5
926 1899 m 5
 1161 1899 l 1
 1161 1653 l 1
 926 1653 l 1
 926 1899 l 5
EndSplineSet
Refer: 51 79 N 1 0 0 1 0 0 3
EndChar
StartChar: multiply
Encoding: 215 215 304
Width: 1716
Flags: W
Fore
1460 1075 m 1
 1026 641 l 1
 1460 209 l 1
 1292 41 l 1
 858 473 l 1
 424 41 l 1
 256 209 l 1
 690 641 l 1
 256 1075 l 1
 424 1243 l 1
 858 809 l 1
 1292 1243 l 1
 1460 1075 l 1
EndSplineSet
EndChar
StartChar: Oslash
Encoding: 216 216 305
Width: 1741
Flags: W
HStem: -29 279<695.368 1042.94> 1241 279<697.504 1047.42>
VStem: 102 398<579.712 1008.04> 1241 397<482.559 917.521>
Fore
870 250 m 0
 1129 250 1241 461 1241 745 c 0
 1241 834 1232 912 1210 979 c 1
 604 371 l 1
 667 295 750 250 870 250 c 0
870 1241 m 0
 612 1241 500 1030 500 745 c 0
 500 662 509 585 528 522 c 1
 1133 1126 l 1
 1064 1204 978 1241 870 1241 c 0
870 -29 m 0
 653 -29 488 30 360 129 c 1
 158 -74 l 1
 45 39 l 1
 250 244 l 1
 156 371 102 532 102 745 c 0
 102 1236 394 1520 870 1520 c 0
 1041 1520 1216 1487 1374 1368 c 1
 1573 1567 l 1
 1686 1452 l 1
 1485 1253 l 1
 1583 1127 1638 961 1638 745 c 0
 1638 255 1347 -29 870 -29 c 0
EndSplineSet
EndChar
StartChar: Ugrave
Encoding: 217 217 306
Width: 1663
Flags: W
HStem: -29 283<676.748 987.552> 1635 264<756 954>
VStem: 188 385<365.668 1493> 473 481<1635 1899> 1090 385<365.668 1493>
Fore
756 1899 m 1xd8
 954 1635 l 1
 758 1635 l 1
 473 1899 l 1
 756 1899 l 1xd8
EndSplineSet
Refer: 57 85 N 1 0 0 1 0 0 3
EndChar
StartChar: Uacute
Encoding: 218 218 307
Width: 1663
Flags: W
HStem: -29 283<676.748 987.552> 1635 264<856 858>
VStem: 188 385<365.668 1493> 660 481<1635 1899> 1090 385<365.668 1493>
Fore
858 1899 m 5xf0
 1141 1899 l 1
 856 1635 l 1
 660 1635 l 1
 858 1899 l 5xf0
EndSplineSet
Refer: 57 85 N 1 0 0 1 0 0 3
EndChar
StartChar: Ucircumflex
Encoding: 219 219 308
Width: 1663
Flags: W
HStem: -29 283<676.748 987.552> 1635 264<653 1184>
VStem: 188 385<365.668 1493> 430 754<1635 1635> 1090 385<365.668 1493>
Fore
653 1899 m 5xd0
 961 1899 l 1
 1184 1635 l 1
 1006 1635 l 1
 807 1796 l 1
 608 1635 l 1
 430 1635 l 1
 653 1899 l 5xd0
EndSplineSet
Refer: 57 85 N 1 0 0 1 0 0 3
EndChar
StartChar: Udieresis
Encoding: 220 220 309
Width: 1663
Flags: W
HStem: -29 283<676.748 987.552> 1653 246<492 727 887 1122>
VStem: 188 385<365.668 1493> 492 235<1653 1899> 887 235<1653 1899> 1090 385<365.668 1493>
Fore
492 1899 m 5xd0
 727 1899 l 1
 727 1653 l 1
 492 1653 l 1
 492 1899 l 5xd0
887 1899 m 5xc8
 1122 1899 l 1
 1122 1653 l 1
 887 1653 l 1
 887 1899 l 5xc8
EndSplineSet
Refer: 57 85 N 1 0 0 1 0 0 3
EndChar
StartChar: Yacute
Encoding: 221 221 310
Width: 1483
Flags: W
HStem: 0 21<549 934> 1635 264<766 768>
VStem: 549 385<0 629> 570 481<1635 1899>
Fore
768 1899 m 5xd0
 1051 1899 l 1
 766 1635 l 1
 570 1635 l 1
 768 1899 l 5xd0
EndSplineSet
Refer: 61 89 N 1 0 0 1 0 0 3
EndChar
StartChar: Thorn
Encoding: 222 222 311
Width: 1511
Flags: W
HStem: 0 21G<188 573> 258 279<573 939.548> 956 277<573 939.548>
VStem: 188 385<0 258 537 956 1233 1493> 1020 397<611.301 880.036>
Fore
1417 745 m 0
 1417 413 1184 258 827 258 c 2
 573 258 l 1
 573 0 l 1
 188 0 l 1
 188 1493 l 1
 573 1493 l 1
 573 1233 l 1
 827 1233 l 2
 1184 1233 1417 1079 1417 745 c 0
1020 745 m 0
 1020 884 932 956 786 956 c 2
 573 956 l 1
 573 537 l 1
 786 537 l 2
 931 537 1020 608 1020 745 c 0
EndSplineSet
EndChar
StartChar: germandbls
Encoding: 223 223 312
Width: 1473
Flags: W
HStem: -29 238<750.748 994.484> 1319 237<593.993 871.883>
VStem: 172 358<0 1249.12>
Fore
733 1319 m 0
 629 1319 530 1275 530 1100 c 2
 530 0 l 1
 172 0 l 1
 172 1114 l 2
 172 1432 380 1556 715 1556 c 0
 1183 1556 1245 1286 1245 1114 c 2
 1245 1043 l 1
 984 1026 950 946 950 881 c 0
 950 823 990 792 1092 735 c 2
 1161 698 l 2
 1284 630 1384 533 1384 348 c 0
 1384 46 1165 -29 924 -29 c 0
 869 -29 779 -23 647 20 c 1
 647 264 l 1
 707 235 786 209 872 209 c 0
 968 209 1032 261 1032 338 c 0
 1032 406 997 442 879 508 c 2
 809 547 l 2
 715 599 637 680 637 821 c 0
 637 951 699 1069 921 1145 c 1
 920 1260 853 1319 733 1319 c 0
EndSplineSet
EndChar
StartChar: acircumflex
Encoding: 226 226 315
Width: 1382
Flags: W
HStem: -29 238<362 693.816> 504 213<500.863 860> 909 238<397.406 797.83> 1262 376<577 1075>
VStem: 321 754<1262 1262> 860 361<0 166 312.603 504 717 852.296>
Fore
577 1638 m 5xf8
 819 1638 l 1
 1075 1262 l 1
 897 1262 l 1
 698 1487 l 1
 499 1262 l 1
 321 1262 l 1
 577 1638 l 5xf8
EndSplineSet
Refer: 69 97 N 1 0 0 1 0 0 3
EndChar
StartChar: atilde
Encoding: 227 227 316
Width: 1382
Flags: HW
HStem: -29 238<362 693.816> 504 213<500.863 860> 909 238<397.406 797.83> 1310 148<794.767 926.993> 1425 149<498.28 600.496>
VStem: 860 361<0 166 312.603 504 717 852.296>
Fore
896 1310 m 0xf4
 822 1310 788 1301 700 1358 c 2
 644 1393 l 2
 588 1430 568 1425 561 1425 c 0
 480 1425 489 1322 489 1309 c 1
 350 1309 l 1
 350 1544 469 1574 500 1574 c 0xec
 572 1574 602 1584 696 1526 c 2
 755 1487 l 2
 768 1478 801 1458 831 1458 c 0
 913 1458 907 1548 907 1575 c 1
 1046 1575 l 1
 1046 1375 956 1310 896 1310 c 0xf4
EndSplineSet
Refer: 69 97 N 1 0 0 1 0 0 3
EndChar
StartChar: aring
Encoding: 229 229 318
Width: 1382
Flags: W
HStem: -29 238<362 693.816> 504 213<500.863 860> 909 238<397.406 797.83> 1249 154<596.705 799.295> 1665 154<596.705 799.295>
VStem: 413 154<1432.7 1635.3> 829 154<1432.7 1635.3> 860 361<0 166 312.603 504 717 852.296>
Fore
567 1534 m 0xfe
 567 1454 618 1403 698 1403 c 0
 778 1403 829 1454 829 1534 c 0
 829 1614 778 1665 698 1665 c 0
 618 1665 567 1614 567 1534 c 0xfe
413 1534 m 256
 413 1694 538 1819 698 1819 c 256
 858 1819 983 1694 983 1534 c 256
 983 1374 858 1249 698 1249 c 256
 538 1249 413 1374 413 1534 c 256
EndSplineSet
Refer: 69 97 N 1 0 0 1 0 0 3
EndChar
StartChar: ae
Encoding: 230 230 319
Width: 2146
Flags: W
HStem: -29 238<492.27 745.118 1329.01 1787.04> 461 221<1217 1679> 504 213<500.863 860> 909 238<296.736 796.95 1313.66 1596.14>
Fore
1679 682 m 1xd0
 1679 819 1593 909 1464 909 c 0
 1317 909 1237 819 1217 682 c 1
 1679 682 l 1xd0
621 209 m 0
 756 209 860 315 860 463 c 2
 860 504 l 1
 674 504 l 2xb0
 549 504 449 468 449 354 c 0
 449 259 518 209 621 209 c 0
584 909 m 0
 423 909 294 875 186 817 c 1
 186 1090 l 1
 313 1120 471 1147 625 1147 c 0
 825 1147 968 1097 1063 991 c 1
 1158 1086 1291 1147 1466 1147 c 0
 1815 1147 2048 926 2048 563 c 2
 2048 461 l 1
 1210 461 l 1xd0
 1229 291 1334 209 1520 209 c 0
 1710 209 1879 281 1995 344 c 1
 1995 68 l 1
 1804 -4 1633 -29 1487 -29 c 0
 1250 -29 1068 44 971 178 c 1
 836 35 693 -29 508 -29 c 0
 257 -29 88 103 88 336 c 0
 88 565 217 717 649 717 c 2
 860 717 l 1
 860 745 l 2
 860 843 797 909 584 909 c 0
EndSplineSet
EndChar
StartChar: ecircumflex
Encoding: 234 234 323
Width: 1389
Flags: W
HStem: -29 238<570.324 1026.56> 461 221<457 922> 909 238<555.199 838.978> 1262 376<608 1106>
VStem: 352 754<1262 1262>
Fore
608 1638 m 5
 850 1638 l 1
 1106 1262 l 1
 928 1262 l 1
 729 1487 l 1
 530 1262 l 1
 352 1262 l 1
 608 1638 l 5
EndSplineSet
Refer: 73 101 N 1 0 0 1 0 0 3
EndChar
StartChar: igrave
Encoding: 236 236 325
Width: 702
Flags: W
HStem: 0 21G<172 530> 1262 376<240 522>
VStem: -43 565<1262 1638> 172 358<0 1120>
Fore
172 1120 m 5xd0
 530 1120 l 1
 530 0 l 1
 172 0 l 1
 172 1120 l 5xd0
EndSplineSet
Refer: 68 96 N 1 0 0 1 -137 0 2
EndChar
StartChar: iacute
Encoding: 237 237 326
Width: 702
Flags: W
HStem: 0 21G<172 530> 1262 376<424 510>
VStem: 172 358<0 1120> 228 565<1262 1638>
Fore
172 1120 m 5xe0
 530 1120 l 1
 530 0 l 1
 172 0 l 1
 172 1120 l 5xe0
EndSplineSet
Refer: 119 180 N 1 0 0 1 -137 0 2
EndChar
StartChar: icircumflex
Encoding: 238 238 327
Width: 702
Flags: W
HStem: 0 21G<172 530>
VStem: 172 358<0 1120>
Fore
254 1638 m 5
 496 1638 l 1
 752 1262 l 1
 574 1262 l 1
 375 1487 l 1
 176 1262 l 1
 -2 1262 l 1
 254 1638 l 5
172 1120 m 5
 530 1120 l 1
 530 0 l 1
 172 0 l 1
 172 1120 l 5
EndSplineSet
EndChar
StartChar: idieresis
Encoding: 239 239 328
Width: 702
Flags: W
HStem: 0 21G<172 530> 1339 246<60 295 455 690>
VStem: 60 235<1339 1585> 172 358<0 1120> 455 235<1339 1585>
Fore
172 1120 m 5xd0
 530 1120 l 1
 530 0 l 1
 172 0 l 1
 172 1120 l 5xd0
EndSplineSet
Refer: 107 168 N 1 0 0 1 -137 0 2
EndChar
StartChar: eth
Encoding: 240 240 329
Width: 1407
Flags: W
HStem: -29 256<566.355 842.448> 797 258<554.745 772.748>
VStem: 88 373<348.627 700.936> 946 373<348.785 696.748>
Fore
705 227 m 0
 878 227 946 369 946 559 c 0
 946 626 936 686 920 743 c 1
 867 769 791 797 705 797 c 0
 548 797 461 704 461 543 c 0
 461 361 540 227 705 227 c 0
88 559 m 0
 88 878 311 1055 653 1055 c 0
 717 1055 766 1046 813 1028 c 1
 623 1247 l 1
 250 1128 l 1
 213 1257 l 1
 520 1354 l 1
 332 1556 l 1
 684 1556 l 1
 795 1440 l 1
 1171 1554 l 1
 1206 1425 l 1
 891 1329 l 1
 1096 1100 l 2
 1237 937 1319 775 1319 559 c 0
 1319 188 1091 -29 705 -29 c 0
 319 -29 88 188 88 559 c 0
EndSplineSet
EndChar
StartChar: ntilde
Encoding: 241 241 330
Width: 1458
Flags: HW
HStem: 0 21<172 530 938 1298> 877 270<705.917 1039> 1310 148<850.767 982.993> 1425 149<554.28 656.496>
VStem: 172 358<0 760.424 956 1120> 938 360<0 819.974>
Fore
952 1310 m 0xec
 878 1310 844 1301 756 1358 c 2
 700 1393 l 2
 644 1430 624 1425 617 1425 c 0
 536 1425 545 1322 545 1309 c 1
 406 1309 l 1
 406 1544 525 1574 556 1574 c 0xdc
 628 1574 658 1584 752 1526 c 2
 811 1487 l 2
 824 1478 857 1458 887 1458 c 0
 969 1458 963 1548 963 1575 c 1
 1102 1575 l 1
 1102 1375 1012 1310 952 1310 c 0xec
EndSplineSet
Refer: 82 110 N 1 0 0 1 0 0 3
EndChar
StartChar: ocircumflex
Encoding: 244 244 333
Width: 1407
Flags: W
HStem: -29 256<566.442 842.448> 891 256<566.521 842.67> 1262 376<606 1104>
VStem: 88 373<348.785 769.422> 350 754<1262 1262> 946 373<348.785 772.229>
Fore
606 1638 m 5xe8
 848 1638 l 1
 1104 1262 l 1
 926 1262 l 1
 727 1487 l 1
 528 1262 l 1
 350 1262 l 1
 606 1638 l 5xe8
EndSplineSet
Refer: 83 111 N 1 0 0 1 0 0 3
EndChar
StartChar: otilde
Encoding: 245 245 334
Width: 1407
Flags: HW
HStem: -29 256<566.442 842.448> 891 256<566.521 842.67> 1310 148<823.767 955.993> 1426 148<527.28 629.496>
VStem: 88 373<348.785 769.422> 946 373<348.785 772.229>
Fore
925 1310 m 0xec
 851 1310 817 1302 729 1358 c 2
 673 1394 l 2
 617 1430 597 1426 590 1426 c 0xdc
 509 1426 518 1322 518 1310 c 1
 379 1310 l 1xec
 379 1544 498 1574 529 1574 c 0xdc
 601 1574 631 1584 725 1526 c 2
 784 1488 l 2
 797 1478 830 1458 860 1458 c 0
 942 1458 936 1548 936 1576 c 1
 1075 1576 l 1
 1075 1376 985 1310 925 1310 c 0xec
EndSplineSet
Refer: 83 111 N 1 0 0 1 0 0 3
EndChar
StartChar: divide
Encoding: 247 247 336
Width: 1716
Flags: W
HStem: 86 309<705 1012> 524 236<217 1499> 889 309<705 1012>
VStem: 705 307<86 395 889 1198>
CounterMasks: 1 e0
Fore
705 395 m 1
 1012 395 l 1
 1012 86 l 1
 705 86 l 1
 705 395 l 1
705 1198 m 1
 1012 1198 l 1
 1012 889 l 1
 705 889 l 1
 705 1198 l 1
217 760 m 1
 1499 760 l 1
 1499 524 l 1
 217 524 l 1
 217 760 l 1
EndSplineSet
EndChar
StartChar: oslash
Encoding: 248 248 337
Width: 1407
Flags: W
HStem: -29 256<567.129 842.448> 891 256<566.521 802.53> 1197 20G<1193.39 1233.58>
VStem: 88 373<447.186 769.422> 946 373<348.785 673.834>
Fore
705 891 m 0
 530 891 461 750 461 559 c 0
 461 532 462 477 475 426 c 1
 856 836 l 1
 814 877 762 891 705 891 c 0
705 227 m 0
 878 227 946 369 946 559 c 0
 946 629 938 671 932 698 c 1
 547 287 l 1
 592 244 646 227 705 227 c 0
705 -29 m 0
 595 -29 463 -12 338 61 c 1
 190 -94 l 1
 78 0 l 1
 223 158 l 1
 121 277 88 418 88 559 c 0
 88 930 318 1147 705 1147 c 0
 853 1147 969 1115 1065 1059 c 1
 1212 1217 l 1
 1321 1116 l 1
 1180 967 l 1
 1285 847 1319 702 1319 559 c 0
 1319 188 1091 -29 705 -29 c 0
EndSplineSet
EndChar
StartChar: ucircumflex
Encoding: 251 251 340
Width: 1458
Flags: W
HStem: -29 271<421 752.595> 1262 376<633 1131>
VStem: 160 360<406.091 1120> 377 754<1262 1262> 928 358<0 162 357.983 1120>
Fore
633 1638 m 5xd0
 875 1638 l 1
 1131 1262 l 1
 953 1262 l 1
 754 1487 l 1
 555 1262 l 1
 377 1262 l 1
 633 1638 l 5xd0
EndSplineSet
Refer: 89 117 N 1 0 0 1 0 0 3
EndChar
StartChar: thorn
Encoding: 254 254 343
Width: 1466
Flags: W
HStem: -29 260<701.673 1043.77> 887 260<701.304 1044.49>
VStem: 172 358<-426 162 341.97 776.437 956 1556> 1004 370<349.914 767.686>
Fore
901 -29 m 0
 720 -29 612 54 530 162 c 1
 530 -426 l 1
 172 -426 l 1
 172 1556 l 1
 530 1556 l 1
 530 956 l 1
 611 1063 719 1147 901 1147 c 0
 1185 1147 1374 900 1374 559 c 256
 1374 217 1184 -29 901 -29 c 0
1004 559 m 256
 1004 747 940 887 768 887 c 256
 597 887 530 747 530 559 c 256
 530 372 597 231 768 231 c 256
 939 231 1004 370 1004 559 c 256
EndSplineSet
EndChar
StartChar: Cacute
Encoding: 262 262 345
Width: 1503
Flags: W
HStem: -29 279<733.053 1191.49> 1241 279<732.91 1189.52> 1635 264<919 921>
VStem: 102 398<511.364 979.178> 723 481<1635 1899>
Fore
921 1899 m 5
 1204 1899 l 1
 919 1635 l 1
 723 1635 l 1
 921 1899 l 5
EndSplineSet
Refer: 39 67 N 1 0 0 1 0 0 3
EndChar
StartChar: Ccaron
Encoding: 268 268 347
Width: 1503
Flags: W
HStem: -29 279<733.053 1191.49> 1241 279<732.91 1189.52> 1635 264<493 716>
VStem: 102 398<511.364 979.178> 493 754<1899 1899>
Fore
716 1635 m 5xe8
 493 1899 l 1
 671 1899 l 1
 870 1737 l 1
 1069 1899 l 1
 1247 1899 l 1
 1024 1635 l 1
 716 1635 l 5xe8
EndSplineSet
Refer: 39 67 N 1 0 0 1 0 0 3
EndChar
StartChar: ccaron
Encoding: 269 269 348
Width: 1214
Flags: W
HStem: -29 256<604.808 985.333> 891 256<604.808 981.406> 1262 376<346 602>
VStem: 88 373<373.953 744.047> 346 754<1638 1638>
Fore
602 1262 m 5xe8
 346 1638 l 1
 524 1638 l 1
 723 1411 l 1
 922 1638 l 1
 1100 1638 l 1
 844 1262 l 1
 602 1262 l 5xe8
EndSplineSet
Refer: 71 99 N 1 0 0 1 0 0 3
EndChar
StartChar: dcroat
Encoding: 273 273 349
Width: 1466
Flags: W
HStem: -29 260<422.19 764.766> 887 260<422.579 764.138> 1237 205<608 934 1294 1448>
VStem: 92 371<347.222 772.261> 934 360<0 162 341.157 776.437 956 1237 1442 1556>
Fore
565 1147 m 0
 745 1147 854 1062 934 956 c 1
 934 1237 l 1
 608 1237 l 1
 608 1442 l 1
 934 1442 l 1
 934 1556 l 1
 1294 1556 l 1
 1294 1442 l 1
 1448 1442 l 1
 1448 1237 l 1
 1294 1237 l 1
 1294 0 l 1
 934 0 l 1
 934 162 l 1
 855 56 748 -29 565 -29 c 0
 281 -29 92 218 92 559 c 256
 92 901 282 1147 565 1147 c 0
463 559 m 256
 463 277 604 231 698 231 c 0
 869 231 934 370 934 559 c 256
 934 747 870 887 698 887 c 0
 528 887 463 747 463 559 c 256
EndSplineSet
EndChar
StartChar: Gbreve
Encoding: 286 286 350
Width: 1681
Flags: W
HStem: -29 279<747.648 1111.6> 571 258<930 1165> 1241 279<750.503 1256.79> 1635 143<668.059 929.36>
VStem: 102 398<499.359 984.292> 481 672<1850.73 1899 1899 1899> 1165 365<281 571>
Fore
819 1778 m 4xf6
 864 1778 966 1771 1010 1899 c 5
 1153 1899 l 5
 1146 1844 l 6
 1127 1693 986 1635 817 1635 c 4
 648 1635 507 1693 488 1844 c 6
 481 1899 l 5
 624 1899 l 5
 653 1807 707 1779 819 1778 c 4xf6
EndSplineSet
Refer: 43 71 N 1 0 0 1 0 0 3
EndChar
StartChar: gbreve
Encoding: 287 287 351
Width: 1466
Flags: W
HStem: -442 237<430.418 799.508> 0 260<419.88 766.359> 887 258<421.197 766.521> 1342 143<584.059 845.36>
VStem: 92 371<369.416 775.199> 397 672<1557.73 1606 1606 1606> 934 360<-80.0693 190 370.525 775.882 954 1120>
Fore
735 1485 m 0xf4
 780 1485 882 1478 926 1606 c 1
 1069 1606 l 1
 1062 1551 l 2
 1043 1400 902 1342 733 1342 c 0
 564 1342 423 1400 404 1551 c 2
 397 1606 l 1
 540 1606 l 1
 569 1514 623 1486 735 1485 c 0xf4
EndSplineSet
Refer: 75 103 N 1 0 0 1 0 0 3
EndChar
StartChar: Idotaccent
Encoding: 304 304 352
Width: 762
Flags: W
HStem: 0 21<188 573> 1653 246<219 493>
VStem: 188 385<0 1493> 219 274<1653 1899>
Fore
219 1899 m 5xd0
 493 1899 l 1
 493 1653 l 1
 219 1653 l 1
 219 1899 l 5xd0
EndSplineSet
Refer: 45 73 N 1 0 0 1 0 0 3
EndChar
StartChar: dotlessi
Encoding: 305 305 353
Width: 702
Flags: W
HStem: 0 21G<172 530>
VStem: 172 358<0 1120>
Fore
172 1120 m 1
 530 1120 l 1
 530 0 l 1
 172 0 l 1
 172 1120 l 1
EndSplineSet
EndChar
StartChar: Lslash
Encoding: 321 321 354
Width: 1315
Flags: W
HStem: 0 291<584 1260>
VStem: 199 385<291 524 1077 1493>
Fore
199 1493 m 1
 584 1493 l 1
 584 1077 l 1
 838 1262 l 1
 981 1069 l 1
 584 797 l 1
 584 291 l 1
 1260 291 l 1
 1260 0 l 1
 199 0 l 1
 199 524 l 1
 51 418 l 1
 -92 608 l 1
 199 805 l 1
 199 1493 l 1
EndSplineSet
EndChar
StartChar: lslash
Encoding: 322 322 355
Width: 760
Flags: W
HStem: 0 21G<199 559> 1123 20G<658.682 702.416>
VStem: 199 360<0 641 1055 1556>
Fore
199 1556 m 1
 559 1556 l 1
 559 1055 l 1
 688 1143 l 1
 799 989 l 1
 559 825 l 1
 559 0 l 1
 199 0 l 1
 199 641 l 1
 74 555 l 1
 -37 709 l 1
 199 872 l 1
 199 1556 l 1
EndSplineSet
EndChar
StartChar: OE
Encoding: 338 338 356
Width: 2390
Flags: W
HStem: 0 291<780.628 1018 1018 1180 1565 2241> 633 291<1565 2179> 1202 291<774.821 1180 1565 2218>
VStem: 102 398<539.038 953.077> 1180 385<291 633 924 1202>
Fore
500 748 m 0
 500 474 654 291 1075 291 c 2
 1180 291 l 1
 1180 1202 l 1
 1075 1202 l 2
 726 1202 500 1079 500 748 c 0
1018 1493 m 2
 2218 1493 l 1
 2218 1202 l 1
 1565 1202 l 1
 1565 924 l 1
 2179 924 l 1
 2179 633 l 1
 1565 633 l 1
 1565 291 l 1
 2241 291 l 1
 2241 0 l 1
 1018 0 l 2
 467 0 102 234 102 748 c 0
 102 1260 466 1493 1018 1493 c 2
EndSplineSet
EndChar
StartChar: oe
Encoding: 339 339 357
Width: 2241
Flags: W
HStem: -29 256<566.442 842.762> -29 238<1424.07 1878.56> 461 221<1309 1774> 891 256<566.521 843.788> 909 238<1409.68 1693.59>
VStem: 88 373<348.785 769.422>
Fore
1774 682 m 1x2c
 1774 819 1688 909 1559 909 c 0
 1412 909 1329 820 1309 682 c 1
 1774 682 l 1x2c
1542 1147 m 0
 1917 1147 2142 923 2142 563 c 2
 2142 461 l 1
 1305 461 l 1
 1316 356 1367 209 1614 209 c 0
 1804 209 1973 281 2089 344 c 1
 2089 68 l 1
 1958 18 1784 -29 1581 -29 c 0x6c
 1367 -29 1228 20 1130 139 c 1
 1029 36 890 -29 705 -29 c 0
 319 -29 88 188 88 559 c 256
 88 930 318 1147 705 1147 c 0xb4
 895 1147 1026 1086 1126 979 c 1
 1230 1090 1354 1147 1542 1147 c 0
946 559 m 256
 946 749 879 891 705 891 c 0
 530 891 461 750 461 559 c 256
 461 369 529 227 705 227 c 0xb4
 878 227 946 369 946 559 c 256
EndSplineSet
EndChar
StartChar: Scaron
Encoding: 352 352 360
Width: 1475
Flags: W
HStem: -29 279<421.321 885.236> 1241 279<554.88 954.916> 1635 264<336 559>
VStem: 336 754<1899 1899>
Fore
559 1635 m 5
 336 1899 l 1
 514 1899 l 1
 713 1737 l 1
 912 1899 l 1
 1090 1899 l 1
 867 1635 l 1
 559 1635 l 5
EndSplineSet
Refer: 55 83 N 1 0 0 1 0 0 3
EndChar
StartChar: scaron
Encoding: 353 353 361
Width: 1219
Flags: W
HStem: -29 238<272.66 748.25> 909 238<445.515 815.396> 1262 376<233 489>
VStem: 233 754<1638 1638>
Fore
489 1262 m 5
 233 1638 l 1
 411 1638 l 1
 610 1411 l 1
 809 1638 l 1
 987 1638 l 1
 731 1262 l 1
 489 1262 l 5
EndSplineSet
Refer: 87 115 N 1 0 0 1 0 0 3
EndChar
StartChar: Ydieresis
Encoding: 376 376 362
Width: 1483
Flags: W
HStem: 0 21<549 934> 1653 246<402 637 797 1032>
VStem: 402 235<1653 1899> 549 385<0 629> 797 235<1653 1899>
Fore
402 1899 m 5xe0
 637 1899 l 1
 637 1653 l 1
 402 1653 l 1
 402 1899 l 5xe0
797 1899 m 5xc8
 1032 1899 l 1
 1032 1653 l 1
 797 1653 l 1
 797 1899 l 5xc8
EndSplineSet
Refer: 61 89 N 1 0 0 1 0 0 3
EndChar
StartChar: Zcaron
Encoding: 381 381 363
Width: 1485
Flags: W
HStem: 0 291<569 1393> 1202 291<115 893> 1635 264<342 565>
VStem: 342 754<1899 1899>
Fore
565 1635 m 5
 342 1899 l 1
 520 1899 l 1
 719 1737 l 1
 918 1899 l 1
 1096 1899 l 1
 873 1635 l 1
 565 1635 l 5
EndSplineSet
Refer: 62 90 N 1 0 0 1 0 0 3
EndChar
StartChar: zcaron
Encoding: 382 382 364
Width: 1192
Flags: W
HStem: 0 256<504 1094> 864 256<117 682> 1262 376<219 475>
VStem: 219 754<1638 1638>
Fore
475 1262 m 5
 219 1638 l 1
 397 1638 l 1
 596 1411 l 1
 795 1638 l 1
 973 1638 l 1
 717 1262 l 1
 475 1262 l 5
EndSplineSet
Refer: 94 122 N 1 0 0 1 0 0 3
EndChar
StartChar: florin
Encoding: 402 402 365
Width: 1425
Flags: W
HStem: -426 238<99.0391 300.01> 657 238<270 512 913 1198> 1319 237<1040.85 1241.89>
Fore
1069 1556 m 0
 1168 1556 1253 1540 1335 1516 c 1
 1335 1262 l 1
 1290 1290 1232 1319 1163 1319 c 0
 1033 1319 979 1233 946 1063 c 2
 913 895 l 1
 1198 895 l 1
 1198 657 l 1
 866 657 l 1
 733 -16 l 2
 684 -263 552 -426 272 -426 c 0
 174 -426 87 -410 6 -385 c 1
 6 -131 l 1
 50 -159 109 -188 178 -188 c 0
 308 -188 361 -99 395 68 c 2
 512 657 l 1
 270 657 l 1
 270 895 l 1
 559 895 l 1
 610 1147 l 2
 660 1391 789 1556 1069 1556 c 0
EndSplineSet
EndChar
StartChar: circumflex
Encoding: 710 710 366
Width: 1024
Flags: W
HStem: 1262 376<391 889>
VStem: 135 754<1262 1262>
Fore
391 1638 m 1
 633 1638 l 1
 889 1262 l 1
 711 1262 l 1
 512 1487 l 1
 313 1262 l 1
 135 1262 l 1
 391 1638 l 1
EndSplineSet
EndChar
StartChar: caron
Encoding: 711 711 367
Width: 1024
Flags: W
HStem: 1262 376<135 391>
VStem: 135 754<1638 1638>
Fore
391 1262 m 1
 135 1638 l 1
 313 1638 l 1
 512 1411 l 1
 711 1638 l 1
 889 1638 l 1
 633 1262 l 1
 391 1262 l 1
EndSplineSet
EndChar
StartChar: breve
Encoding: 728 728 368
Width: 1024
Flags: W
HStem: 1309 153<372.198 651.287>
VStem: 176 672<1412 1462 1606 1606>
Fore
848 1606 m 1
 840 1412 719 1309 512 1309 c 256
 306 1309 184 1412 176 1606 c 1
 319 1606 l 1
 334 1512 401 1462 512 1462 c 256
 666 1462 697 1558 705 1606 c 1
 848 1606 l 1
EndSplineSet
EndChar
StartChar: dotaccent
Encoding: 729 729 369
Width: 1024
Flags: W
HStem: 1339 246<375 649>
VStem: 375 274<1339 1585>
Fore
375 1585 m 1
 649 1585 l 1
 649 1339 l 1
 375 1339 l 1
 375 1585 l 1
EndSplineSet
EndChar
StartChar: ring
Encoding: 730 730 370
Width: 1024
Flags: W
HStem: 1249 154<416.274 609.839> 1665 154<414.161 608.062>
VStem: 227 154<1436.16 1629.73> 643 154<1438.27 1631.49>
Fore
512 1665 m 0
 436 1665 381 1604 381 1534 c 0
 381 1458 442 1403 512 1403 c 0
 588 1403 643 1464 643 1534 c 256
 643 1608 584 1665 512 1665 c 0
512 1249 m 256
 350 1249 227 1378 227 1534 c 256
 227 1696 356 1819 512 1819 c 256
 674 1819 797 1690 797 1534 c 256
 797 1372 668 1249 512 1249 c 256
EndSplineSet
EndChar
StartChar: ogonek
Encoding: 731 731 371
Width: 1024
Flags: W
HStem: -401 147<518.145 677.829> -20 20G<426 594>
VStem: 342 164<-236.794 -85.8831>
Fore
342 -223 m 0
 342 -134 399 -58 453 0 c 1
 594 0 l 1
 527 -89 506 -133 506 -166 c 0
 506 -219 549 -254 614 -254 c 0
 661 -254 712 -246 770 -223 c 1
 770 -379 l 1
 677 -398 618 -401 580 -401 c 0
 442 -401 342 -349 342 -223 c 0
EndSplineSet
EndChar
StartChar: tilde
Encoding: 732 732 372
Width: 1024
Flags: W
HStem: 1307 155<561.826 707.206> 1438 155<315.972 463.808>
VStem: 164 139<1309 1425.94> 721 139<1474.06 1591>
Fore
860 1591 m 1xb0
 860 1434 805 1307 664 1307 c 0xb0
 604 1307 559 1333 514 1364 c 2
 459 1401 l 2
 446 1408 406 1438 377 1438 c 0
 347 1438 303 1421 303 1317 c 2
 303 1309 l 1
 164 1309 l 1
 164 1466 219 1593 360 1593 c 0x70
 424 1593 477 1560 510 1536 c 2
 571 1493 l 2
 578 1488 615 1462 645 1462 c 0
 701 1462 721 1520 721 1583 c 2
 721 1591 l 1
 860 1591 l 1xb0
EndSplineSet
EndChar
StartChar: hungarumlaut
Encoding: 733 733 373
Width: 1024
Flags: W
HStem: 1262 376<356 387>
VStem: 193 788<1262 1638>
Fore
387 1638 m 1
 604 1638 l 1
 356 1262 l 1
 193 1262 l 1
 387 1638 l 1
750 1638 m 1
 981 1638 l 1
 709 1262 l 1
 535 1262 l 1
 750 1638 l 1
EndSplineSet
EndChar
StartChar: Omega
Encoding: 937 937 374
Width: 1575
Flags: W
HStem: 0 256<55 346 1227 1518> 1241 268<600.286 974.242>
VStem: 98 308<559.583 1027.83> 1167 308<559.872 1034.15>
Fore
1475 819 m 0
 1475 563 1364 387 1227 256 c 1
 1518 256 l 1
 1518 0 l 1
 909 0 l 1
 909 291 l 1
 1075 404 1167 582 1167 805 c 0
 1167 1068 1032 1241 786 1241 c 0
 541 1241 406 1068 406 805 c 0
 406 584 498 403 664 291 c 1
 664 0 l 1
 55 0 l 1
 55 256 l 1
 346 256 l 1
 211 386 98 561 98 819 c 0
 98 1245 373 1509 786 1509 c 0
 1212 1509 1475 1233 1475 819 c 0
EndSplineSet
EndChar
StartChar: pi
Encoding: 960 960 375
Width: 1319
Flags: W
HStem: 0 21G<174 464.479 698 988.548> 868 224<210.672 326 612 850 1139 1315>
Fore
-35 737 m 1
 2 990 101 1092 399 1092 c 2
 1354 1092 l 1
 1315 868 l 1
 1139 868 l 1
 985 0 l 1
 698 0 l 1
 850 868 l 1
 612 868 l 1
 461 0 l 1
 174 0 l 1
 326 868 l 1
 301 868 l 2
 227 868 191 828 178 738 c 1
 -35 737 l 1
EndSplineSet
EndChar
StartChar: Euro
Encoding: 8364 8364 376
Width: 1425
Flags: W
HStem: -29 262<739.435 1122.55> 477 195<49 147 573 872> 821 195<49 147 573 1026> 1257 263<739.093 1122.97>
Fore
1288 391 m 1
 1288 82 l 1
 1145 -1 1003 -29 874 -29 c 0
 501 -29 271 173 178 477 c 1
 -39 477 l 1
 49 672 l 1
 147 672 l 1
 145 697 145 720 145 745 c 0
 145 771 145 794 147 821 c 1
 -39 821 l 1
 49 1016 l 1
 178 1016 l 1
 273 1318 498 1520 874 1520 c 0
 1041 1520 1178 1473 1288 1409 c 1
 1288 1100 l 1
 1191 1193 1070 1257 924 1257 c 0
 713 1257 617 1131 573 1016 c 1
 1112 1016 l 1
 1026 821 l 1
 533 821 l 1
 531 804 530 786 530 733 c 0
 530 709 531 684 532 672 c 1
 961 672 l 1
 872 477 l 1
 573 477 l 1
 655 278 799 233 923 233 c 0
 1070 233 1189 298 1288 391 c 1
EndSplineSet
EndChar
StartChar: trademark
Encoding: 8482 8482 377
Width: 2048
Flags: W
HStem: 1350 143<295 467 639 813>
VStem: 467 172<915 1350> 926 172<915 1352> 1448 170<915 1352>
Fore
1153 1493 m 1
 1272 1266 l 1
 1391 1493 l 1
 1618 1493 l 1
 1618 915 l 1
 1448 915 l 1
 1448 1352 l 1
 1311 1096 l 1
 1235 1096 l 1
 1098 1352 l 1
 1098 915 l 1
 926 915 l 1
 926 1493 l 1
 1153 1493 l 1
813 1493 m 1
 813 1350 l 1
 639 1350 l 1
 639 915 l 1
 467 915 l 1
 467 1350 l 1
 295 1350 l 1
 295 1493 l 1
 813 1493 l 1
EndSplineSet
EndChar
StartChar: partialdiff
Encoding: 8706 8706 378
Width: 1114
Flags: W
HStem: -25 76<387.932 573.445> 770 90<463.025 649.074> 1249 113<507.5 768.478>
VStem: 59 273<192.667 582.083> 809 246<690.427 1052.99>
Fore
477 860 m 0
 630 860 711 787 766 684 c 1
 805 895 809 1005 809 1040 c 0
 809 1143 770 1249 711 1249 c 0
 641 1249 536 1063 399 1063 c 0
 336 1063 287 1112 287 1180 c 0
 287 1264 415 1362 600 1362 c 0
 906 1362 1055 1102 1055 761 c 0
 1055 531 1001 343 892 196 c 0
 784 48 645 -25 475 -25 c 0
 234 -25 59 141 59 391 c 0
 59 687 260 860 473 860 c 0
 474 860 476 860 477 860 c 0
479 51 m 0
 610 51 698 267 698 532 c 0
 698 653 665 770 557 770 c 0
 422 770 332 556 332 286 c 0
 332 164 364 51 475 51 c 0
 476 51 477 51 479 51 c 0
EndSplineSet
EndChar
StartChar: uni2206
Encoding: 8710 8710 379
Width: 1427
Flags: W
HStem: 0 256<387 1040> 1453 20G<555.356 871.644>
Fore
713 1110 m 1
 387 256 l 1
 1040 256 l 1
 713 1110 l 1
563 1473 m 1
 864 1473 l 1
 1427 0 l 1
 0 0 l 1
 563 1473 l 1
EndSplineSet
EndChar
StartChar: product
Encoding: 8719 8719 380
Width: 1612
Flags: W
HStem: 1184 289<494 1114>
VStem: 150 344<-393 1184> 1114 344<-393 1184>
Fore
150 1473 m 1
 1458 1473 l 1
 1458 -393 l 1
 1114 -393 l 1
 1114 1184 l 1
 494 1184 l 1
 494 -393 l 1
 150 -393 l 1
 150 1473 l 1
EndSplineSet
EndChar
StartChar: summation
Encoding: 8721 8721 381
Width: 1470
Flags: W
HStem: -393 266<494 1427> 1208 265<496 1374>
Fore
66 1473 m 1
 1374 1473 l 1
 1374 1208 l 1
 496 1208 l 1
 1116 563 l 1
 494 -127 l 1
 1427 -127 l 1
 1427 -393 l 1
 41 -393 l 1
 41 -221 l 1
 739 551 l 1
 66 1241 l 1
 66 1473 l 1
EndSplineSet
EndChar
StartChar: minus
Encoding: 8722 8722 382
Width: 1716
Flags: W
HStem: 524 236<217 1499>
Fore
217 760 m 1
 1499 760 l 1
 1499 524 l 1
 217 524 l 1
 217 760 l 1
EndSplineSet
EndChar
StartChar: uni2215
Encoding: 8725 8725 383
Width: 342
Flags: W
Fore
-184 -29 m 1
 -408 -29 l 1
 526 1520 l 1
 750 1520 l 1
 -184 -29 l 1
EndSplineSet
EndChar
StartChar: uni2219
Encoding: 8729 8729 384
Width: 778
Flags: W
HStem: 518 387<209 569>
VStem: 209 360<518 905>
Fore
209 905 m 1
 569 905 l 1
 569 518 l 1
 209 518 l 1
 209 905 l 1
EndSplineSet
EndChar
StartChar: radical
Encoding: 8730 8730 385
Width: 1366
Flags: W
HStem: 1565 149<1274 1370>
Fore
1155 1714 m 1
 1370 1714 l 1
 1370 1565 l 1
 1274 1565 l 1
 684 -41 l 1
 565 -41 l 1
 258 805 l 1
 113 750 l 1
 76 879 l 1
 436 1006 l 1
 659 371 l 1
 1155 1714 l 1
EndSplineSet
EndChar
StartChar: infinity
Encoding: 8734 8734 386
Width: 1706
Flags: W
HStem: 186 248<379.59 614.048> 186 240<1048.82 1328.09> 784 248<1093.54 1328.42> 791 239<379.911 655.676>
VStem: 195 120<495.265 729.556> 1393 120<487.601 722.902>
Fore
1393 606 m 0x6c
 1393 713 1313 784 1214 784 c 0
 1111 784 1037 709 956 561 c 1
 1003 488 1076 426 1190 426 c 0
 1309 426 1393 498 1393 606 c 0x6c
315 612 m 0
 315 505 394 434 494 434 c 0
 600 434 676 519 752 657 c 1
 704 731 634 791 518 791 c 0x9c
 399 791 315 719 315 612 c 0
1198 186 m 0x6c
 1061 186 972 275 856 442 c 1
 766 270 662 186 532 186 c 0
 348 186 195 363 195 608 c 0
 195 859 321 1030 510 1030 c 0x9c
 647 1030 741 935 852 774 c 1
 945 947 1046 1032 1176 1032 c 0
 1361 1032 1513 856 1513 610 c 0
 1513 357 1387 186 1198 186 c 0x6c
EndSplineSet
EndChar
StartChar: integral
Encoding: 8747 8747 387
Width: 1249
Flags: W
HStem: -373 125<214 406.385> 1223 21G<1008 1096.5> 1434 122<847.548 1035>
VStem: 485 279<137.204 676 767 1033.63>
Fore
328 -205 m 0
 328 -233 335 -248 362 -248 c 0
 460 -248 479 244 485 573 c 0
 502 1098 581 1556 965 1556 c 0
 1105 1556 1200 1480 1200 1366 c 0
 1200 1280 1140 1223 1053 1223 c 0
 963 1223 924 1281 924 1374 c 0
 924 1420 917 1434 891 1434 c 0
 824 1434 782 1212 767 767 c 2
 764 676 l 2
 750 260 732 -107 516 -290 c 0
 452 -345 375 -373 287 -373 c 0
 141 -373 51 -297 51 -182 c 0
 51 -94 112 -39 205 -39 c 0
 288 -39 330 -91 330 -178 c 0
 330 -191 328 -199 328 -205 c 0
EndSplineSet
EndChar
StartChar: approxequal
Encoding: 8776 8776 388
Width: 1716
Flags: W
HStem: 248 233<941.467 1324.6> 385 233<391.75 775.396> 666 233<941.787 1324.6> 803 231<391.224 776.522>
Fore
1141 899 m 0x20
 1284 899 1400 977 1499 1059 c 1
 1499 815 l 1
 1388 732 1270 666 1118 666 c 0x20
 918 666 762 803 575 803 c 0
 432 803 315 726 217 643 c 1
 217 887 l 1
 328 970 446 1034 598 1034 c 0x10
 800 1034 959 899 1141 899 c 0x20
1141 481 m 0x80
 1284 481 1400 559 1499 641 c 1
 1499 397 l 1
 1388 314 1270 248 1118 248 c 0x80
 918 248 761 385 575 385 c 0
 432 385 318 311 217 225 c 1
 217 469 l 1
 328 552 446 618 598 618 c 0x40
 795 618 961 481 1141 481 c 0x80
EndSplineSet
EndChar
StartChar: notequal
Encoding: 8800 8800 389
Width: 1716
Flags: W
HStem: -10 21G<433.378 473.525> 295 237<217 453 907 1499> 752 235<217 817 1264 1499>
Fore
217 987 m 1
 1008 987 l 1
 1260 1292 l 1
 1409 1167 l 1
 1264 987 l 1
 1499 987 l 1
 1499 752 l 1
 1081 752 l 1
 907 532 l 1
 1499 532 l 1
 1499 295 l 1
 709 295 l 1
 457 -10 l 1
 307 117 l 1
 453 295 l 1
 217 295 l 1
 217 532 l 1
 641 532 l 1
 817 752 l 1
 217 752 l 1
 217 987 l 1
EndSplineSet
EndChar
StartChar: lessequal
Encoding: 8804 8804 390
Width: 1716
Flags: W
HStem: 0 238<217 1499>
Fore
1499 238 m 1
 1499 0 l 1
 217 0 l 1
 217 238 l 1
 1499 238 l 1
1499 948 m 1
 602 739 l 1
 1499 530 l 1
 1499 287 l 1
 217 623 l 1
 217 858 l 1
 1499 1192 l 1
 1499 948 l 1
EndSplineSet
EndChar
StartChar: greaterequal
Encoding: 8805 8805 391
Width: 1716
Flags: W
HStem: 0 238<217 1499>
Fore
217 238 m 1
 1499 238 l 1
 1499 0 l 1
 217 0 l 1
 217 238 l 1
217 948 m 1
 217 1192 l 1
 1499 858 l 1
 1499 623 l 1
 217 287 l 1
 217 530 l 1
 1114 739 l 1
 217 948 l 1
EndSplineSet
EndChar
StartChar: lozenge
Encoding: 9674 9674 392
Width: 1012
Flags: W
VStem: 6 1000<592 592>
Fore
506 1409 m 1
 121 592 l 1
 506 -233 l 1
 891 592 l 1
 506 1409 l 1
506 1653 m 1
 1006 592 l 1
 506 -477 l 1
 6 592 l 1
 506 1653 l 1
EndSplineSet
EndChar
StartChar: uniFB02
Encoding: 64258 64258 393
Width: 1518
Flags: W
HStem: 0 21G<217 575 985 1346> 864 256<39 217 575 856> 1321 235<598.349 635 635 985>
VStem: 217 358<0 864 1120 1297.63> 985 361<0 1321>
Fore
217 1198 m 2
 217 1456 369 1556 635 1556 c 2
 1346 1556 l 1
 1346 0 l 1
 985 0 l 1
 985 1321 l 1
 711 1321 l 2
 609 1321 575 1287 575 1198 c 2
 575 1120 l 1
 856 1120 l 1
 856 864 l 1
 575 864 l 1
 575 0 l 1
 217 0 l 1
 217 864 l 1
 39 864 l 1
 39 1120 l 1
 217 1120 l 1
 217 1198 l 2
EndSplineSet
LCarets2: 1 0 
Ligature2: "'liga' Standard Ligatures in Latin lookup 2" f l
EndChar
StartChar: uniFB01
Encoding: 64257 64257 394
Width: 1518
Flags: W
HStem: 0 21G<219 580 985 1346> 864 256<43 219 580 985> 1264 292<985 1346> 1321 235<600.349 637 637 911>
VStem: 219 361<0 864 1120 1297.63> 985 361<0 864 1264 1556>
Fore
985 1556 m 1xec
 1346 1556 l 1
 1346 1264 l 1
 985 1264 l 1
 985 1556 l 1xec
219 1198 m 2
 219 1456 371 1556 637 1556 c 2
 911 1556 l 1
 911 1321 l 1
 713 1321 l 2xdc
 620 1321 580 1293 580 1198 c 2
 580 1120 l 1
 1346 1120 l 1
 1346 0 l 1
 985 0 l 1
 985 864 l 1
 580 864 l 1
 580 0 l 1
 219 0 l 1
 219 864 l 1
 43 864 l 1
 43 1120 l 1
 219 1120 l 1
 219 1198 l 2
EndSplineSet
LCarets2: 1 0 
Ligature2: "'liga' Standard Ligatures in Latin lookup 2" f i
EndChar
